<svg class="img-fluid" id="outputsvg" xmlns="http://www.w3.org/2000/svg"
style="transform: matrix(1.11388, 0, 0, 1.11388, 0, 0); transform-origin: 50%
50%; cursor: move; transition: transform 200ms ease-in-out;" width="253"
height="219" viewBox="0 0 2530 2190"><g id="l2VlYHQY7edpm4zSduQ5d1S"
fill="rgb(255,255,255)">
<g>
<path id="patRsb2yo" d="M 1032 1996 c 3 -80 9 -149 13 -155 7 -12 173 -15
213 -5 25 7 28 43 9 108 -10 31 -19 42 -45 50 -42 14 -58 39 -37 56 8 7 15 27 15
45 0 30 -3 33 -37 39 -21 3 -60 6 -87 6 -49 0 -49 0 -44 -144 z "></path><path
id="p1F9ysKiwu" d="M 1047 1773 c -3 -5 -6 -251 -8 -548 -2 -471 0 -555 15 -655 21
-138 73 -315 126 -427 38 -81 39 -83 75 -83 31 0 39 5 66 47 114 178 216 483 324
970 18 79 55 358 55 410 0 17 -5 35 -11 39 -6 3 -69 10 -140 14 -116 6 -132 9 -169
33 -52 35 -90 93 -98 154 -7 48 -7 48 -119 51 -61 1 -114 -1 -116 -5 z
"></path><path id="pXAJIRzvG" d="M 240 1103 c 0 -44 -23 -24 439 -380 230 -178
281 -213 308 -213 31 0 33 2 33 38 0 36 -5 40 -202 197 -395 314 -507 395 -544 395
-33 0 -34 -2 -34 -37 z "></path><path id="pWduYbZEW" d="M 1909 931 c -52 -39
-145 -109 -206 -158 -102 -80 -113 -91 -113 -120 0 -32 2 -33 39 -33 22 0 42 4 46
9 3 6 93 76 200 156 187 140 195 148 195 181 0 32 -2 34 -33 34 -26 0 -56 -16 -128
-69 z "></path></g></g><g id="l3ngNnMffwBqo6knJYG7GXs" fill="rgb(242,248,252)">
<g>
<path id="p5oL8G5Br" d="M
1030 2136 c 0 -43 3 -56 15 -56 8 0 15 7 15 15 0 16 15 18 72 9 37 -6 37 -6 16 -35
-21 -27 -21 -31 -6 -62 11 -23 26 -36 50 -43 18 -5 33 -14 33 -19 0 -6 4 -16 8 -22
5 -7 6 -13 2 -13 -3 0 -1 -9 4 -19 13 -23 2 -27 -94 -26 -67 0 -70 1 -73 25 -7 68
-14 90 -27 90 -16 0 -20 -60 -9 -119 7 -31 7 -31 150 -31 144 0 144 0 144 70 0 92
-17 120 -71 120 -21 0 -41 -4 -44 -10 -10 -16 -43 11 -37 32 3 14 14 18 48 18 44 0
44 0 44 35 0 28 -5 37 -24 45 -13 5 -29 17 -34 27 -9 15 -26 19 -96 22 -86 3 -86 3
-86 -53 z "></path><path id="pybmu4COM" d="M 1040 1745 c 0 -39 24 -50 33 -15 3
11 12 20 21 20 9 0 16 7 16 15 0 10 -11 15 -35 15 -33 0 -35 -2 -35 -35 z
"></path><path id="pE2LeZBi5" d="M 1210 1766 c 0 -7 8 -16 19 -19 13 -3 19 -17 23
-51 10 -85 86 -166 171 -181 32 -6 37 -5 37 11 0 13 -12 23 -39 31 -36 12 -111 75
-111 94 0 5 -4 9 -10 9 -5 0 -12 27 -16 60 -7 60 -7 60 -40 60 -22 0 -34 -5 -34
-14 z "></path><path id="piyH0s8Ci" d="M 1580 1525 c 0 -10 14 -17 40 -21 22 -4
43 -10 45 -14 5 -8 -32 -316 -41 -340 -7 -19 -44 -201 -44 -217 0 -7 8 -13 18 -13
15 0 22 22 45 138 31 157 57 351 57 421 0 46 -1 49 -31 55 -55 11 -89 7 -89 -9 z
"></path><path id="pum0GiIwt" d="M 250 1111 c 0 -45 17 -81 39 -81 10 0 21 -9 24
-20 3 -11 13 -23 24 -27 10 -3 22 -12 26 -20 4 -7 17 -13 27 -13 11 0 20 -7 20 -15
0 -9 9 -15 25 -15 18 0 25 -5 25 -20 0 -13 7 -20 20 -20 11 0 20 -7 20 -15 0 -8 9
-15 20 -15 11 0 20 -7 20 -15 0 -9 9 -15 25 -15 18 0 25 -5 25 -20 0 -13 7 -20 19
-20 10 0 21 -9 24 -20 3 -11 12 -20 20 -20 8 0 17 -7 21 -15 3 -8 15 -15 26 -15 11
0 20 -7 20 -15 0 -8 9 -15 20 -15 11 0 20 -7 20 -15 0 -9 9 -15 21 -15 12 0 23 -8
26 -20 4 -15 14 -20 39 -20 31 0 34 3 34 29 0 41 -17
81 -34 81 -7 0 -16 7 -20 15 -3 8 -17 15 -31 15 -18 0 -25 5 -25 20 0 11 -8 24 -17
27 -10 4 -26 17 -36 30 -10 13 -24 23 -32 23 -7 0 -15 7 -19 15 -3 8 -11 15 -18 15
-7 0 -19 9 -26 20 -7 11 -18 20 -25 20 -7 0 -18 9 -25 20 -7 11 -18 20 -26 20 -8 0
-16 7 -20 15 -3 8 -15 15 -26 15 -11 0 -20 7 -20 15 0 9 -8 19 -17 22 -10 4 -24 15
-31 25 -7 10 -19 18 -26 18 -8 0 -16 7 -20 15 -3 8 -12 15 -20 15 -7 0 -16 7 -20
15 -3 8 -12 15 -20 15 -7 0 -16 7 -20 15 -3 8 -12 15 -20 15 -7 0 -16 7 -20 15 -3
8 -12 15 -20 15 -7 0 -16 7 -20 15 -3 8 -12 15 -21 15 -8 0 -15 5 -15 10 0 6 -16
10 -35 10 -32 0 -35 -2 -35 -29 z  m 189 -124 c 209 -158 545 -428 550 -440 5 -15
0 -11 -288 211 -324 250 -425 331 -430 344 -5 16 9 6 168 -115 z "></path><path
id="ppCPJ8jXb" d="M 1033 858 c 3 -155 10 -244 25 -328 23 -127 87 -340 102 -340 6
0 10 -9 10 -20 0 -32 22 -70 42 -70 11 0 18 -7 18 -20 0 -16 7 -20 35 -20 24 0 35
5 35 15 0 8 5 15 10 15 6 0 10 11 10 25 0 15 6 25 14 25 8 0 17 7 20 16 9 23 7 74
-2 74 -5 0 -24 -27 -42 -61 -53 -94 -54 -94 -99 2 -99 212 -145 446 -142 722 2 175
2 177 -20 177 -21 0 -21 0 -16 -212 z "></path><path id="p1AtZzlTpk" d="M 1988
994 c -46 -30 -92 -65 -103 -77 -11 -12 -33 -28 -48 -36 -15 -8 -27 -20 -27 -27 0
-7 -10 -14 -22 -16 -15 -2 -24 -11 -26 -25 -3 -17 -10 -23 -28 -23 -13 0 -24 -4
-24 -10 0 -5 -7 -10 -15 -10 -8 0 -24 -13 -37 -30 -12 -16 -28 -30 -35 -30 -7 0
-13 -7 -13 -15 0 -8 -7 -15 -15 -15 -10 0 -15 -11 -15 -35 0 -34 1 -35 40 -35 28 0
40 4 40 14 0 8 14 19 30 25 17 5 30 15 30 20 0 6 7 11 15 11 8 0 15 7 15 15 0 8 9
15 20 15 11 0 23 7 26 15 4 8 12 15 20 15 8 0 14 7 14 15 0 8 8 15 19 15 10 0 21 9
24 20 3 12 14 20 26 20 12 0 21 5 21 10 0 6 6 10 14 10 7 0 16 9 19 20 3 12 14 20
26 20 12 0 21 6 21 15 0 8 9 15 20 15 11 0 20 7 20 15 0 8 8 15 18 15 31 1 82 57
82 90 0 28 -3 30 -35 30 -25 0 -56 -15 -117 -56 z  m 52 -28 c 0 -4 -284 -221 -334
-255 -46 -32 13 24 76 72 97 74 251 187 255 187 2 0 3 -2 3 -4 z  m -380 -291 c
-13 -14 -28 -25 -34 -25 -6 0 3 11 19 25 39 31 45 32 15 0 z "></path><path
id="pFL0Deeh0" d="M 1566 888 c -3 -13 -20 -76 -37 -140 -30 -116 -110 -357 -143
-430 -16 -38 -16 -38 8 -38 24 0 36 16 36 51 0 10 4 19 9 19 12 0 101 269 101 304
0 13 3 26 8 28 9 4 53 175 52 206 0 12 -6 22 -14 22 -7 0 -16 -10 -20 -22 z
"></path><path id="pdXFD65Gq" d="M 530 20 c 0 -20 7 -20 795 -20 788 0 795 0 795
20 0 20 -7 20 -795 20 -788 0 -795 0 -795 -20 z "></path></g></g><g
id="l4jTk18PHI8ykUnoFMqLlzL" fill="rgb(228,242,253)">
<g>
<path id="pApNJLzRO" d="M 1040 2178 c 0 -7 5 -20 10 -28
8 -12 10 -10 10 9 0 16 4 21 14 18 8 -3 34 -11 58 -17 23 -7 48 -21 56 -31 7 -10
19 -19 27 -19 8 0 16 -4 19 -9 4 -5 -3 -7 -14 -4 -11 3 -27 2 -36 -1 -14 -6 -12
-11 14 -33 42 -34 43 -63 2 -63 -19 0 -30 -5 -30 -14 0 -21 35 -26 66 -9 26 13 29
12 46 -9 10 -13 18 -38 18 -55 0 -25 4 -33 19 -33 15 0 19 10 25 53 13 110 0 149
-73 230 -24 26 -28 27 -128 27 -76 0 -103 -3 -103 -12 z "></path><path
id="p1E0MpSV11" d="M 1030 1880 c 0 -50 0 -50 35 -50 24 0 35 5 35 15 0 8 -6 15
-14 15 -8 0 -17 15 -20 35 -11 56 -36 46 -36 -15 z "></path><path id="phmJDdcVR"
d="M 1260 1663 c 1 -19 22 -53 34 -53 3 0 6 16 6 35 0 28 -4 35 -20 35 -13 0 -20
-7 -20 -17 z "></path><path id="pHNU7rAdA" d="M 1343 1555 c 36 -32 86 -45 175
-45 65 0 72 2 72 20 0 18 -7 20 -77 20 -49 1 -87 6 -103 15 -14 8 -41 14 -60 14
-35 0 -35 0 -7 -24 z "></path><path id="pr8zpY28C" d="M 1666 1438 c -10 -38 -7
-48 14 -48 16 0 20 7 20 35 0 40 -24 49 -34 13 z "></path><path id="p1B88vpvvP"
d="M 2468 1250 c -14 -16 -17 -70 -25 -462 -8 -443 -8 -443 -40 -508 -65 -135 -199
-226 -347 -237 -51 -4 -76 -10 -76 -18 0 -20 18 -21 293 -24 257 -3 257 -3 257 633
0 636 0 636 -22 635 -13 0 -30 -9 -40 -19 z "></path><path id="p8I1AQfBS" d="M
1030 1146 c 0 -63 -5 -127 -11 -143 -7 -18 -8 -65 -4 -130 7 -92 9 -103 26 -103 17
0 19 8 19 78 0 44 3 154 7 245 6 166 6 167 -15 167 -21 0 -22 -4 -22 -114 z
"></path><path id="pvhJ9cRcD" d="M 240 1117 c 0 -21 7 -36 20 -45 11 -7 20 -21 20
-32 0 -15 7 -20 25 -20 28 0 66 -18 78 -37 4 -7 15 -13 22 -13 10 0 15 -10 15 -30
0 -28 3 -30 35 -30 19 0 35 2 35 5 0 2 -35 31 -77 64 -115 88 -149 118 -141 126 10
10 384 -272 578 -435 30 -26 72 -59 93 -74 37 -28 37 -28 37 3 0 24 -4 31 -19 31
-10 0 -21 9 -24 20 -3 13 -14 20 -30 20 -19 0 -26 6 -29 23 -2 16 -11 23 -30 25
-20 2 -28 9 -28 23 0 11 -8 23 -17 26 -10 4 -22 12 -26 20 -4 7 -16 13 -26 13 -10
0 -21 9 -24 20 -3 12 -14 20 -26 20 -13 0 -21 6 -21 16 0 9 -9 18 -19 21 -11 3 -22
11 -25 19 -3 8 -14 14 -25 14 -10 0 -21 9 -24 20 -3 12 -14 20 -26 20 -13 0 -21 6
-21 16 0 9 -9 18 -20 21 -11 3 -20 9 -20 14 0 5 -8 9 -19 9 -10 0 -21 9 -24 20 -3
11 -12 20 -20 20 -8 0 -17 7 -21 15 -3 8 -12 15 -21 15 -8 0 -15 5 -15 10 0 6 -9
10 -20 10 -11 0 -20 7 -20 15 0 19 -31 35 -69 35 -28 0 -31 -3 -31 -33 z
"></path><path id="pnuJ5MATT" d="M 2168 1132 c -7 -10 -68 -55 -135 -101 -68 -45
-123 -89 -123 -97 0 -8 -8 -14 -18 -14 -10 0 -32 -13 -49 -29 -17 -15 -38 -31 -47
-34 -9 -4 -16 -13 -16 -22 0 -8 -7 -15 -15 -15 -25 0 -75 -42 -75 -62 0 -12 -8 -18
-24 -18 -14 0 -31 -8 -38 -18 -7 -10 -21 -21 -30 -25 -13 -4 -18 -17 -18 -42 0 -33
2 -35 34 -35 19 0 38 5 41 10 3 6 14 10 24 10 11 0 21 10 25 23 12 47 5 49 -40 12
-25 -20 -47 -35 -50 -33 -4 5 70 71 126 113 15 11 62 47 105 80 102 79 205 154 230
167 49 27 -15 -27 -182 -153 -109 -83 -170 -135 -160 -137 21 -4 77 35 77 53 0 9
17 16 46 21 29 4 48 13 51 23 11 29 36 51 60 51 15 0 23 6 23 18 0 19 86 82 113 82
10 0 20 7 23 15 4 8 11 15 16 15 6 0 32 18 59 41 43 36 49 45 49 80 0 38 -1 39 -34
39 -22 0 -40 -7 -48 -18 z "></path><path id="pfrFYvQwh" d="M 1576 928 c -10 -38
-7 -48 14 -48 16 0 20 7 20 35 0 40 -24 49 -34 13 z "></path><path id="pubZxrq5W"
d="M 510 890 c 0 -7 9 -14 20 -17 14 -4 20 -14 20 -34 0 -24 4 -29 25 -29 18 0 25
-5 25 -20 0 -14 7 -20 23 -20 48 0 67 -11 67 -40 0 -25 4 -28 42 -33 24 -3 44 -5
45 -4 2 2 -132 107 -229 180 -21 16 -38 23 -38 17 z "></path><path id="pUmhja3xW"
d="M 1535 763 c -9 -38 -19 -78 -22 -90 -4 -18 -1 -23 16 -23 17 0 21 6 21 34 0 19
5 36 10 38 6 2 13 27 17 56 5 43 3 52 -10 52 -11 0 -20 -20 -32 -67 z
"></path><path id="p3va3A26A" d="M 0 404 c 0 -406 0 -406 388 -404 213 2 397 5
410 7 12 3 22 11 22 18 0 11 -49 14 -227 17 -210 3 -232 6 -283 27 -117 48 -211
146 -247 257 -12 36 -17 106 -21 267 -4 204 -5 217 -23 217 -18 0 -19 -15 -19 -406
z "></path><path id="pD7CDAIY8" d="M 1030 725 c 0 -28 4 -35 20 -35 21 0 24 10 14
48 -10 36 -34 27 -34 -13 z "></path><path id="p17IUDw6ux" d="M 1040 645 c 0 -28
4 -35 20 -35 21 0 24 10 14 48 -10 36 -34 27 -34 -13 z "></path><path
id="paQkkCRjd" d="M 804 654 c 3 -9 6 -22 6 -30 0 -8 10 -14 25 -14 18 0 25 -5 25
-20 0 -13 7 -20 20 -20 11 0 20 -7 20 -15 0 -11 11 -15 36 -15 19 0 33 4 30 8 -7
13 -152 122 -161 122 -4 0 -4 -7 -1 -16 z "></path><path id="pCvDH7Dov" d="M 1083
413 c 3 -26 10 -49 16 -51 6 -2 11 -19 11 -38 0 -29 3 -34 24 -34 23 0 23 0 -2 85
-17 56 -31 85 -40 85 -11 0 -13 -10 -9 -47 z "></path><path id="p4gfPQnX3" d="M
1355 250 c -20 -38 -19 -40 10 -40 22 0 25 4 25 35 0 43 -14 45 -35 5 z
"></path><path id="p1RFfx2L6" d="M 1200 115 c 0 -33 2 -35 35 -35 34 0 34 0 10 26
-14 15 -25 31 -25 35 0 5 -4 9 -10 9 -5 0 -10 -16 -10 -35 z "></path></g></g><g
id="l7Y8d83L0gMbXiM9N1lWeuZ" fill="rgb(210,231,249)">
<g>
<path id="p3ETdTar9" d="M 3 1303 c 3 -489 9 -898 13
-910 3 -13 12 -23 20 -23 11 0 14 127 16 758 3 757 3 757 30 814 25 54 112 151 181
203 53 39 38 45 -119 45 -147 0 -147 0 -141 -887 z "></path><path id="puEBKlxqd"
d="M 1213 2158 c 21 -17 54 -55 73 -85 35 -55 35 -55 23 -134 -8 -55 -15 -79 -25
-79 -8 0 -14 -4 -14 -10 0 -5 15 -10 33 -10 33 0 33 0 45 103 7 56 12 135 12 175 0
72 0 72 -92 72 -93 -1 -93 -1 -55 -32 z "></path><path id="pvJaYFdSl" d="M 2210
2178 c 0 -19 11 -30 59 -63 59 -40 124 -130 150 -207 20 -60 21 -80 21 -575 0 -430
2 -513 14 -513 22 0 26 33 26 218 0 104 4 171 9 167 5 -3 12 4 16 15 3 11 11 20 16
20 5 0 9 188 9 475 0 475 0 475 -160 475 -121 0 -160 -3 -160 -12 z "></path><path
id="plWaepHHD" d="M 1020 2005 c 0 -175 0 -175 35 -175 24 0 35 5 35 15 0 8 -7 15
-15 15 -13 0 -15 24 -15 160 0 153 -1 160 -20 160 -19 0 -20 -7 -20 -175 z
"></path><path id="pDCqZ6Bbq" d="M 1246 2060 c 10 -21 19 -30 22 -21 2 7 -6 23
-18 35 -22 21 -22 21 -4 -14 z "></path><path id="p5pv1ee8H" d="M 333 1890 c -45
-27 -55 -70 -51 -230 3 -135 3 -135 101 -138 97 -3 97 -3 97 87 0 109 2 111 124
111 86 0 86 0 86 95 0 95 0 95 -162 95 -144 0 -167 -2 -195 -20 z "></path><path
id="p88yAJWYi" d="M2227.0450660180736 1745.2748142011535 C 2227.0450660180736
1859.0510320523485 2134.8112177104426 1951.2848803599798 2021.0349998592474
1951.2848803599798 1907.2587820080523 1951.2848803599798 1815.0249337004211
1859.0510320523485 1815.0249337004211 1745.2748142011535 1815.0249337004211
1631.4985963499585 1907.2587820080523 1539.2647480423273 2021.0349998592474
1539.2647480423273 2134.8112177104426 1539.2647480423273 2227.0450660180736
1631.4985963499585 2227.0450660180736 1745.2748142011535 Z M1790.0 1816.0
"></path><path id="p1F6T6ZO6p" d="M 1030 1490 c 0 -240 2 -290 14 -290 23 0 26 34
26 298 0 217 2 252 15 252 8 0 15 7 15 15 0 10 -11 15 -35 15 -35 0 -35 0 -35 -290
z "></path><path id="p3dLzudll" d="M 1250 1705 c 0 -54 59 -133 124 -167 39 -20
127 -30 141 -16 19 18 -6 38 -47 38 -24 1 -54 7 -68 15 -14 8 -37 14 -52 15 -22 0
-28 5 -28 22 0 39 -33 108 -52 108 -10 0 -18 -7 -18 -15 z "></path><path
id="pAf3iFVgA" d="M 1656 1348 c -10 -38 -7 -48 14 -48 16 0 20 7 20 35 0 40 -24
49 -34 13 z "></path><path id="p18Ckvcqqk" d="M 375 1262 c -120 -89 -130 -100
-133 -132 -3 -34 1 -39 68 -88 53 -40 70 -59 70 -77 0 -22 5 -25 34 -25 43 0 96
-42 96 -76 0 -20 5 -24 33 -24 42 0 107 -51 107 -85 0 -20 6 -24 38 -27 32 -3 37
-7 40 -30 3 -23 8 -28 32 -28 18 0 42 -12 64 -31 20 -17 41 -29 47 -27 6 2 -24 31
-67 63 -260 198 -526 409 -531 422 -3 7 -3 16 -1 18 7 8 375 -274 598 -458 84 -69
95 -76 98 -57 5 32 -5 50 -28 50 -11 0 -20 7 -20 15 0 8 -18 29 -40 46 -29 24 -40
40 -40 60 0 37 -22 129 -30 129 -4 0 -10 18 -14 40 -3 22 -10 40 -15 40 -5 0 -11
27 -15 60 -4 33 -11 60 -16 60 -6 0 -10 12 -10 28 0 50 -11 72 -35 72 -16 0 -26 9
-36 33 -7 17 -19 38 -26 45 -7 7 -13 20 -13 28 0 8 -7 14 -15 14 -8 0 -15 6 -15 14
0 17 -22 26 -63 26 -25 0 -62 -23 -162 -98 z  m 107 -129 c 17 -15 17 -17 2 -35
-21 -23 -40 -23 -53 -1 -7 13 -5 23 6 35 20 22 22 22 45 1 z "></path><path
id="pByftf4eT" d="M 1917 1328 c -8 -35 -46 -137 -74 -198 -40 -88 -41 -93 -47
-143 -3 -27 -13 -58 -21 -70 -8 -12 -15 -30 -15 -40 0 -10 -25 -44 -55 -76 -30 -32
-55 -65 -55 -74 0 -11 -8 -17 -25 -17 -22 0 -25 -4 -25 -37 0 -21 4 -33 8 -27 19
29 347 284 482 374 52 35 103 73 112 84 10 12 17 16 18 9 0 -16 -93 -91 -467 -372
-68 -51 -123 -94 -123 -97 0 -2 9 -4 20 -4 11 0 20 7 20 15 0 10 11 15 35 15 28 0
35 4 35 19 0 24 62 71 94 71 18 0 26 5 26 18 0 26 20 42 52 42 21 0 28 5 28 18 0
26 32 52 63 52 17 0 27 5 27 15 0 8 9 15 20 15 13 0 20 7 20 19 0 20 85 81 113 81
10 0 17 6 17 14 0 8 10 16 23 18 19 3 22 10 25 55 3 51 3 52 -48 92 -129 102 -208
151 -243 151 -28 0 -36 -4 -40 -22 z  M2061.357215126623 1113.0491102450396 C
2061.357215126623 1094.5401618795609 2046.3527478652127 1079.5356946181505
2027.843799499734 1079.5356946181505 2009.334851134255 1079.5356946181505
1994.330383872845 1094.5401618795609 1994.330383872845 1113.0491102450396
1994.330383872845 1131.5580586105184 2009.334851134255 1146.5625258719288
2027.843799499734 1146.5625258719288 2046.3527478652127 1146.5625258719288
2061.357215126623 1131.5580586105184 2061.357215126623 1113.0491102450396 Z
M2051.0 1134.0 "></path><path id="pD8puqkQN" d="M 1016 1119 c -3 -17 -6 -83 -6
-145 0 -107 1 -114 20 -114 17 0 19 7 19 53 0 28 3 94 6 145 7 87 6 92 -13 92 -14
0 -21 -9 -26 -31 z "></path><path id="prv7VYXKI" d="M 1561 856 c -15 -60 -14 -66
8 -66 19 0 31 34 31 86 0 41 -27 27 -39 -20 z "></path><path id="pQtwu33ue" d="M
1020 795 c 0 -28 4 -35 20 -35 21 0 24 10 14 48 -10 36 -34 27 -34 -13 z
"></path><path id="pHPveVDqW" d="M 1030 715 c 0 -28 4 -35 20 -35 21 0 24 10 14
48 -10 36 -34 27 -34 -13 z "></path><path id="pGRBU2e7z" d="M 287 693 c -4 -3 -7
-70 -7 -148 0 -131 2 -145 23 -176 36 -53 56 -59 223 -59 118 0 154 3 163 14 8 9
11 45 9 98 -3 83 -3 83 -97 86 -52 1 -101 8 -108 14 -9 7 -13 38 -13 94 0 84 0 84
-93 84 -52 0 -97 -3 -100 -7 z "></path><path id="p6OQdtVh0"
d="M2227.6074407672627 479.703117806389 C 2227.6074407672627 591.8626345148002
2136.6841876857566 682.7858875963068 2024.524670977345 682.7858875963068
1912.3651542689338 682.7858875963068 1821.4419011874272 591.8626345148002
1821.4419011874272 479.703117806389 1821.4419011874272 367.5436010979776
1912.3651542689338 276.6203480164711 2024.524670977345 276.6203480164711
2136.6841876857566 276.6203480164711 2227.6074407672627 367.5436010979776
2227.6074407672627 479.703117806389 Z M1998.0 608.0 "></path><path
id="pXmGZ1Lh8" d="M 1040 653 c 0 -10 5 -53 12 -95 9 -65 15 -78 30 -78 22 0 22 -5
3 100 -8 47 -15 86 -15 88 0 1 -7 2 -15 2 -8 0 -15 -8 -15 -17 z "></path><path
id="pEZLsGRNC" d="M 892 588 c 3 -7 13 -15 24 -17 16 -3 17 -1 5 13 -16 19 -34 21
-29 4 z "></path><path id="pqhk0G19N" d="M 987 553 c 5 -12 2 -15 -10 -10 -13 5
-17 1 -17 -18 0 -22 4 -25 35 -25 33 0 35 2 35 35 0 31 -3 35 -25 35 -19 0 -23 -4
-18 -17 z "></path><path id="pl0TEGWeW" d="M 1453 485 c -11 -33 -10 -35 13 -35
21 0 24 5 24 35 0 22 -5 35 -13 35 -8 0 -18 -16 -24 -35 z "></path><path
id="pevqI0Ki4" d="M 1100 355 c 0 -19 5 -35 10 -35 6 0 10 -13 10 -30 0 -25 4 -30
24 -30 24 0 24 0 2 65 -23 71 -46 86 -46 30 z "></path><path id="pe7sAxIxL" d="M
1416 381 c -3 -4 -10 -20 -15 -35 -10 -24 -8 -26 14 -26 22 0 25 4 25 35 0 33 -12
46 -24 26 z "></path><path id="p4sD25PGW" d="M 2424 335 c -3 -25 -10 -45 -15 -45
-5 0 -9 -9 -9 -20 0 -11 -4 -20 -10 -20 -5 0 -10 -7 -10 -15 0 -8 -4 -15 -10 -15
-5 0 -10 -11 -10 -25 0 -18 -5 -25 -20 -25 -15 0 -20 -7 -20 -25 0 -20 -5 -25 -24
-25 -40 0 -56 -11 -56 -36 0 -27 5 -29 38 -10 78 43 170 175 187 269 6 33 5 37 -13
37 -17 0 -22 -8 -28 -45 z "></path><path id="p11P5oB3ob" d="M 44 265 c 54 -128
186 -229 329 -250 43 -7 47 -6 47 14 0 14 -6 21 -20 21 -32 0 -114 24 -128 37 -7 7
-20 13 -28 13 -8 0 -14 5 -14 10 0 6 -9 10 -20 10 -11 0 -20 6 -20 14 0 8 -16 28
-35 45 -19 17 -35 35 -35 41 0 5 -4 10 -8 10 -4 0 -14 16 -21 35 -9 27 -18 35 -37
35 -24 0 -24 -1 -10 -35 z "></path><path id="pzE0lXf70" d="M 1150 218 c 0 -43 12
-61 38 -56 21 3 21 3 2 46 -23 50 -40 54 -40 10 z "></path><path id="p7zzXptRZ"
d="M 1302 153 c -41 -71 -38 -69 -61 -49 -21 19 -21 19 -21 -17 0 -36 1 -37 35 -37
33 0 35 2 35 35 0 31 3 35 25 35 22 0 25 4 25 35 0 45 -11 44 -38 -2 z
"></path><path id="pTFPaLJs5" d="M 2123 57 c -32 -8 -43 -16 -43 -30 0 -17 5 -18
43 -12 54 9 107 31 107 44 0 13 -49 12 -107 -2 z "></path></g></g><g
id="l5cDrpFJI9R0T5cMK5tBo3V" fill="rgb(186,226,246)">
<g>
<path id="p8jX4DOKk" d="M 1020 1638 c -8 -41 -14 -161
-17 -336 -3 -241 -2 -273 12 -278 21 -9 24 -5 30 46 3 23 7 46 9 49 4 5 10 521 7
564 0 9 -7 17 -14 17 -8 0 -18 -24 -27 -62 z "></path><path id="pjVv66Uc1" d="M
1450 1542 c 0 -14 8 -19 35 -20 29 -1 35 2 35 18 0 16 -7 20 -35 20 -27 0 -35 -4
-35 -18 z "></path></g></g><g id="l5dEDwxKrFYV8uGx7dd2Xna"
fill="rgb(190,218,240)">
<g>
<path id="pBmvOO95o" d="M 235 2169 c -22 -11 -49 -29 -60 -40 -19 -19 -19
-19 18 -19 26 0 37 4 37 15 0 9 9 15 25 15 20 0 25 5 25 25 0 14 -1 25 -3 25 -1 0
-20 -9 -42 -21 z "></path><path id="pQaRY1zvf" d="M 980 2098 c 0 -51 7 -133 16
-181 16 -88 16 -88 52 -85 37 3 59 28 25 28 -18 0 -19 9 -19 165 1 165 1 165 -36
165 -38 0 -38 0 -38 -92 z "></path><path id="pHrCzWlYg" d="M 2200 2175 c 0 -9 9
-15 25 -15 18 0 25 -5 25 -20 0 -13 7 -20 19 -20 10 0 21 -9 24 -20 3 -11 12 -20
21 -20 9 0 16 -7 16 -15 0 -9 9 -15 25 -15 22 0 25 -4 25 -35 0 -19 5 -35 10 -35 6
0 10 -9 10 -20 0 -15 7 -20 25 -20 25 0 25 0 10 36 -33 80 -105 158 -182 198 -40
20 -53 20 -53 1 z "></path><path id="p1bRkSNgR" d="M 1168 2089 c -29 -16 -21 -29
17 -29 28 0 35 4 35 20 0 22 -24 26 -52 9 z "></path><path id="p14VisYv21" d="M
1230 2062 c 0 -17 -7 -37 -15 -46 -21 -21 -19 -46 4 -46 23 0 51 36 51 66 0 11 -9
29 -20 39 -20 18 -20 17 -20 -13 z "></path><path id="p15hy2CohO" d="M 1327 2038
c -3 -13 -9 -56 -13 -97 -6 -60 -10 -75 -25 -78 -33 -9 -22 -33 14 -33 33 0 33 0
45 83 16 110 15 147 -2 147 -8 0 -16 -10 -19 -22 z "></path><path id="pjMX8LVoE"
d="M 88 2033 c -23 -25 -55 -99 -63 -145 -7 -34 -5 -38 14 -38 17 0 21 6 21 35 0
19 4 35 8 35 15 0 44 76 40 105 -3 27 -3 27 -20 8 z "></path><path id="pKXVj1k1j"
d="M 343 1904 c -18 -9 -33 -22 -33 -29 0 -8 -5 -15 -11 -17 -6 -2 -13 -25 -16 -51
-7 -61 18 -66 36 -7 20 68 51 80 209 80 132 0 132 0 132 -65 0 -65 0 -65 -86 -65
-47 0 -94 -5 -105 -10 -26 -14 -25 -50 1 -50 11 0 20 5 20 10 0 6 37 10 91 10 116
0 119 3 119 113 0 68 -3 86 -16 91 -9 3 -82 6 -162 6 -114 0 -154 -4 -179 -16 z
"></path><path id="p19PzxIjHP" d="M 1790 1885 c 0 -24 5 -35 15 -35 8 0 15 7 15
15 0 13 23 15 146 15 146 0 146 0 174 -30 16 -17 31 -44 35 -60 9 -43 35 -39 35 5
0 19 -4 35 -10 35 -5 0 -10 9 -10 20 0 13 -7 20 -20 20 -13 0 -20 7 -20 19 0 25
-40 31 -217 31 -143 0 -143 0 -143 -35 z "></path><path id="pRbeM8Cqs" d="M 2430
1885 c 0 -28 4 -35 20 -35 21 0 24 10 14 48 -10 36 -34 27 -34 -13 z
"></path><path id="p19TOl8Kyr" d="M 1220 1765 c 0 -8 7 -15 15 -15 10 0 15 -10 15
-27 0 -34 40 -122 66 -145 34 -30 107 -57 154 -56 25 1 64 -2 88 -6 38 -7 42 -6 42
13 0 16 -6 21 -28 21 -41 0 -127 28 -142 45 -7 8 -23 15 -36 15 -13 0 -39 8 -58 18
-33 16 -35 20 -42 85 -7 67 -7 67 -40 67 -24 0 -34 -5 -34 -15 z "></path><path
id="p1C0vYxLU0" d="M 1800 1745 c 0 -33 2 -35 35 -35 41 0 49 24 10 34 -14 4 -25
13 -25 21 0 8 -4 15 -10 15 -5 0 -10 -16 -10 -35 z "></path><path id="p1B0yS2m1A"
d="M 15 1470 c -9 -40 3 -90 21 -90 10 0 14 15 14 60 0 45 -4 60 -14 60 -8 0 -17
-13 -21 -30 z "></path><path id="pgJGFNrfQ" d="M 595 1430 c -44 -33 -81 -65 -83
-70 -2 -6 -10 -10 -18 -10 -8 0 -14 -4 -14 -10 0 -5 -7 -10 -15 -10 -9 0 -18 -7
-21 -15 -4 -8 -13 -15 -20 -15 -8 0 -17 -7 -20 -15 -4 -8 -12 -15 -20 -15 -8 0 -14
-7 -14 -15 0 -8 -9 -15 -20 -15 -11 0 -20 -7 -20 -15 0 -8 -9 -15 -20 -15 -11 0
-20 -6 -20 -14 0 -8 -10 -16 -22 -18 -19 -2 -24 -10 -26 -40 -4 -43 17 -53 33 -16
13 30 267 216 273 200 2 -7 9 -9 14 -6 7 5 8 2 4 -5 -5 -8 0 -14 13 -18 12 -3 20
-11 18 -17 -2 -6 5 -19 16 -28 11 -10 20 -29 20 -43 0 -13 3 -22 8 -19 5 3 9 1 9
-5 0 -5 8 -17 17 -27 10 -9 18 -22 20 -28 1 -6 6 -24 9 -41 4 -16 12 -33 18 -37 7
-5 6 -8 -4 -9 -10 0 -9 -3 4 -8 12 -5 20 -20 23 -41 2 -19 8 -37 14 -40 6 -4 11
-22 13 -39 1 -18 8 -36 16 -41 8 -5 13 -26 13 -54 0 -25 3 -46 7 -46 4 0 8 -6 7
-12 -1 -35 9 -48 88 -116 47 -41 90 -83 96 -94 15 -27 11 -25 -141 91 -69 52 -131
99 -137 104 -10 7 -13 2 -13 -22 0 -24 4 -31 20 -31 11 0 20 -7 20 -15 0 -8 9 -15
20 -15 11 0 20 -7 20 -15 0 -8 9 -15 20 -15 11 0 20 -7 20 -15 0 -9 9 -15 23 -15
49 0 67 -11 67 -41 0 -22 5 -29 20 -29 11 0 20 -7 20 -15 0 -11 11 -15 36 -15 35 0
35 0 32 53 -3 51 -4 52 -35 55 -27 3 -33 8 -33 27 0 13 -4 26 -9 29 -5 3 -11 23
-14 43 -6 43 -35 202 -67 368 -12 61 -24 128 -27 150 -3 22 -9 45 -13 50 -4 6 -11
31 -14 58 -4 26 -11 47 -17 47 -5 0 -9 14 -9 30 0 17 -4 30 -10 30 -5 0 -10 11 -10
25 0 23 -4 25 -42 25 -37 0 -55 -9 -123 -60 z "></path><path id="p1C3F6O9QN" d="M
1666 1428 c -10 -38 -7 -48 14 -48 16 0 20 7 20 35 0 40 -24 49 -34 13 z
"></path><path id="pBdkgPIWk" d="M 1835 1353 c -9 -32 -20 -67 -25 -78 -4 -11 -13
-38 -18 -60 -6 -22 -24 -92 -41 -155 -18 -63 -34 -131 -38 -150 -9 -55 -60 -156
-93 -184 -17 -13 -30 -32 -30 -40 0 -9 -4 -16 -10 -16 -5 0 -10 -16 -10 -35 0 -33
2 -35 35 -35 24 0 35 5 35 15 0 9 9 15 25 15 16 0 25 6 25 15 0 8 9 15 20 15 13 0
20 7 20 20 0 15 7 20 25 20 16 0 25 6 25 15 0 8 9 15 20 15 16 0 20 7 20 31 0 24
-3 29 -12 22 -7 -5 -53 -40 -101 -78 -48 -37 -90 -65 -93 -62 -3 2 38 48 92 100 63
63 95 101 91 111 -3 8 3 26 13 39 11 13 17 27 13 30 -3 3 2 14 12 23 9 9 13 20 8
23 -14 10 -9 56 6 53 9 -2 11 3 7 13 -7 20 31 108 43 100 5 -3 7 3 5 12 -3 10 5 43
17 73 11 30 23 65 26 78 3 12 8 22 10 22 3 0 34 -20 69 -46 64 -45 64 -45 64 -15 0
24 -4 31 -20 31 -11 0 -20 7 -20 15 0 8 -7 15 -15 15 -8 0 -15 5 -15 10 0 6 -7 10
-15 10 -8 0 -15 4 -15 9 0 16 -80 61 -110 61 -27 0 -31 -4 -45 -57 z
"></path><path id="p1d9dDy3R" d="M 1646 1278 c -10 -38 -7 -48 14 -48 16 0 20 7
20 35 0 40 -24 49 -34 13 z "></path><path id="poHLYxlYM" d="M 417 1168 c -13 -13
-26 -31 -30 -41 -11 -31 27 -87 59 -87 12 0 2 51 -11 56 -8 4 -15 17 -15 30 0 22 4
24 45 24 47 0 58 12 26 30 -30 15 -48 12 -74 -12 z "></path><path id="p1Agkuifwe"
d="M 1980 1170 c -29 -29 -35 -66 -16 -95 25 -37 40 -32 33 13 -4 31 -1 41 14 50
28 18 49 14 49 -8 0 -13 7 -20 20 -20 29 0 25 34 -6 59 -34 26 -68 27 -94 1 z
"></path><path id="p191nkFSXK" d="M 2198 1147 c 12 -13 22 -29 22 -35 0 -7 7 -12
15 -12 10 0 15 11 15 35 0 34 -1 35 -37 35 -36 0 -36 0 -15 -23 z "></path><path
id="pSp7qeB4N" d="M 1612 1083 c -26 -120 -26 -123 -5 -123 16 0 22 11 31 64 16 83
15 106 -2 106 -9 0 -18 -18 -24 -47 z "></path><path id="phmWwOp1L" d="M 2047
1093 c -11 -10 -8 -53 3 -53 13 0 50 37 50 50 0 11 -43 14 -53 3 z "></path><path
id="pZnNLhfO0" d="M 290 1041 c 0 -26 4 -31 25 -31 18 0 25 -5 25 -20 0 -17 7 -20
38 -20 37 1 37 1 2 31 -19 17 -47 39 -62 50 -28 20 -28 20 -28 -10 z
"></path><path id="pkuKpER7s" d="M 2113 1014 c -40 -30 -73 -57 -73 -59 0 -3 16
-5 35 -5 24 0 35 5 35 15 0 8 9 15 20 15 11 0 20 7 20 15 0 8 9 15 20 15 16 0 20 7
20 30 0 17 -1 30 -2 30 -2 0 -36 -25 -75 -56 z "></path><path id="p1CEHFmhuM"
d="M 430 931 c 0 -24 4 -31 20 -31 11 0 20 -7 20 -15 0 -9 9 -15 25 -15 18 0 25 -5
25 -20 0 -13 7 -20 20 -20 11 0 20 -7 20 -15 0 -10 11 -15 35 -15 19 0 35 2 35 4 0
3 -79 66 -187 149 -10 7 -13 2 -13 -22 z "></path><path id="pYrmOLXs4" d="M 1963
899 c -29 -22 -53 -42 -53 -44 0 -3 16 -5 35 -5 24 0 35 5 35 15 0 8 9 15 20 15 16
0 20 7 20 30 0 17 -1 30 -2 30 -2 0 -27 -18 -55 -41 z "></path><path
id="prv5WKWnM" d="M 1010 885 c 0 -28 4 -35 20 -35 21 0 24 10 14 48 -10 36 -34 27
-34 -13 z "></path><path id="p1HWuJ8Ruv" d="M 1020 785 c 0 -28 4 -35 20 -35 21 0
24 10 14 48 -10 36 -34 27 -34 -13 z "></path><path id="pAu0AsXfx" d="M 1030 705
c 0 -28 4 -35 20 -35 21 0 24 10 14 48 -10 36 -34 27 -34 -13 z "></path><path
id="pEH9Lx6Ae" d="M 280 665 c 0 -39 24 -50 33 -15 3 11 12 20 21 20 9 0 16 7 16
15 0 10 -11 15 -35 15 -33 0 -35 -2 -35 -35 z "></path><path id="pLeTVOwJs" d="M
2140 685 c 0 -8 7 -15 16 -15 9 0 18 -9 21 -20 9 -35 33 -24 33 15 0 33 -2 35 -35
35 -24 0 -35 -5 -35 -15 z "></path><path id="pMBvxXDfi" d="M 1506 658 c -10 -38
-7 -48 14 -48 16 0 20 7 20 35 0 40 -24 49 -34 13 z "></path><path id="pa8Bjn8vs"
d="M 1040 641 c 0 -10 3 -39 6 -65 5 -37 11 -46 26 -46 21 0 21 5 2 103 -6 30 -34
37 -34 8 z "></path><path id="pAraUUG7I" d="M 450 567 c 0 -70 10 -87 52 -87 21 0
28 5 28 20 0 13 -7 20 -20 20 -18 0 -20 7 -20 55 0 48 -2 55 -20 55 -18 0 -20 -7
-20 -63 z "></path><path id="phLKjUTPV" d="M 1459 500 c -26 -80 -26 -80 -3 -80
20 0 24 5 24 29 0 16 5 31 11 33 6 2 13 25 16 51 4 36 2 47 -8 47 -9 0 -24 -30 -40
-80 z "></path><path id="pTBeFxnuO" d="M 1070 465 c 0 -28 4 -35 20 -35 21 0 24
10 14 48 -10 36 -34 27 -34 -13 z "></path><path id="p31Ir7dOY" d="M 1780 421 c 0
-102 4 -111 46 -111 38 0 48 24 14 33 -17 4 -20 14 -20 71 0 52 3 66 15 66 8 0 15
5 15 10 0 6 -16 10 -35 10 -35 0 -35 0 -35 -79 z "></path><path id="p14tMBcn6T"
d="M 2173 435 c -11 -33 -10 -35 13 -35 21 0 24 5 24 35 0 22 -5 35 -13 35 -8 0
-18 -16 -24 -35 z "></path><path id="p1AdAhCsAN" d="M 290 405 c 0 -32 2 -35 30
-35 29 0 29 0 9 35 -12 19 -25 35 -30 35 -5 0 -9 -16 -9 -35 z "></path><path
id="pulxKiQGb" d="M 1426 401 c -3 -4 -10 -20 -15 -35 -10 -24 -8 -26 14 -26 22 0
25 4 25 35 0 33 -12 46 -24 26 z "></path><path id="piQhaZriX" d="M 667 369 c -3
-11 -15 -23 -26 -26 -12 -3 -21 -12 -21 -20 0 -10 10 -13 38 -11 35 3 37 5 40 41 2
27 -1 37 -11 37 -8 0 -17 -9 -20 -21 z "></path><path id="pf4d1e9OG" d="M 2430
355 c 0 -40 24 -49 34 -12 10 37 7 47 -14 47 -16 0 -20 -7 -20 -35 z
"></path><path id="p1HIlrChaO" d="M 2103 355 c -51 -24 -56 -45 -10 -45 43 0 59
12 55 41 -3 24 -3 24 -45 4 z "></path><path id="pWw0bl6h7" d="M 25 333 c 12 -66
45 -102 45 -49 0 54 -12 86 -32 86 -18 0 -19 -4 -13 -37 z "></path><path
id="p7kqgm4J7" d="M 360 334 c 0 -21 5 -24 35 -24 22 0 35 5 35 13 0 8 -16 18 -35
24 -33 11 -35 10 -35 -13 z "></path><path id="p72pg8jPI" d="M 1360 259 c -16 -34
-30 -63 -30 -65 0 -2 11 -4 25 -4 16 0 25 6 25 16 0 8 7 22 15 30 17 17 21 84 5 84
-5 0 -23 -27 -40 -61 z "></path><path id="ptqTkcGcB" d="M 2390 235 c 0 -53 13
-46 48 28 2 4 -8 7 -22 7 -23 0 -26 -4 -26 -35 z "></path><path id="pUfYNWZld"
d="M 1286 124 c -21 -33 -31 -42 -37 -32 -7 10 -9 9 -9 -4 0 -14 8 -18 35 -18 24 0
35 5 35 15 0 8 5 15 10 15 6 0 10 16 10 35 0 19 -3 35 -7 35 -5 0 -21 -21 -37 -46
z "></path><path id="pJKnEhxZX" d="M 2270 105 c 0 -31 11 -32 47 0 28 24 28 24 -9
25 -34 0 -38 -3 -38 -25 z "></path><path id="p1ylqmpb9" d="M 2180 55 c 0 -24 1
-25 32 -12 46 19 48 37 4 37 -32 0 -36 -3 -36 -25 z "></path><path id="pWtYTq2ZW"
d="M 2070 30 c 0 -21 10 -24 48 -14 36 10 27 34 -13 34 -28 0 -35 -4 -35 -20 z
"></path></g></g><g id="l1EHVLJHzdcm78dxmiEvmOu" fill="rgb(175,214,235)">
<g>
<path id="p23249XR6" d="M
1330 2140 c 0 -43 3 -50 20 -50 17 0 20 7 20 50 0 43 -3 50 -20 50 -17 0 -20 -7
-20 -50 z "></path><path id="pr4eRmp0M" d="M 2230 2155 c 0 -22 4 -25 35 -25 43 0
44 10 6 33 -38 22 -41 22 -41 -8 z "></path><path id="paU4fy8Zq" d="M 2312 2099 c
3 -30 7 -34 37 -37 32 -3 33 -3 18 18 -8 12 -25 29 -37 37 -21 15 -21 14 -18 -18 z
"></path><path id="p1EtCK80UO" d="M 1326 1998 c -10 -38 -7 -48 14 -48 16 0 20 7
20 35 0 40 -24 49 -34 13 z "></path><path id="pTe86eMYo" d="M 997 1773 c -4 -3
-7 -118 -7 -255 0 -241 1 -248 20 -248 19 0 20 7 21 113 1 125 2 144 18 202 6 22
11 68 11 103 0 48 3 62 15 62 8 0 15 7 15 15 0 11 -11 15 -43 15 -24 0 -47 -3 -50
-7 z "></path><path id="pq4Y6IAze" d="M 1260 1696 c 0 -54 58 -123 98 -118 13 2
32 -4 42 -13 18 -16 99 -45 127 -45 7 0 13 9 13 20 0 12 -7 20 -16 20 -50 0 -136
63 -173 126 -3 6 -25 15 -48 19 -36 6 -43 4 -43 -9 z "></path><path
id="pSzFwwccC" d="M 610 1419 c 0 -30 0 -30 30 -9 44 31 45 40 6 40 -33 0 -36 -2
-36 -31 z "></path><path id="pAjMomRMc" d="M 1836 1393 c -2 -10 -10 -44 -16 -75
-6 -32 -15 -58 -19 -58 -8 0 -23 -51 -45 -155 -7 -33 -20 -76 -28 -95 -9 -19 -23
-66 -33 -105 -9 -38 -25 -90 -36 -114 -10 -24 -19 -58 -19 -75 1 -31 1 -31 30 3 34
40 61 107 86 214 10 42 21 77 25 77 3 0 6 8 6 18 -1 25 14 94 25 116 6 10 12 33 14
50 3 17 9 40 14 51 5 11 16 46 25 78 13 49 18 57 31 47 12 -10 14 -8 14 14 0 23 -4
26 -34 26 -24 0 -36 -5 -40 -17 z "></path><path id="pNDGmxhDi" d="M 530 1375 c 0
-8 -9 -15 -20 -15 -16 0 -20 -7 -20 -31 0 -30 0 -30 45 2 69 50 74 59 31 59 -25 0
-36 -4 -36 -15 z "></path><path id="phCxs4Sz6" d="M 767 1314 c 9 -4 10 -11 3 -24
-7 -13 -4 -22 10 -35 11 -10 17 -22 14 -26 -3 -5 2 -9 11 -9 13 0 16 9 13 48 -3 44
-5 47 -33 49 -16 1 -24 0 -18 -3 z "></path><path id="pFtXRo8fD" d="M 2058 1258 c
6 -7 44 -38 86 -68 41 -30 76 -61 76 -67 0 -7 5 -13 10 -13 6 0 10 16 10 35 0 28
-4 35 -20 35 -11 0 -20 7 -20 15 0 8 -9 15 -20 15 -11 0 -20 7 -20 15 0 8 -9 15
-20 15 -11 0 -20 7 -20 15 0 11 -11 15 -36 15 -28 0 -34 -3 -26 -12 z
"></path><path id="pREl28qRK" d="M 797 1204 c -10 -10 14 -64 29 -64 9 0 14 12 14
35 0 27 -4 35 -18 35 -10 0 -21 -3 -25 -6 z "></path><path id="p7ULYTJT4" d="M
260 1170 c 0 -11 -7 -20 -15 -20 -10 0 -15 -11 -15 -35 0 -30 3 -35 24 -35 20 0 22
4 18 26 -4 20 3 32 29 54 34 29 34 29 -3 30 -31 0 -38 -3 -38 -20 z "></path><path
id="pcJODZmHQ" d="M 407 1162 c -23 -26 -22 -52 3 -52 16 0 20 7 20 35 0 40 -1 41
-23 17 z "></path><path id="p1Ejt5494c" d="M 490 1132 c 0 -45 -3 -52 -20 -52 -13
0 -20 -7 -20 -20 0 -27 31 -26 58 3 28 29 29 78 2 102 -20 18 -20 17 -20 -33 z
"></path><path id="p6Z3U4gQr" d="M 1958 1133 c -6 -27 12 -72 32 -83 31 -17 65
-11 88 13 28 29 29 57 2 57 -13 0 -20 -7 -20 -20 0 -13 -7 -20 -17 -20 -27 1 -53
25 -53 49 0 25 -27 28 -32 4 z "></path><path id="p16fiFOL47" d="M 1000 1040 c 0
-43 3 -50 20 -50 15 0 20 7 20 28 0 42 -11 72 -26 72 -10 0 -14 -14 -14 -50 z
"></path><path id="pZ3R67pxD" d="M 1010 875 c 0 -28 4 -35 20 -35 21 0 24 10 14
48 -10 36 -34 27 -34 -13 z "></path><path id="pZYYdFx46" d="M 870 831 c 0 -30 11
-51 26 -51 9 0 14 12 14 35 0 28 -4 35 -20 35 -13 0 -20 -7 -20 -19 z
"></path><path id="pWqPUjuN5" d="M 610 791 c 0 -29 3 -31 36 -31 39 0 38 9 -6 40
-30 21 -30 21 -30 -9 z "></path><path id="pQXZJ3bRM" d="M 1546 798 c -10 -38 -7
-48 14 -48 16 0 20 7 20 35 0 40 -24 49 -34 13 z "></path><path id="pvaXxfqBb"
d="M 884 743 c 4 -16 9 -44 12 -63 3 -26 18 -48 55 -83 50 -48 50 -48 47 -10 -2 29
-8 39 -23 41 -20 3 -31 28 -50 115 -4 19 -12 27 -26 27 -18 0 -20 -4 -15 -27 z
"></path><path id="pWz84cReW" d="M 420 680 c 0 -5 7 -10 15 -10 10 0 15 -11 16
-32 1 -31 5 -88 8 -115 0 -7 8 -13 16 -13 12 0 15 17 15 90 0 90 0 90 -35 90 -19 0
-35 -4 -35 -10 z "></path><path id="pplS8kDZu" d="M 870 591 c 0 -25 4 -31 23 -31
12 0 33 -3 47 -7 24 -6 24 -6 -5 18 -68 56 -65 55 -65 20 z "></path><path
id="pCCLb6QKC" d="M 1486 588 c -10 -38 -7 -48 14 -48 16 0 20 7 20 35 0 40 -24 49
-34 13 z "></path><path id="pCA4gGTNH" d="M 1980 499 c 0 -15 5 -20 22 -17 34 5
37 38 4 38 -20 0 -26 -5 -26 -21 z "></path><path id="p19BY3fAnv" d="M 2161 405 c
-20 -35 -20 -35 9 -35 28 0 30 3 30 35 0 19 -4 35 -9 35 -5 0 -18 -16 -30 -35 z
"></path><path id="pyD94Nssb" d="M 1090 385 c 0 -28 4 -35 20 -35 21 0 24 10 14
48 -10 36 -34 27 -34 -13 z "></path><path id="pjiEk1R3h" d="M 310 375 c 0 -34 1
-35 37 -35 37 0 37 0 3 35 -19 19 -35 35 -37 35 -2 0 -3 -16 -3 -35 z
"></path><path id="po4QU5Rz1" d="M 1396 331 c -3 -4 -10 -20 -15 -35 -10 -24 -8
-26 14 -26 22 0 25 4 25 35 0 33 -12 46 -24 26 z "></path><path id="p12rScB7pv"
d="M 1130 266 c 0 -32 3 -36 25 -36 24 0 25 1 12 32 -19 46 -37 48 -37 4 z
"></path><path id="pEUXagoFO" d="M 1337 211 c -22 -38 -22 -41 8 -41 22 0 25 4 25
35 0 43 -10 44 -33 6 z "></path><path id="p1GUq8BUaD" d="M 1180 145 c 0 -31 3
-35 25 -35 29 0 30 2 10 40 -21 40 -35 38 -35 -5 z "></path><path id="pNszg5eVS"
d="M 150 125 c 0 -7 81 -65 92 -65 4 0 8 11 8 25 0 16 -6 25 -15 25 -8 0 -15 5 -15
10 0 6 -16 10 -35 10 -19 0 -35 -2 -35 -5 z "></path><path id="p1AK1iVKng" d="M
2135 60 c -11 -5 -32 -9 -47 -9 -21 -1 -28 -6 -28 -22 0 -18 4 -20 48 -13 57 8 112
29 112 43 0 13 -56 13 -85 1 z "></path><path id="pr1r21vmj" d="M 300 46 c 0 -14
11 -18 93 -32 32 -5 37 -4 37 14 0 15 -9 21 -46 26 -69 9 -84 8 -84 -8 z
"></path></g></g><g id="lrdVsHfqhGTmlBzvrPldCT" fill="rgb(140,179,210)">
<g>
<path id="p12GZ8IYZy" d="M
1336 2113 c -12 -152 -29 -253 -43 -253 -7 0 -13 -7 -13 -16 0 -11 9 -14 36 -12 35
3 37 6 56 63 15 44 20 90 22 175 1 115 1 115 -26 118 -26 3 -26 2 -32 -75 z
"></path><path id="plm8aRaOm" d="M 2210 2165 c 0 -20 5 -25 25 -25 16 0 25 -6 25
-15 0 -11 11 -15 36 -15 41 0 38 11 -14 44 -61 37 -72 39 -72 11 z "></path><path
id="plH9b7Jxp" d="M 180 2130 c -35 -29 -35 -29 3 -30 35 0 37 2 37 30 0 17 -1 30
-3 30 -1 0 -18 -13 -37 -30 z "></path><path id="plFab0qDH" d="M 1180 2093 c -42
-15 -54 -78 -20 -108 20 -18 20 -17 20 16 0 41 15 59 47 59 28 0 30 16 4 30 -21 11
-28 11 -51 3 z "></path><path id="pqEftUKNI" d="M 103 2051 c -40 -53 -41 -61 -8
-61 15 0 25 6 25 14 0 8 5 16 11 18 6 2 9 19 7 38 -3 35 -3 35 -35 -9 z
"></path><path id="pHZOcndVG" d="M 2360 2046 c 0 -25 4 -36 15 -36 9 0 15 -9 15
-25 0 -14 4 -25 8 -25 4 0 14 -27 21 -60 11 -47 17 -60 32 -60 11 0 19 7 19 15 0
28 -40 136 -65 175 -34 54 -45 58 -45 16 z "></path><path id="pO8ZUCO5k" d="M
1230 2015 c 0 -39 6 -43 26 -17 20 26 17 52 -6 52 -16 0 -20 -7 -20 -35 z
"></path><path id="paZhSPBdT" d="M 980 2019 c 0 -11 5 -51 11 -90 10 -56 15 -69
30 -69 23 0 23 -4 4 93 -8 43 -15 81 -15 83 0 2 -7 4 -15 4 -8 0 -15 -9 -15 -21 z
"></path><path id="p1FFHv7yjX" d="M 40 1941 c -16 -31 -12 -51 10 -51 16 0 20 7
20 35 0 39 -14 46 -30 16 z "></path><path id="pI9H3pWxB" d="M 366 1920 c -33 -10
-66 -42 -66 -65 0 -8 -4 -15 -10 -15 -5 0 -10 -16 -10 -35 0 -24 5 -35 15 -35 8 0
15 5 15 11 0 6 7 26 16 44 24 52 64 65 197 65 123 0 147 -4 147 -26 0 -8 5 -14 10
-14 17 0 12 67 -6 74 -24 9 -275 6 -308 -4 z "></path><path id="p6afEALOs" d="M
1820 1916 c 0 -9 -8 -16 -20 -16 -18 0 -20 -7 -20 -85 0 -85 0 -85 38 -85 30 1 34
3 20 11 -15 8 -18 24 -18 81 0 70 0 70 144 66 157 -4 170 -8 202 -70 20 -38 34 -35
34 7 0 24 -5 35 -15 35 -8 0 -15 9 -15 20 0 13 -7 20 -19 20 -11 0 -21 6 -23 12 -3
9 -47 14 -156 16 -135 4 -152 2 -152 -12 z "></path><path id="p4PH7aNyL" d="M 670
1775 c 0 -8 -9 -20 -20 -27 -29 -19 -24 -28 15 -28 33 0 35 2 35 35 0 24 -5 35 -15
35 -8 0 -15 -7 -15 -15 z "></path><path id="pQwYbXsDp" d="M 990 1745 c 0 -39 24
-50 33 -15 3 11 12 20 21 20 9 0 16 7 16 15 0 10 -11 15 -35 15 -33 0 -35 -2 -35
-35 z "></path><path id="p10lQgSIqa" d="M 1227 1773 c -13 -12 -7 -23 11 -23 13 0
18 -9 20 -32 3 -39 18 -58 42 -53 12 2 21 -3 25 -15 8 -25 80 -89 119 -105 26 -11
191 -45 219 -45 4 0 7 8 7 19 0 15 -10 20 -57 26 -68 8 -183 44 -183 56 0 5 -11 9
-25 9 -19 0 -25 5 -25 23 0 12 -7 30 -15 41 -8 10 -17 38 -21 62 -6 44 -6 44 -58
44 -29 0 -56 -3 -59 -7 z "></path><path id="pM12w4Xtc" d="M 456 1724 c -3 -9 -6
-51 -6 -95 0 -64 -3 -79 -15 -79 -8 0 -15 -4 -15 -10 0 -5 16 -10 35 -10 35 0 35 0
35 105 0 83 -3 105 -14 105 -8 0 -17 -7 -20 -16 z "></path><path id="pndpno3yX"
d="M 1990 1720 c 0 -13 7 -20 20 -20 13 0 20 7 20 20 0 13 -7 20 -20 20 -13 0 -20
-7 -20 -20 z "></path><path id="ps79CWgPY" d="M 2000 1555 c 0 -33 2 -35 35 -35
39 0 50 24 15 33 -11 3 -20 12 -20 21 0 9 -7 16 -15 16 -10 0 -15 -11 -15 -35 z
"></path><path id="pV6FTbjPi" d="M 725 1529 c -38 -27 -71 -54 -73 -59 -2 -6 -10
-10 -18 -10 -9 0 -14 -11 -14 -30 0 -31 0 -31 44 0 56 38 68 38 61 0 -4 -24 -2 -28
11 -23 13 5 15 -1 14 -28 -3 -49 -1 -56 11 -39 8 12 9 10 4 -7 -4 -15 -2 -23 6 -23
7 0 9 -3 6 -7 -4 -3 -2 -12 3 -19 6 -6 13 -32 15 -55 2 -24 4 -44 5 -44 3 0 12 -41
15 -65 1 -14 5 -32 8 -40 6 -16 47 -236 53 -285 2 -16 9 -46 14 -65 5 -19 12 -48
15 -64 3 -16 23 -46 44 -65 35 -33 59 -71 45 -71 -5 0 -33 21 -151 113 -10 7 -13 2
-13 -22 0 -28 3 -31 33 -31 38 0 57 -15 57 -46 0 -22 30 -34 86 -34 21 0 24 5 24
35 0 19 -4 35 -8 35 -5 0 -14 46 -21 103 -13 103 -40 239 -67 332 -18 64 -61 352
-70 473 -7 92 -7 92 -38 92 -21 -1 -54 -17 -101 -51 z "></path><path
id="pzooj1UoI" d="M 1776 1401 c -4 -35 -19 -84 -36 -118 -16 -32 -30 -66 -30 -77
0 -10 -4 -35 -10 -55 -5 -20 -23 -97 -39 -171 -17 -75 -41 -171 -55 -215 -14 -44
-26 -99 -26 -122 0 -42 0 -43 35 -43 29 0 35 4 35 20 0 31 49 69 88 70 22 0 32 5
32 15 0 8 9 15 20 15 16 0 20 7 20 31 0 24 -3 29 -12 22 -7 -5 -42 -32 -78 -60 -36
-27 -78 -58 -94 -69 -29 -18 -29 -18 -16 6 7 14 22 31 32 38 32 23 84 152 102 253
2 15 11 40 19 55 8 16 17 45 20 64 11 63 16 82 27 94 5 7 7 16 3 19 -3 4 -1 13 6
21 6 8 11 18 9 22 -1 5 3 18 9 29 6 11 14 41 18 66 11 77 15 78 92 24 37 -27 83
-60 101 -73 32 -24 32 -24 32 7 0 24 -4 31 -20 31 -11 0 -20 7 -20 15 0 8 -7 15
-15 15 -8 0 -15 5 -15 10 0 6 -9 10 -20 10 -11 0 -20 7 -20 15 0 8 -9 15 -20 15 -11
0 -20 7 -20 15 0 8 -9 15 -20 15 -11 0 -20 7 -20 15 0 8 -9 15 -20 15 -11 0 -20 7
-20 15 0 8 -9 15 -20 15 -11 0 -20 7 -20 15 0 8 -9 15 -20 15 -11 0 -20 7 -20 15 0
8 -9 15 -20 15 -11 0 -20 7 -20 15 0 8 -9 15 -20 15 -11 0 -20 7 -20 15 0 8 -9 15
-20 15 -11 0 -20 7 -20 15 0 8 -9 15 -20 15 -11 0 -20 7 -20 15 0 8 -9 15 -20 15
-11 0 -20 7 -20 15 0 8 -9 15 -20 15 -11 0 -20 7 -20 15 0 8 -9 15 -20 15 -11 0
-20 7 -20 15 0 8 -9 15 -20 15 -11 0 -20 7 -20 15 0 8 -9 15 -20 15 -11 0 -20 7
-20 15 0 8 -9 15 -20 15 -11 0 -20 7 -20 15 0 8 -9 15 -20 15 -11 0 -20 7 -20 15
0 8 -9 15 -20 15 -11 0 -20 7 -20 15 0 8 -9 15 -20 15 -11 0 -20 7 -20 15 0 8 -9
15 -20 15 -11 0 -20 7 -20 15 0 8 -9 15 -20 15 -11 0 -20 7 -20 15 0 8 -9 15 -20
15 -11 0 -20 7 -20 15 0 8 -9 15 -20 15 -11 0 -20 7 -20 15 0 8 -9 15 -20 15 -11
0 -20 7 -20 15 0 8 -9 15 -20 15 -11 0 -20 7 -20 15 0 8 -9 15 -20 15 -11 0 -20 7
-20 15 0 8 -9 15 -20 15 -11 0 -20 7 -20 15 0 8 -9 15 -20 15 -11 0 -20 7 -20 15
0 8 -9 15 -20 15 -11 0 -20 7 -20 15 0 8 -9 15 -20 15 -11 0 -20 7 -20 15 0 8 -9
15 -20 15 -11 0 -20 7 -20 15 0 8 -9 15 -20 15 -11 0 -20 7 -20 15 0 8 -9 15 -20
15 -11 0 -20 7 -20 15 0 8 -9 15 -20 15 -11 0 -20 7 -20 15 0 8 -9 15 -20 15 -11
0 -20 7 -20 15 0 8 -9 15 -20 15 -11 0 -20 7 -20 15 0 8 -9 15 -20 15 -11 0 -20 7
-20 15 0 8 -9 15 -20 15 -11 0 -20 7 -20 15 0 8 -9 15 -20 15 -11 0 -20 7 -20 15
0 8 -9 15 -20 15 -11 0 -20 7 -20 15 0 8 -9 15 -20 15 -11 0 -20 7 -20 15 0 8 -9
15 -20 15 -11 0 -20 7 -20 15 0 8 -9 15 -20 15 -11 0 -20 7 -20 15 0 8 -9 15 -20
15 -11 0 -20 7 -20 15 0 8 -9 15 -20 15 -11 0 -20 7 -20 15 0 8 -9 15 -20 15 -11
0 -20 7 -20 15 0 8 -9 15 -20 15 -11 0 -20 7 -20 15 0 8 -9 15 -20 15 -11 0 -20 7
-20 15 0 8 -9 15 -20 15 -11 0 -20 7 -20 15 0 8 -9 15 -20 15 -11 0 -20 7 -20 15
0 8 -9 15 -20 15 -11 0 -20 7 -20 15 0 8 -9 15 -20 15 -11 0 -20 7 -20 15 0 8 -9
15 -20 15 -11 0 -20 7 -20 15 0 8 -9 15 -20 15 -11 0 -20 7 -20 15 0 8 -9 15 -20
15 -11 0 -20 7 -20 15 0 8 -9 15 -20 15 -11 0 -20 7 -20 15 0 8 -9 15 -20 15 -11
0 -20 7 -20 15 0 8 -9 15 -20 15 -11 0 -20 7 -20 15 0 8 -9 15 -20 15 -11 0 -20 7
-20 15 0 8 -9 15 -20 15 -11 0 -20 7 -20 15 0 8 -9 15 -20 15 -11 0 -20 7 -20 15
0 8 -9 15 -20 15 -11 0 -20 7 -20 15 0 8 -9 15 -20 15 -11 0 -20 7 -20 15 0 8 -9
15 -20 15 -11 0 -20 7 -20 15 0 8 -9 15 -20 15 -11 0 -20 7 -20 15 0 8 -9 15 -20
15 -11 0 -20 7 -20 15 0 8 -9 15 -20 15 -11 0 -20 7 -20 15 0 8 -9 15 -20 15 -11
0 -20 7 -20 15 0 8 -9 15 -20 15 -11 0 -20 7 -20 15 0 8 -9 15 -20 15 -11 0 -20 7
-20 15 0 8 -9 15 -20 15 -11 0 -20 7 -20 15 0 8 -9 15 -20 15 -11 0 -20 7 -20 15
0 8 -9 15 -20 15 -11 0 -20 7 -20 15 0 8 -9 15 -20 15 -11 0 -20 7 -20 15 0 8 -9
15 -20 15 -11 0 -20 7 -20 15 0 8 -9 15 -20 15 -11 0 -20 7 -20 15 0 8 -9 15 -20
15 -11 0 -20 7 -20 15 0 8 -9 15 -20 15 -11 0 -20 7 -20 15 0 8 -9 15 -20 15 -11
0 -20 7 -20 15 0 8 -9 15 -20 15 -11 0 -20 7 -20 15 0 8 -9 15 -20 15 -11 0 -20 7
-20 15 0 8 -9 15 -20 15 -11 0 -20 7 -20 15 0 8 -9 15 -20 15 -11 0 -20 7 -20 15
0 8 -9 15 -20 15 -11 0 -20 7 -20 15 0 8 -9 15 -20 15 -11 0 -20 7 -20 15 0 8 -9
15 -20 15 -11 0 -20 7 -20 15 0 8 -9 15 -20 15 -11 0 -20 7 -20 15 0 8 -9 15 -20
15 -11 0 -20 7 -20 15 0 8 -9 15 -20 15 -11 0 -20 7 -20 15 0 8 -9 15 -20 15 -11
0 -20 7 -20 15 0 8 -9 15 -20 15 -11 0 -20 7 -20 15 0 8 -9 15 -20 15 -11 0 -20 7
-20 15 0 8 -9 15 -20 15 -11 0 -20 7 -20 15 0 8 -9 15 -20 15 -11 0 -20 7 -20 15
0 8 -9 15 -20 15 -11 0 -20 7 -20 15 0 8 -9 15 -20 15 -11 0 -20 7 -20 15 0 8 -9
15 -20 15 -11 0 -20 7 -20 15 0 8 -9 15 -20 15 -11 0 -20 7 -20 15 0 8 -9 15 -20
15 -11 0 -20 7 -20 15 0 8 -9 15 -20 15 -11 0 -20 7 -20 15 0 8 -9 15 -20 15 -11
0 -20 7 -20 15 0 8 -9 15 -20 15 -11 0 -20 7 -20 15 0 8 -9 15 -20 15 -11 0 -20 7
-20 15 0 8 -9 15 -20 15 -11 0 -20 7 -20 15 0 8 -9 15 -20 15 -11 0 -20 7 -20 15
0 8 -9 15 -20 15 -11 0 -20 7 -20 15 0 8 -9 15 -20 15 -11 0 -20 7 -20 15 0 8 -9
15 -20 15 -11 0 -20 7 -20 15 0 8 -9 15 -20 15 -11 0 -20 7 -20 15 0 8 -9 15 -20
15 -11 0 -20 7 -20 15 0 8 -9 15 -20 15 -11 0 -20 7 -20 15 0 8 -9 15 -20 15 -11
0 -20 7 -20 15 0 8 -9 15 -20 15 -11 0 -20 7 -20 15 0 8 -9 15 -20 15 -11 0 -20 7
-20 15 0 8 -9 15 -20 15 -11 0 -20 7 -20 15 0 8 -9 15 -20 15 -11 0 -20 7 -20 15
0 8 -9 15 -20 15 -11 0 -20 7 -20 15 0 8 -9 15 -20 15 -11 0 -20 7 -20 15 0 8 -9
15 -20 15 -11 0 -20 7 -20 15 0 8 -9 15 -20 15 -11 0 -20 7 -20 15 0 8 -9 15 -20
15 -11 0 -20 7 -20 15 0 8 -9 15 -20 15 -11 0 -20 7 -20 15 0 8 -9 15 -20 15 -11
0 -20 7 -20 15 0 8 -9 15 -20 15 -11 0 -20 7 -20 15 0 8 -9 15 -20 15 -11 0 -20 7
-20 15 0 8 -9 15 -20 15 -11 0 -20 7 -20 15 0 8 -9 15 -20 15 -11 0 -20 7 -20 15
0 8 -9 15 -20 15 -11 0 -20 7 -20 15 0 8 -9 15 -20 15 -11 0 -20 7 -20 15 0 8 -9
15 -20 15 -11 0 -20 7 -20 15 0 8 -9 15 -20 15 -11 0 -20 7 -20 15 0 8 -9 15 -20
15 -11 0 -20 7 -20 15 0 8 -9 15 -20 15 -11 0 -20 7 -20 15 0 8 -9 15 -20 15 -11
0 -20 7 -20 15 0 8 -9 15 -20 15 -11 0 -20 7 -20 15 0 8 -9 15 -20 15 -11 0 -20 7
-20 15 0 8 -9 15 -20 15 -11 0 -20 7 -20 15 0 8 -9 15 -20 15 -11 0 -20 7 -20 15
0 8 -9 15 -20 15 -11 0 -20 7 -20 15 0 8 -9 15 -20 15 -11 0 -20 7 -20 15 0 8 -9
15 -20 15 -11 0 -20 7 -20 15 0 8 -9 15 -20 15 -11 0 -20 7 -20 15 0 8 -9 15 -20
15 -11 0 -20 7 -20 15 0 8 -9 15 -20 15 -11 0 -20 7 -20 15 0 8 -9 15 -20 15 -11
0 -20 7 -20 15 0 8 -9 15 -20 15 -11 0 -20 7 -20 15 0 8 -9 15 -20 15 -11 0 -20 7
-20 15 0 8 -9 15 -20 15 -11 0 -20 7 -20 15 0 8 -9 15 -20 15 -11 0 -20 7 -20 15
0 8 -9 15 -20 15 -11 0 -20 7 -20 15 0 8 -9 15 -20 15 -11 0 -20 7 -20 15 0 8 -9
15 -20 15 -11 0 -20 7 -20 15 0 8 -9 15 -20 15 -11 0 -20 7 -20 15 0 8 -9 15 -20
15 -11 0 -20 7 -20 15 0 8 -9 15 -20 15 -11 0 -20 7 -20 15 0 8 -9 15 -20 15 -11
0 -20 7 -20 15 0 8 -9 15 -20 15 -11 0 -20 7 -20 15 0 8 -9 15 -20 15 -11 0 -20 7
-20 15 0 8 -9 15 -20 15 -11 0 -20 7 -20 15 0 8 -9 15 -20 15 -11 0 -20 7 -20 15
0 8 -9 15 -20 15 -11 0 -20 7 -20 15 0 8 -9 15 -20 15 -11 0 -20 7 -20 15 0 8 -9
15 -20 15 -11 0 -20 7 -20 15 0 8 -9 15 -20 15 -11 0 -20 7 -20 15 0 8 -9 15 -20
15 -11 0 -20 7 -20 15 0 8 -9 15 -20 15 -11 0 -20 7 -20 15 0 8 -9 15 -20 15 -11
0 -20 7 -20 15 0 8 -9 15 -20 15 -11 0 -20 7 -20 15 0 8 -9 15 -20 15 -11 0 -20 7
-20 15 0 8 -9 15 -20 15 -11 0 -20 7 -20 15 0 8 -9 15 -20 15 -11 0 -20 7 -20 15
0 8 -9 15 -20 15 -11 0 -20 7 -20 15 0 8 -9 15 -20 15 -11 0 -20 7 -20 15 0 8 -9
15 -20 15 -11 0 -20 7 -20 15 0 8 -9 15 -20 15 -11 0 -20 7 -20 15 0 8 -9 15 -20
15 -11 0 -20 7 -20 15 0 8 -9 15 -20 15 -11 0 -20 7 -20 15 0 8 -9 15 -20 15 -11
0 -20 7 -20 15 0 8 -9 15 -20 15 -11 0 -20 7 -20 15 0 8 -9 15 -20 15 -11 0 -20 7
-20 15 0 8 -9 15 -20 15 -11 0 -20 7 -20 15 0 8 -9 15 -20 15 -11 0 -20 7 -20 15
0 8 -9 15 -20 15 -11 0 -20 7 -20 15 0 8 -9 15 -20 15 -11 0 -20 7 -20 15 0 8 -9
15 -20 15 -11 0 -20 7 -20 15 0 8 -9 15 -20 15 -11 0 -20 7 -20 15 0 8 -9 15 -20
15 -11 0 -20 7 -20 15 0 8 -9 15 -20 15 -11 0 -20 7 -20 15 0 8 -9 15 -20 15 -11
0 -20 7 -20 15 0 8 -9 15 -20 15 -11 0 -20 7 -20 15 0 8 -9 15 -20 15 -11 0 -20 7
-20 15 0 8 -9 15 -20 15 -11 0 -20 7 -20 15 0 8 -9 15 -20 15 -11 0 -20 7 -20 15
0 8 -9 15 -20 15 -11 0 -20 7 -20 15 0 8 -9 15 -20 15 -11 0 -20 7 -20 15 0 8 -9
15 -20 15 -11 0 -20 7 -20 15 0 8 -9 15 -20 15 -11 0 -20 7 -20 15 0 8 -9 15 -20
15 -11 0 -20 7 -20 15 0 8 -9 15 -20 15 -11 0 -20 7 -20 15 0 8 -9 15 -20 15 -11
0 -20 7 -20 15 0 8 -9 15 -20 15 -11 0 -20 7 -20 15 0 8 -9 15 -20 15 -11 0 -20 7
-20 15 0 8 -9 15 -20 15 -11 0 -20 7 -20 15 0 8 -9 15 -20 15 -11 0 -20 7 -20 15
0 8 -9 15 -20 15 -11 0 -20 7 -20 15 0 8 -9 15 -20 15 -11 0 -20 7 -20 15 0 8 -9
15 -20 15 -11 0 -20 7 -20 15 0 8 -9 15 -20 15 -11 0 -20 7 -20 15 0 8 -9 15 -20
15 -11 0 -20 7 -20 15 0 8 -9 15 -20 15 -11 0 -20 7 -20 15 0 8 -9 15 -20 15 -11
0 -20 7 -20 15 0 8 -9 15 -20 15 -11 0 -20 7 -20 15 0 8 -9 15 -20 15 -11 0 -20 7
-20 15 0 8 -9 15 -20 15 -11 0 -20 7 -20 15 0 8 -9 15 -20 15 -11 0 -20 7 -20 15
0 8 -9 15 -20 15 -11 0 -20 7 -20 15 0 8 -9 15 -20 15 -11 0 -20 7 -20 15 0 8 -9
15 -20 15 -11 0 -20 7 -20 15 0 8 -9 15 -20 15 -11 0 -20 7 -20 15 0 8 -9 15 -20
15 -11 0 -20 7 -20 15 0 8 -9 15 -20 15 -11 0 -20 7 -20 15 0 8 -9 15 -20 15 -11
-15 15 -8 0 -15 5 -15 10 0 6 -9 10 -20 10 -11 0 -20 7 -20 15 0 8 -7 15 -15 15 -8
0 -15 5 -15 10 0 6 -6 10 -14 10 -8 0 -16 4 -18 8 -8 19 -69 52 -96 52 -29 0 -30
-2 -36 -59 z "></path><path id="pxxru3ZBQ" d="M 500 1355 c 0 -8 -9 -15 -20 -15
-11 0 -20 -7 -20 -15 0 -8 -9 -15 -20 -15 -11 0 -20 -7 -20 -15 0 -8 -9 -15 -20
-15 -11 0 -20 -7 -20 -15 0 -8 -9 -15 -20 -15 -11 0 -20 -7 -20 -15 0 -8 -9 -15
-20 -15 -16 0 -20 -7 -20 -31 0 -24 3 -29 13 -22 6 6 67 51 135 102 67 50 122 94
122 96 0 3 -16 5 -35 5 -24 0 -35 -5 -35 -15 z "></path><path id="pRisogEUj" d="M
1656 1328 c -3 -18 -13 -73 -21 -123 -18 -111 -19 -105 3 -105 16 0 21 16 35 113
21 136 21 147 2 147 -8 0 -16 -13 -19 -32 z "></path><path id="pU08tZPNf" d="M
990 1270 c 0 -53 2 -60 20 -60 16 0 20 7 20 38 0 52 -10 82 -26 82 -10 0 -14 -16
-14 -60 z "></path><path id="p15QejgEXF" d="M 431 1177 c -47 -24 -37 -37 28 -37
60 0 73 8 49 28 -24 18 -53 22 -77 9 z "></path><path id="poPkOgAQh" d="M 1987
1170 c -32 -26 -36 -60 -7 -60 13 0 20 7 20 20 0 18 5 19 45 13 45 -6 58 4 32 25
-27 23 -62 24 -90 2 z "></path><path id="p8KhfTTKi" d="M 230 1105 c 0 -32 2 -35
31 -35 29 0 29 1 15 21 -8 12 -12 28 -9 35 3 9 -2 14 -16 14 -17 0 -21 -6 -21 -35
z "></path><path id="p1A4GAiBN6" d="M 390 1102 c 0 -23 40 -62 63 -62 10 0 17 8
17 20 0 13 -7 20 -20 20 -13 0 -20 7 -20 20 0 13 -7 20 -20 20 -13 0 -20 -7 -20
-18 z "></path><path id="pLfwJnye4" d="M 2190 1074 c -35 -34 -35 -34 3 -34 36 0
37 1 37 35 0 19 -1 35 -2 34 -2 -1 -19 -16 -38 -35 z "></path><path
id="ptNReEbIA" d="M 300 1031 c 0 -29 3 -31 36 -31 39 0 38 9 -6 40 -30 21 -30 21
-30 -9 z "></path><path id="pfI5pNuRY" d="M 1000 1015 c 0 -28 4 -35 20 -35 21 0
24 10 14 48 -10 36 -34 27 -34 -13 z "></path><path id="puO1kftVA" d="M 2063 974
c -40 -30 -73 -57 -73 -59 0 -3 16 -5 35 -5 24 0 35 5 35 15 0 8 9 15 20 15 11 0
20 7 20 15 0 8 9 15 20 15 16 0 20 7 20 30 0 17 -1 30 -2 30 -2 0 -36 -25 -75 -56
z "></path><path id="p16LZF4Zer" d="M 390 961 c 0 -29 3 -31 36 -31 39 0 38 9 -6
40 -30 21 -30 21 -30 -9 z "></path><path id="pt7WF3KB2" d="M 1581 936 c -15 -60
-14 -66 8 -66 19 0 31 34 31 86 0 41 -27 27 -39 -20 z "></path><path
id="p1CT6rPBy3" d="M 480 891 c 0 -29 3 -31 36 -31 39 0 38 9 -6 40 -30 21 -30 21
-30 -9 z "></path><path id="pVOkErBio" d="M 1010 865 c 0 -28 4 -35 20 -35 21 0
24 10 14 48 -10 36 -34 27 -34 -13 z "></path><path id="pKUf6XiU" d="M 570 821 c
0 -29 3 -31 36 -31 39 0 38 9 -6 40 -30 21 -30 21 -30 -9 z "></path><path
id="p22Rf4crl" d="M 1850 810 c -35 -29 -35 -29 3 -30 35 0 37 2 37 30 0 17 -1 30
-3 30 -1 0 -18 -13 -37 -30 z "></path><path id="prg2Kx1JE" d="M 1020 775 c 0 -28
4 -35 20 -35 21 0 24 10 14 48 -10 36 -34 27 -34 -13 z "></path><path
id="p15NCqCbge" d="M 660 751 c 0 -29 3 -31 36 -31 39 0 38 9 -6 40 -30 21 -30 21
-30 -9 z "></path><path id="p4ncwZbkI" d="M 1527 720 c -21 -76 -21 -80 3 -80 16
0 20 7 20 35 0 19 5 35 10 35 6 0 10 16 10 35 0 57 -25 43 -43 -25 z
"></path><path id="p11zaImTrF" d="M 1030 695 c 0 -28 4 -35 20 -35 21 0 24 10 14
48 -10 36 -34 27 -34 -13 z "></path><path id="pZh3NAxxL" d="M 2010 675 c 0 -19 5
-35 10 -35 6 0 10 7 10 15 0 12 15 15 74 15 63 0 75 -3 79 -17 3 -10 5 -1 6 20 1
37 1 37 -89 37 -90 0 -90 0 -90 -35 z "></path><path id="puxp4AY69" d="M 420 685
c 0 -8 7 -15 16 -15 9 0 18 -9 21 -20 9 -35 33 -24 33 15 0 33 -2 35 -35 35 -24 0
-35 -5 -35 -15 z "></path><path id="pWRgS7TWx" d="M 272 538 c 2 -100 7 -143 16
-146 6 -2 12 -10 12 -19 0 -24 26 -43 59 -43 37 0 40 12 6 30 -43 23 -55 66 -55
193 0 102 2 116 18 120 9 3 0 5 -22 6 -38 1 -38 1 -34 -141 z "></path><path
id="p1BmPexspj" d="M 1050 568 c 0 -59 13 -98 31 -98 22 0 22 3 8 70 -11 51 -39 72
-39 28 z "></path><path id="pVD62SSUr" d="M 470 506 c 0 -19 32 -26 118 -26 65 0
74 -2 79 -20 9 -34 33 -24 33 14 0 43 -8 46 -131 46 -78 0 -99 -3 -99 -14 z
"></path><path id="p1BMevZD3b" d="M 1810 498 c 0 -22 3 -23 87 -20 108 3 133 8
133 27 0 12 -20 15 -110 15 -107 0 -110 -1 -110 -22 z "></path><path
id="pNIaF8Nlv" d="M 1446 451 c -3 -4 -10 -20 -15 -35 -10 -24 -8 -26 14 -26 22 0
25 4 25 35 0 33 -12 46 -24 26 z "></path><path id="pZQl5eGSL" d="M 1080 415 c 0
-28 4 -35 20 -35 21 0 24 10 14 48 -10 36 -34 27 -34 -13 z "></path><path
id="pISiSdI6W" d="M 2140 375 c -34 -35 -34 -35 3 -35 36 0 37 1 37 35 0 19 -1 35
-3 35 -2 0 -18 -16 -37 -35 z "></path><path id="p182bU1UgY" d="M 2422 347 c -15
-65 -15 -97 -1 -97 13 0 35 53 44 108 6 37 4 42 -12 42 -14 0 -21 -12 -31 -53 z
"></path><path id="pStIzx5ip" d="M 1110 315 c 0 -30 3 -35 24 -35 23 0 24 2 13 35
-6 19 -16 35 -24 35 -8 0 -13 -13 -13 -35 z "></path><path id="p5scWbK69" d="M 41
283 c 15 -40 55 -108 73 -123 14 -11 16 -8 16 24 0 20 -4 36 -10 36 -5 0 -10 7 -10
15 0 8 -7 15 -15 15 -10 0 -15 10 -15 30 0 25 -4 30 -25 30 -23 0 -24 -2 -14 -27 z
"></path><path id="p1Dj4Yye3R" d="M 1140 236 c 0 -25 4 -36 15 -36 10 0 15 -11 15
-35 0 -19 5 -35 10 -35 6 0 10 -9 10 -20 0 -11 5 -20 10 -20 6 0 10 -7 10 -15 0
-10 11 -15 35 -15 29 0 35 4 35 21 0 17 -3 19 -13 11 -15 -13 -37 18 -78 112 -30
71 -49 83 -49 32 z "></path><path id="pcqKIk4is" d="M 2370 225 c 0 -8 -4 -15 -10
-15 -5 0 -10 -16 -10 -35 0 -33 -2 -35 -35 -35 -28 0 -35 -4 -35 -20 0 -14 -7 -20
-24 -20 -39 0 -56 -11 -56 -36 0 -21 3 -22 28 -13 41 14 122 79 159 127 40 52 41
62 8 62 -16 0 -25 -6 -25 -15 z "></path><path id="pH7d2PRnB" d="M 1327 191 c -22
-38 -22 -41 8 -41 22 0 25 4 25 35 0 43 -10 44 -33 6 z "></path><path
id="pnVViOlYQ" d="M 240 69 c 0 -11 60 -39 85 -39 24 0 18 37 -7 44 -36 9 -78 7
-78 -5 z "></path><path id="pwozmpebt" d="M 370 36 c 0 -7 10 -16 23 -20 41 -11
57 -7 57 14 0 17 -7 20 -40 20 -27 0 -40 -4 -40 -14 z "></path><path
id="pYCiMKHeL" d="M 2050 30 c 0 -21 10 -24 48 -14 36 10 27 34 -13 34 -28 0 -35
-4 -35 -20 z "></path></g></g><g id="l5zbKk4CuiZeiN5w1TC7eap"
fill="rgb(130,169,202)" style="transform: none;"><g style="transform:
none;"><path id="p1CbA1R0S0" d="M 239 2170 c -19 -10 -41 -26 -48 -34 -12 -14 -9
-16 23 -16 29 0 36 4 36 20 0 15 7 20 25 20 16 0 25 6 25 15 0 20 -17 18 -61 -5 z
"></path><path id="p1BCvEZ1Pe" d="M 1360 2178 c 0 -30 13 -58 26 -58 9 0 14 12 14
35 0 28 -4 35 -20 35 -11 0 -20 -6 -20 -12 z "></path><path id="peJV5Ks08" d="M
118 2070 c -28 -35 -28 -35 -2 -38 33 -4 36 -1 32 39 -3 34 -3 34 -30 -1 z
"></path><path id="p130sb2YTm" d="M 1178 2089 c -29 -16 -21 -29 17 -29 28 0 35
-4 35 -20 0 -11 -4 -20 -10 -20 -5 0 -10 -11 -10 -25 0 -28 12 -32 34 -10 25 25 29
54 12 80 -9 14 -20 25 -25 25 -5 0 -15 2 -23 5 -7 2 -21 0 -30 -6 z "></path><path
id="pHZpBsZSt" d="M 1366 2028 c -10 -38 -7 -48 14 -48 16 0 20 7 20 35 0 40 -24
49 -34 13 z "></path><path id="p1ALA5MDIR" d="M 980 1995 c 0 -28 4 -35 20 -35 21
0 24 10 14 48 -10 36 -34 27 -34 -13 z "></path><path id="p7c84VeDS" d="M 1338
1918 c -11 -41 -20 -54 -39 -59 -21 -6 -20 -7 9 -8 44 -1 63 20 70 75 4 35 1 44
-10 44 -10 0 -21 -19 -30 -52 z "></path><path id="prmmLYPIf" d="M 420 1915 c 0
-15 4 -17 50 -17 48 -1 60 2 60 17 0 12 -13 15 -55 15 -42 0 -55 -3 -55 -15 z
"></path><path id="p4b6lMiGt" d="M 1810 1898 c 0 -19 4 -28 8 -21 4 6 20 15 35 18
40 10 35 35 -8 35 -33 0 -35 -2 -35 -32 z "></path><path id="p19ZnadtwK" d="M
2020 1915 c 0 -8 14 -17 38 -21 67 -12 105 -44 117 -96 10 -41 35 -36 35 7 0 24 -5
35 -15 35 -9 0 -15 9 -15 25 0 18 -5 25 -20 25 -11 0 -20 6 -20 14 0 14 -42 26 -91
26 -19 0 -29 -5 -29 -15 z "></path><path id="pVJu2dCcv" d="M 1000 1885 c 0 -34 1
-35 38 -34 20 1 29 3 20 6 -9 2 -20 17 -23 34 -9 42 -35 38 -35 -6 z
"></path><path id="pIPZsUQrN" d="M 26 1888 c -10 -38 -7 -48 14 -48 16 0 20 7 20
35 0 40 -24 49 -34 13 z "></path><path id="pad56ZcF2" d="M 460 1720 c 0 -13 7
-20 20 -20 13 0 20 7 20 20 0 13 -7 20 -20 20 -13 0 -20 -7 -20 -20 z
"></path><path id="p1HKn7EZ5N" d="M 1320 1682 c 0 -18 54 -102 65 -102 3 0 5 16 5
35 0 24 -5 35 -15 35 -9 0 -15 9 -15 25 0 18 -5 25 -20 25 -13 0 -20 -7 -20 -18 z
"></path><path id="pq7gSQT5" d="M 270 1605 c 0 -65 0 -65 38 -65 30 1 34 3 20 11
-14 8 -18 23 -18 64 0 48 -2 55 -20 55 -18 0 -20 -7 -20 -65 z "></path><path
id="p199Q4ISdN" d="M 812 1590 c -12 -11 -26 -20 -32 -20 -5 0 -10 -11 -10 -25 0
-22 -4 -25 -35 -25 -32 0 -35 -2 -35 -31 0 -30 0 -30 64 15 63 46 63 46 60 -15 -3
-41 0 -58 7 -53 7 4 9 -10 5 -45 -3 -30 -2 -51 4 -51 5 0 9 -10 9 -22 0 -13 3 -43
7 -68 4 -25 7 -62 8 -82 1 -21 5 -38 9 -38 5 0 7 -8 6 -17 -1 -10 1 -29 4 -43 4
-14 9 -37 11 -52 2 -14 9 -35 14 -45 6 -10 10 -25 9 -33 -1 -8 4 -35 11 -60 7 -25
17 -64 24 -87 12 -49 38 -59 38 -15 0 34 -17 170 -30 242 -50 278 -72 462 -64 532
7 58 7 58 -28 58 -20 0 -43 -8 -56 -20 z "></path><path id="p17JiXrkOR" d="M 1732
1385 c -14 -119 -61 -364 -97 -507 -28 -110 -31 -148 -11 -148 15 0 23 26 66 220
17 74 35 151 40 171 6 20 10 45 10 55 0 11 14 45 30 77 17 34 32 83 36 117 6 59 6
59 50 29 44 -30 44 -30 44 1 0 20 -5 30 -15 30 -8 0 -15 5 -15 10 0 6 -4 10 -10 10
-5 0 -19 9 -30 20 -12 12 -33 20 -53 20 -33 0 -33 0 -45 -105 z "></path><path
id="pvABYF7qI" d="M 1666 1418 c -10 -38 -7 -48 14 -48 16 0 20 7 20 35 0 40 -24
49 -34 13 z "></path><path id="p6ymog6V2" d="M 580 1415 c 0 -8 -9 -15 -20 -15
-16 0 -20 -7 -20 -31 0 -30 0 -30 45 2 69 50 74 59 31 59 -25 0 -36 -4 -36 -15 z
"></path><path id="pUn3vshlE" d="M 1935 1350 c 3 -5 19 -19 35 -30 30 -21 30 -21
30 9 0 29 -3 31 -36 31 -20 0 -33 -4 -29 -10 z "></path><path id="p1E3YLsZPP"
d="M 990 1225 c 0 -38 3 -45 20 -45 21 0 26 23 14 68 -11 41 -34 26 -34 -23 z
"></path><path id="pNVAbpYCg" d="M 2085 1241 c 3 -5 35 -31 70 -57 83 -61 84 -77
10 -133 -30 -23 -55 -44 -55 -46 0 -3 16 -5 35 -5 24 0 35 5 35 15 0 8 9 15 20 15
15 0 20 7 20 25 0 18 5 25 20 25 16 0 20 7 20 35 0 24 -5 35 -15 35 -8 0 -15 9 -15
20 0 13 -7 20 -20 20 -11 0 -20 7 -20 15 0 8 -9 15 -20 15 -11 0 -20 7 -20 15 0 11
-11 15 -36 15 -19 0 -33 -4 -29 -9 z "></path><path id="p1CNPWeXoG" d="M 242 1083
c 3 -36 5 -38 42 -41 40 -3 40 -3 5 36 -19 22 -38 41 -42 41 -5 1 -7 -16 -5 -36 z
"></path><path id="pGm0MOQ1d" d="M 1616 1098 c -10 -38 -7 -48 14 -48 16 0 20 7
20 35 0 40 -24 49 -34 13 z "></path><path id="pJkF2wiaQ" d="M 1000 1005 c 0 -28
4 -35 20 -35 21 0 24 10 14 48 -10 36 -34 27 -34 -13 z "></path><path
id="pVCHdKxLH" d="M 350 991 c 0 -29 3 -31 36 -31 39 0 38 9 -6 40 -30 21 -30 21
-30 -9 z "></path><path id="plugjiq0e" d="M 1933 874 c -40 -30 -73 -57 -73 -59 0
-3 16 -5 35 -5 24 0 35 5 35 15 0 8 9 15 20 15 11 0 20 7 20 15 0 8 9 15 20 15 16
0 20 7 20 30 0 17 -1 30 -2 30 -2 0 -36 -25 -75 -56 z "></path><path
id="p7xswZBDU" d="M 1541 768 c -26 -100 -26 -98 -1 -98 16 0 20 7 20 34 0 19 5 36
10 38 6 2 13 27 17 56 5 42 3 52 -9 52 -10 0 -22 -26 -37 -82 z "></path><path
id="pjQf3Js2w" d="M 620 781 c 0 -29 3 -31 36 -31 39 0 38 9 -6 40 -30 21 -30 21
-30 -9 z "></path><path id="pxf87H8Ov" d="M 1810 780 c -35 -29 -35 -29 3 -30 35
0 37 2 37 30 0 17 -1 30 -3 30 -1 0 -18 -13 -37 -30 z "></path><path
id="pcJrQDSqB" d="M 1020 765 c 0 -28 4 -35 20 -35 21 0 24 10 14 48 -10 36 -34 27
-34 -13 z "></path><path id="p7oyu3xgR" d="M 960 729 c 0 -29 23 -156 32 -172 17
-33 -1 -31 -45 3 -23 18 -48 38 -54 43 -10 7 -13 2 -13 -21 0 -28 3 -31 38 -34 32
-3 37 -7 40 -30 3 -25 8 -28 38 -28 41 0 40 -4 17 142 -14 91 -20 108 -35 108 -10
0 -18 -5 -18 -11 z "></path><path id="p13u8k2beN" d="M 1030 703 c 0 -10 3 -42 6
-70 6 -44 10 -53 26 -53 20 0 21 13 2 113 -6 30 -34 38 -34 10 z "></path><path
id="p954Q9JPY" d="M 300 700 c 0 -5 -7 -10 -15 -10 -10 0 -15 -11 -15 -35 0 -41 24
-49 34 -10 6 24 10 25 80 25 63 0 75 -3 79 -17 3 -10 5 -1 6 20 1 37 1 37 -84 37
-50 0 -85 -4 -85 -10 z "></path><path id="pk7nfKZkg" d="M 790 651 c 0 -29 3 -31
36 -31 39 0 38 9 -6 40 -30 21 -30 21 -30 -9 z "></path><path id="pgoSxER3t" d="M
1570 645 c 0 -33 2 -35 35 -35 29 0 35 4 35 22 0 17 -3 19 -12 10 -20 -20 -28 -14
-18 13 9 22 7 25 -15 25 -22 0 -25 -4 -25 -35 z "></path><path id="p1Ag2kNLKb"
d="M 1496 618 c -10 -38 -7 -48 14 -48 16 0 20 7 20 35 0 40 -24 49 -34 13 z
"></path><path id="pD7PR4vR8" d="M 1800 485 c 0 -35 0 -35 20 -15 11 11 27 20 35
20 8 0 15 7 15 15 0 10 -11 15 -35 15 -33 0 -35 -2 -35 -35 z "></path><path
id="p33IYDlfU" d="M 270 465 c 0 -28 4 -35 20 -35 21 0 24 10 14 48 -10 36 -34 27
-34 -13 z "></path><path id="pZWnmAa8p" d="M 1070 455 c 0 -28 4 -35 20 -35 21 0
24 10 14 48 -10 36 -34 27 -34 -13 z "></path><path id="p19iqKk59a" d="M 2175 431
c -6 -29 -49 -81 -66 -81 -5 0 -9 -4 -9 -10 0 -15 60 -12 76 4 8 8 14 22 14 30 0 9
5 16 10 16 6 0 10 16 10 35 0 44 -26 48 -35 6 z "></path><path id="pMw3SGApC"
d="M 1093 363 c 3 -26 10 -49 16 -51 6 -2 11 -17 11 -33 0 -24 4 -29 24 -29 23 0
23 0 -3 80 -16 50 -31 80 -40 80 -10 0 -12 -11 -8 -47 z "></path><path
id="puKZcTAV4" d="M 1780 355 c 0 -28 4 -35 20 -35 11 0 20 -4 20 -10 0 -6 50 -10
130 -10 123 0 130 1 130 20 0 19 -7 20 -130 20 -130 0 -130 0 -136 25 -10 39 -34
31 -34 -10 z "></path><path id="pJV1ty7hu" d="M 24 345 c 10 -49 43 -125 56 -125
5 0 10 16 10 35 0 19 -4 35 -9 35 -5 0 -12 20 -15 45 -6 37 -11 45 -28 45 -18 0
-19 -4 -14 -35 z "></path><path id="pGBGwouGB" d="M 330 350 c 0 -28 3 -30 35 -30
19 0 35 4 35 9 0 5 -16 18 -35 30 -35 20 -35 20 -35 -9 z "></path><path
id="pO68CfwFY" d="M 1406 351 c -3 -4 -10 -20 -15 -35 -10 -24 -8 -26 14 -26 22 0
25 4 25 35 0 33 -12 46 -24 26 z "></path><path id="p8GfMFSqV" d="M 420 320 c 0
-19 7 -20 115 -20 108 0 115 1 115 20 0 19 -7 20 -115 20 -108 0 -115 -1 -115 -20
z "></path><path id="pyu1GGobk" d="M 1160 186 c 0 -32 3 -36 25 -36 24 0 25 1 12
32 -19 46 -37 48 -37 4 z "></path><path id="pesh7oY6U" d="M 2340 175 c 0 -20 -5
-25 -25 -25 -21 0 -25 -5 -25 -31 0 -32 0 -32 32 -7 17 13 43 39 56 56 25 32 25 32
-7 32 -26 0 -31 -4 -31 -25 z "></path><path id="p11zpXj8IB" d="M 170 110 c 19
-17 52 -39 75 -50 40 -20 40 -20 43 1 4 26 -13 39 -50 39 -21 0 -28 5 -28 20 0 17
-7 20 -37 20 -38 -1 -38 -1 -3 -30 z "></path><path id="p154aiw9Ts" d="M 310 46 c
0 -13 28 -26 58 -26 6 0 12 9 12 20 0 16 -7 20 -35 20 -23 0 -35 -5 -35 -14 z
"></path><path id="pW9KRDJLO" d="M 2078 53 c -30 -3 -38 -8 -38 -24 0 -19 4 -20
43 -14 83 12 97 17 97 31 0 14 -19 15 -102 7 z "></path><path id="p7doRnxIT" d="M
390 36 c 0 -7 10 -16 23 -20 41 -11 57 -7 57 14 0 17 -7 20 -40 20 -27 0 -40 -4
-40 -14 z "></path></g></g><g id="lVA71DeHP4huxiOEUvk7di"
fill="rgb(116,160,198)" style="transform: none;"><g style="transform:
none;"><path id="pyfv25cNZ" d="M 240 2168 c -96 -47 -199 -188 -215 -295 -6 -39
-5 -43 14 -43 13 0 21 6 21 18 0 22 33 116 43 120 4 2 7 19 7 38 0 28 4 34 22 34
27 0 78 47 78 72 0 13 8 18 28 18 37 0 54 13 50 39 -3 21 -3 21 -48 -1 z
"></path><path id="pOHAJdnHe" d="M 1370 2120 c 0 -63 2 -70 20 -70 18 0 20 7 20
70 0 63 -2 70 -20 70 -18 0 -20 -7 -20 -70 z "></path><path id="p13mcriGuC" d="M
2190 2175 c 0 -9 9 -15 25 -15 18 0 25 -5 25 -20 0 -11 7 -20 15 -20 8 0 15 -4 15
-10 0 -5 16 -10 36 -10 32 0 35 2 23 16 -16 19 -109 74 -126 74 -7 0 -13 -7 -13
-15 z "></path><path id="pXfATXBQm" d="M 1157 2072 c -23 -26 -22 -52 3 -52 16 0
20 7 20 35 0 40 -1 41 -23 17 z "></path><path id="pjgHgIHYl" d="M 1200 2075 c 0
-9 7 -23 15 -31 8 -9 15 -24 15 -35 0 -25 16 -24 30 1 8 15 8 27 -2 48 -15 31 -58
44 -58 17 z "></path><path id="pjArV0UUA" d="M 2350 2056 c 0 -20 5 -36 10 -36 6
0 10 -7 10 -15 0 -8 7 -15 15 -15 10 0 15 -10 15 -30 0 -16 4 -30 9 -30 5 0 12 -27
16 -60 6 -50 10 -60 26 -60 25 0 25 30 0 109 -20 64 -60 139 -85 161 -14 11 -16 8
-16 -24 z "></path><path id="p8qm5id7J" d="M 1350 1954 c -17 -65 -27 -88 -41 -91
-33 -9 -22 -33 15 -33 33 0 33 1 55 73 24 83 28 137 8 137 -9 0 -22 -32 -37 -86 z
"></path><path id="p1BubNl7oO" d="M 980 1994 c 0 -56 23 -154 37 -154 7 0 13 -4
13 -10 0 -5 25 -10 55 -10 48 0 55 2 55 20 0 17 -7 20 -50 20 -55 0 -49 -9 -70 103
-8 37 -16 57 -26 57 -8 0 -14 -10 -14 -26 z "></path><path id="pfn9ta04e" d="M
1150 2002 c 0 -14 23 -32 42 -32 11 0 18 7 18 20 0 16 -7 20 -30 20 -16 0 -30 -4
-30 -8 z "></path><path id="p1DaNwG721" d="M 358 1923 c -11 -3 -18 -14 -18 -29 0
-19 -5 -24 -25 -24 -36 0 -47 -50 -43 -210 3 -135 3 -135 41 -138 42 -4 52 17 15
33 -19 8 -23 17 -22 50 1 22 2 76 3 121 1 104 23 142 94 163 58 18 63 42 10 40 -21
-1 -46 -3 -55 -6 z "></path><path id="p1Bvm9fGbF" d="M 610 1915 c 0 -8 7 -15 15
-15 8 0 24 -9 35 -20 20 -20 20 -20 20 15 0 33 -2 35 -35 35 -24 0 -35 -5 -35 -15
z "></path><path id="pIXxLq2vT" d="M 1793 1915 c -18 -20 -17 -75 1 -75 8 0 17 11
20 25 4 15 16 27 31 31 14 3 25 12 25 20 0 19 -61 18 -77 -1 z "></path><path
id="paOZ5dK1m" d="M 2040 1915 c 0 -8 14 -17 35 -21 34 -6 95 -55 95 -75 0 -5 5 -9
10 -9 6 0 10 16 10 35 0 24 -5 35 -15 35 -8 0 -15 7 -15 15 0 8 -9 15 -20 15 -11 0
-20 5 -20 10 0 6 -18 10 -40 10 -28 0 -40 -4 -40 -15 z "></path><path
id="pOBTQIM3a" d="M 2180 1679 c 0 -112 -1 -121 -20 -126 -11 -3 -20 -12 -20 -19 0
-20 66 -19 74 2 3 9 6 72 6 140 0 117 -1 124 -20 124 -19 0 -20 -7 -20 -121 z
"></path><path id="pIjvXaEGP" d="M 1000 1755 c 0 -19 5 -35 10 -35 6 0 10 7 10 15
0 13 23 15 143 15 142 0 142 0 154 -50 24 -99 100 -158 233 -180 124 -20 120 -19
120 -51 0 -22 5 -29 20 -29 17 0 20 7 20 40 0 28 -4 40 -14 40 -8 0 -16 4 -18 8 -3
8 -169 42 -206 42 -13 0 -22 6 -22 15 0 8 -6 15 -13 15 -7 0 -18 9 -25 20 -7 11
-18 20 -25 20 -8 0 -19 22 -27 55 -7 30 -17 55 -22 55 -4 0 -8 9 -8 20 0 19 -7 20
-165 20 -165 0 -165 0 -165 -35 z "></path><path id="pELxevIyK" d="M 1782 1753 c
3 -36 5 -38 41 -41 27 -2 37 1 37 11 0 8 -9 17 -21 20 -11 3 -23 15 -26 26 -3 12
-12 21 -20 21 -10 0 -13 -10 -11 -37 z "></path><path id="pbyk3XkXg" d="M 670
1765 c 0 -8 -11 -17 -25 -21 -39 -10 -31 -34 10 -34 33 0 35 2 35 35 0 19 -4 35
-10 35 -5 0 -10 -7 -10 -15 z "></path><path id="p1G5tD2oax" d="M 839 1620 c -30
-23 -55 -45 -57 -50 -2 -6 -10 -10 -18 -10 -8 0 -17 -7 -20 -15 -4 -8 -12 -15 -20
-15 -8 0 -14 -4 -14 -10 0 -5 -7 -10 -15 -10 -9 0 -18 -7 -21 -15 -4 -8 -12 -15
-20 -15 -7 0 -17 -6 -21 -13 -4 -8 -16 -16 -25 -20 -10 -3 -18 -13 -18 -22 0 -8 -9
-15 -20 -15 -11 0 -20 -7 -20 -15 0 -8 -9 -15 -20 -15 -11 0 -20 -7 -20 -15 0 -8
-9 -15 -20 -15 -11 0 -20 -7 -20 -15 0 -8 -9 -15 -20 -15 -11 0 -20 -7 -20 -15 0
-8 -9 -15 -20 -15 -11 0 -20 -7 -20 -15 0 -8 -9 -15 -20 -15 -11 0 -20 -7 -20 -15
0 -8 -9 -15 -20 -15 -11 0 -20 -4 -20 -9 0 -5 -9 -11 -20 -14 -12 -3 -20 -14 -20
-26 0 -14 -6 -21 -20 -21 -16 0 -20 -7 -20 -35 0 -24 5 -35 15 -35 10 0 15 -10 15
-30 0 -25 4 -30 25 -30 18 0 25 -5 25 -20 0 -15 7 -20 25 -20 18 0 25 -5 25 -20 0
-13 7 -20 20 -20 11 0 20 -7 20 -15 0 -8 8 -15 19 -15 10 0 21 -9 24 -20 3 -12 14
-20 26 -20 12 0 21 -6 21 -15 0 -8 8 -15 19 -15 10 0 21 -9 24 -20 3 -12 14 -20 26
-20 12 0 21 -6 21 -15 0 -9 9 -15 25 -15 18 0 25 -5 25 -20 0 -13 7 -20 20 -20 11
0 20 -7 20 -15 0 -8 9 -15 20 -15 12 0 20 -7 20 -16 0 -9 9 -18 20 -21 11 -3 20 -9
20 -14 0 -5 11 -9 25 -9 18 0 25 -5 25 -20 0 -13 7 -20 20 -20 11 0 20 -7 20 -15 0
-9 9 -15 25 -15 18 0 25 -5 25 -20 0 -13 7 -20 20 -20 11 0 20 -7 20 -15 0 -16 36
-20 79 -8 26 7 26 6 2 153 -28 171 -43 379 -48 673 -6 317 -6 317 -38 317 -21 0
-49 -13 -86 -40 z  m 20 -86 c -9 -46 -7 -92 3 -109 3 -6 4 -21 3 -35 -1 -14 0 -29
4 -35 3 -5 6 -26 7 -45 1 -19 5 -51 9 -70 3 -19 7 -48 9 -65 2 -16 9 -52 15 -80 19
-78 29 -139 45 -285 16 -138 30 -226 42 -270 7 -22 0 -19 -57 26 -35 27 -113 88
-174 134 -292 225 -490 382 -497 395 -5 7 -5 20 -2 29 5 13 582 451 600 456 1 0 -2
-21 -7 -46 z "></path><path id="pdPjxOtV" d="M 410 1160 c -24 -24 -27 -60 -4 -60
9 0 24 10 34 22 15 19 20 20 34 9 23 -20 2 -41 -40 -41 -39 0 -43 -12 -12 -34 32
-22 55 -20 83 9 46 45 19 115 -45 115 -17 0 -39 -9 -50 -20 z "></path><path
id="p1AkjOL0Zs" d="M 460 1574 c 0 -9 -9 -18 -20 -21 -35 -9 -24 -33 15 -33 33 0
35 2 35 35 0 24 -5 35 -15 35 -8 0 -15 -7 -15 -16 z "></path><path id="pYZDJpzWu"
d="M 1737 1493 c -4 -3 -7 -22 -7 -41 0 -101 -68 -460 -135 -711 -14 -52 -25 -108
-25 -123 0 -25 3 -28 35 -28 24 0 35 5 35 15 0 8 9 15 20 15 11 0 20 7 20 15 0 8 9
15 20 15 11 0 20 7 20 15 0 8 9 15 20 15 11 0 20 7 20 15 0 8 9 15 20 15 11 0 20 7
20 15 0 8 9 15 20 15 11 0 20 7 20 15 0 8 9 15 20 15 11 0 20 7 20 15 0 8 9 15 20
15 11 0 20 7 20 15 0 8 9 15 20 15 11 0 20 7 20 15 0 8 9 15 20 15 13 0 20 7 20 20
0 15 7 20 25 20 16 0 25 6 25 15 0 8 9 15 20 15 11 0 20 7 20 15 0 8 9 15 20 15 11
0 20 7 20 15 0 8 9 15 20 15 11 0 20 7 20 15 0 8 9 15 20 15 15 0 20 7 20 25 0 20
5 25 25 25 23 0 25 4 25 45 0 38 -3 45 -20 45 -13 0 -20 7 -20 20 0 13 -7 20 -20
20 -11 0 -20 7 -20 15 0 8 -9 15 -20 15 -11 0 -20 7 -20 15 0 8 -7 15 -15 15 -8 0
-15 5 -15 10 0 6 -9 10 -20 10 -11 0 -20 7 -20 15 0 8 -9 15 -20 15 -11 0 -20 7
-20 15 0 8 -9 15 -20 15 -11 0 -20 7 -20 15 0 8 -7 15 -15 15 -8 0 -15 5 -15 10 0
6 -6 10 -14 10 -8 0 -16 7 -20 15 -3 8 -12 15 -21 15 -8 0 -15 5 -15 10 0 6 -6 10
-14 10 -8 0 -16 7 -20 15 -3 8 -12 15 -20 15 -7 0 -16 7 -20 15 -5 15 -66 22 -79 8
z  m 128 -97 c 216 -154 354 -258 359 -271 3 -8 -5 -26 -17 -39 -29 -32 -597 -459
-603 -454 -2 3 2 21 10 40 34 79 125 493 142 636 3 34 10 62 14 62 4 0 7 20 6 44
-1 29 2 42 9 38 5 -3 42 -28 80 -56 z "></path><path id="pwxXgKYe8" d="M 1982
1168 c -19 -19 -14 -28 18 -28 23 0 30 4 30 20 0 23 -29 27 -48 8 z "></path><path
id="pw2NvB9Gk" d="M 2040 1156 c 0 -14 4 -27 10 -31 5 -3 7 -12 3 -20 -7 -20 -53
-20 -53 0 0 8 -9 15 -20 15 -29 0 -25 -34 6 -59 35 -27 59 -26 89 4 30 29 32 68 5
95 -27 27 -40 25 -40 -4 z "></path><path id="p53UNUVin" d="M 1666 1408 c -10 -38
-7 -48 14 -48 16 0 20 7 20 35 0 40 -24 49 -34 13 z "></path><path
id="p18lbnKOe0" d="M 1656 1318 c -3 -18 -13 -76 -22 -128 -8 -52 -29 -153 -45
-225 -16 -71 -29 -133 -29 -137 0 -5 8 -8 19 -8 15 0 23 22 51 153 33 152 60 312
60 355 0 35 -28 27 -34 -10 z "></path><path id="pgL3XGjof" d="M 990 1180 c 0 -53
2 -60 20 -60 16 0 20 7 20 38 0 52 -10 82 -26 82 -10 0 -14 -16 -14 -60 z
"></path><path id="pcKrglCD0" d="M 1000 985 c 0 -38 3 -45 20 -45 21 0 26 23 14
68 -11 41 -34 26 -34 -23 z "></path><path id="ppLeOllRg" d="M 1010 850 c 0 -33 3
-40 20 -40 21 0 25 16 14 58 -11 39 -34 27 -34 -18 z "></path><path
id="pfa0SZ1Vy" d="M 1020 764 c 0 -76 56 -387 71 -392 5 -2 9 -19 9 -38 0 -29 3
-34 23 -34 24 0 24 0 1 79 -19 66 -38 168 -70 379 -6 39 -34 45 -34 6 z
"></path><path id="pZ279evej" d="M 1535 738 c -37 -171 -192 -551 -258 -632 -24
-29 -24 -29 -43 2 -24 41 -34 40 -34 -3 0 -24 5 -35 15 -35 8 0 15 -4 15 -10 0 -7
-143 -10 -410 -10 -342 0 -410 -2 -410 -14 0 -7 10 -16 23 -20 40 -11 1607 -7 1677
5 171 27 303 143 344 304 21 80 21 105 -3 105 -16 0 -20 -10 -26 -65 -3 -36 -10
-65 -15 -65 -5 0 -14 -16 -21 -35 -7 -19 -17 -35 -21 -35 -4 0 -8 -8 -8 -18 0 -9
-10 -22 -22 -27 -13 -6 -27 -20 -33 -32 -5 -13 -17 -23 -25 -23 -9 0 -25 -8 -36
-18 -10 -10 -49 -28 -87 -40 -65 -21 -82 -22 -462 -22 -344 0 -395 2 -395 15 0 8 5
15 10 15 6 0 10 5 10 11 0 6 7 17 15 25 8 9 15 26 15 40 0 13 6 24 13 24 18 0 47
63 47 100 0 19 5 30 14 30 14 0 36 49 36 81 0 11 4 19 8 19 11 0 52 129 52 162 0
15 5 28 11 30 6 2 13 25 16 51 3 26 10 47 14 47 5 0 9 16 9 35 0 46 -26 47 -35 3 z
"></path><path id="pHbgouCXZ" d="M 290 675 c 0 -35 0 -35 20 -15 11 11 27 20 35
20 8 0 15 7 15 15 0 10 -11 15 -35 15 -33 0 -35 -2 -35 -35 z "></path><path
id="p1HgKBddJO" d="M 410 696 c 0 -8 11 -17 25 -20 14 -4 25 -13 25 -21 0 -8 5 -15
10 -15 6 0 10 16 10 35 0 33 -2 35 -35 35 -23 0 -35 -5 -35 -14 z "></path><path
id="p1G85mNXsW" d="M 2130 696 c 0 -8 11 -17 25 -20 25 -6 25 -7 25 -116 0 -103 1
-110 20 -110 19 0 20 7 20 115 0 70 -4 115 -10 115 -5 0 -10 7 -10 15 0 10 -11 15
-35 15 -23 0 -35 -5 -35 -14 z "></path><path id="p9jeNGzCF" d="M 460 510 c 0 -13
7 -20 20 -20 13 0 20 7 20 20 0 13 -7 20 -20 20 -13 0 -20 -7 -20 -20 z
"></path><path id="pwHPNJ8Db" d="M 1990 510 c 0 -13 7 -20 20 -20 13 0 20 7 20 20
0 13 -7 20 -20 20 -13 0 -20 -7 -20 -20 z "></path><path id="pJnZybnhd" d="M 620
506 c 0 -8 11 -17 25 -20 14 -4 25 -13 25 -21 0 -8 5 -15 10 -15 6 0 10 16 10 35 0
33 -2 35 -35 35 -23 0 -35 -5 -35 -14 z "></path><path id="pLTdgsNvn" d="M 1780
475 c 0 -24 5 -35 15 -35 8 0 15 7 15 15 0 8 9 20 20 27 29 19 24 28 -15 28 -33 0
-35 -2 -35 -35 z "></path><path id="pdJ2JxOm0" d="M 270 456 c 0 -18 5 -47 11 -65
9 -25 16 -31 40 -31 24 0 29 -4 29 -24 0 -27 21 -36 88 -36 50 0 59 25 12 34 -16 3
-43 9 -60 12 -37 7 -67 44 -81 101 -14 52 -39 59 -39 9 z "></path><path
id="p0CPGdnQH" d="M 2165 400 c -17 -33 -52 -54 -107 -64 -49 -9 -52 -36 -5 -36 57
0 107 19 107 40 0 13 7 20 20 20 16 0 20 7 20 35 0 43 -14 45 -35 5 z
"></path><path id="pWgfb1Ovh" d="M 20 375 c 0 -32 42 -140 71 -182 29 -42 121
-123 140 -123 5 0 9 11 9 25 0 18 -5 25 -19 25 -10 0 -21 9 -24 20 -3 12 -14 20
-26 20 -14 0 -21 6 -21 20 0 11 -7 23 -15 26 -8 4 -15 12 -15 20 0 8 -4 14 -10 14
-5 0 -10 7 -10 15 0 8 -4 15 -10 15 -5 0 -10 11 -10 25 0 14 -4 25 -10 25 -5 0 -10
16 -10 35 0 28 -4 35 -20 35 -11 0 -20 -7 -20 -15 z "></path><path
id="p1BzdCOpYx" d="M 1800 338 c 0 -38 0 -38 40 -38 49 0 56 25 10 35 -16 4 -34 14
-40 23 -7 13 -9 9 -10 -20 z "></path><path id="p2XQNPPt2" d="M 628 338 c -52 -14
-50 -38 2 -38 36 0 40 3 40 25 0 14 -1 25 -2 24 -2 -1 -20 -6 -40 -11 z
"></path><path id="p11puvRQNX" d="M 1130 255 c 0 -19 5 -35 10 -35 6 0 10 -11 10
-25 0 -20 5 -25 25 -25 25 0 25 0 4 52 -25 63 -28 68 -40 68 -5 0 -9 -16 -9 -35 z
"></path><path id="p5EoIRr7M" d="M 280 56 c 0 -8 19 -18 44 -25 60 -15 66 -14 66
8 0 13 -10 20 -31 25 -51 10 -79 7 -79 -8 z "></path></g></g><g
id="l6esnLyi9Y4iFhnkCyzV2GW" fill="rgb(18,49,72)" style="transform: none;"><g
style="transform: none;"><path id="pHtIfRZDl" d="M 240 2165 c -96 -50 -187 -172
-210 -281 -7 -33 -10 -303 -8 -804 3 -755 3 -755 36 -822 54 -111 152 -194 264
-224 74 -19 98 -18 98 5 0 14 -10 20 -44 24 -49 7 -136 45 -149 65 -4 6 -16 12 -26
12 -10 0 -21 9 -24 21 -3 11 -15 23 -26 26 -12 3 -21 13 -21 23 0 10 -4 20 -8 22
-5 2 -21 33 -35 70 -27 66 -27 66 -27 800 0 403 4 749 9 768 16 61 35 104 59 130
13 15 22 38 22 57 0 30 3 33 30 33 16 0 46 11 67 25 54 35 63 44 63 60 0 21 -17 18
-70 -10 z "></path><path id="phEAMvSCe" d="M 971 2083 c 0 -60 8 -142 17 -183 17
-75 17 -75 194 -78 177 -2 177 -2 198 65 29 90 39 223 17 223 -16 0 -27 -29 -27
-75 0 -16 -9 -62 -21 -101 -21 -72 -21 -72 -153 -76 -72 -3 -138 -1 -147 3 -21 11
-39 115 -39 233 0 89 -1 96 -20 96 -19 0 -20 -6 -19 -107 z "></path><path
id="pTwGAty60" d="M 2180 2179 c 0 -22 13 -36 38 -44 13 -4 32 -14 41 -23 9 -10 35
-33 56 -52 44 -39 88 -119 105 -190 12 -51 8 -1494 -5 -1569 -9 -56 13 -53 35 5 13
33 15 151 18 769 2 505 0 750 -8 794 -21 120 -84 220 -177 279 -58 37 -103 50 -103
31 z "></path><path id="pmCiwJdsh" d="M1260.795798401135 2030.9900483707115 C
1260.795798401135 2063.780160744694 1234.214160271385 2090.361798874444
1201.4240478974027 2090.361798874444 1168.6339355234204 2090.361798874444
1142.0522973936704 2063.780160744694 1142.0522973936704 2030.9900483707115
1142.0522973936704 1998.199935996729 1168.6339355234204 1971.618297866979
1201.4240478974027 1971.618297866979 1234.214160271385 1971.618297866979
1260.795798401135 1998.199935996729 1260.795798401135 2030.9900483707115 Z
M1156.0 2068.0  m 64 -39 c 0 -5 -7 -9 -15 -9 -15 0 -20 12 -9 23 8 8 24 -1 24 -14
z "></path><path id="pVOMcbJgs" d="M 540 1920 c 0 -18 7 -20 54 -20 69 0 78 -11
74 -92 -3 -63 -3 -63 -103 -68 -96 -5 -100 -6 -103 -29 -3 -22 -1 -23 28 -17 18 3
68 6 111 6 104 0 109 6 109 120 0 109 -10 120 -107 120 -56 0 -63 -2 -63 -20 z
"></path><path id="p16EiiJ6BU" d="M 1820 1931 c -32 -5 -35 -9 -38 -43 -4 -43 17
-53 33 -15 8 18 19 23 58 25 39 3 47 6 47 23 0 20 -26 23 -100 10 z "></path><path
id="p1EvIHf3YY" d="M 360 1921 c 0 -5 -10 -11 -21 -13 -32 -4 -60 -49 -66 -102 -5
-37 -3 -46 10 -46 9 0 18 13 22 31 9 41 59 96 95 104 43 9 39 35 -5 35 -19 0 -35
-4 -35 -9 z "></path><path id="pG5ZS30Yp" d="M 2060 1917 c 0 -7 16 -19 35 -26 43
-15 72 -52 86 -108 15 -57 39 -58 39 -2 0 52 -24 104 -60 129 -32 23 -100 27 -100
7 z "></path><path id="p8b6AVjNZ" d="M 990 1755 c 0 -39 24 -50 33 -15 3 11 12 20
21 20 9 0 16 7 16 15 0 10 -11 15 -35 15 -33 0 -35 -2 -35 -35 z "></path><path
id="p13F6s6uNC" d="M 1270 1777 c 0 -8 8 -17 19 -20 13 -3 22 -21 31 -57 13 -56 51
-107 103 -139 18 -11 79 -28 136 -39 57 -11 107 -24 111 -29 10 -11 -23 -268 -55
-423 -60 -286 -148 -587 -220 -751 -47 -107 -126 -240 -140 -236 -27 9 -108 198
-144 337 -11 41 -27 122 -36 180 -8 58 -18 120 -21 138 -3 20 -11 32 -21 32 -16 0
-16 -15 2 -175 5 -36 4 -37 -5 -11 -11 34 -36 231 -46 359 -6 78 -8 87 -26 87 -19
0 -20 -5 -13 -72 15 -170 36 -336 46 -381 6 -26 9 -50 7 -52 -9 -10 -726 554 -734
577 -4 14 1 27 17 43 13 13 164 127 334 255 268 200 310 229 313 210 5 -34 27 -17
30 23 3 36 2 37 -29 37 -31 0 -129 -61 -129 -81 0 -5 -7 -9 -15 -9 -9 0 -18 -7 -21
-15 -4 -8 -12 -15 -19 -15 -6 0 -24 -11 -39 -25 -15 -14 -31 -25 -37 -25 -5 0 -12
-7 -15 -15 -4 -8 -13 -15 -21 -15 -8 0 -17 -9 -20 -20 -3 -11 -13 -20 -23 -20 -10
0 -32 -13 -50 -30 -18 -16 -34 -30 -37 -30 -11 0 -213 -154 -213 -162 0 -4 -6 -8
-14 -8 -22 0 -56 -49 -56 -81 0 -34 19 -79 34 -79 6 0 17 -9 24 -20 7 -11 18 -20
26 -20 8 0 16 -7 20 -15 3 -8 14 -15 25 -15 10 0 21 -9 24 -20 3 -11 12 -20 20 -20
8 0 17 -7 21 -15 3 -8 15 -15 26 -15 11 0 20 -7 20 -15 0 -8 8 -15 19 -15 10 0 21
-9 24 -20 3 -12 14 -20 26 -20 12 0 21 -6 21 -15 0 -8 9 -15 20 -15 11 0 20 -7 20
-14 0 -16 59 -66 77 -66 6 0 13 -7 17 -15 3 -8 15 -15 26 -15 11 0 20 -7 20 -15 0
-8 6 -15 14 -15 8 0 16 -7 20 -15 3 -8 15 -15 26 -15 12 0 20 -7 20 -16 0 -9 9 -18
19 -21 11 -3 22 -11 25 -19 3 -8 15 -14 26 -14 11 0 20 -7 20 -15 0 -8 9 -15 20
-15 11 0 20 -7 20 -15 0 -8 7 -15 15 -15 8 0 15 -4 15 -10 0 -5 16 -10 35 -10 34 0
35 1 36 38 1 26 7 9 21 -58 22 -107 73 -263 88 -268 6 -2 10 -12 10 -22 0 -23 31
-90 41 -90 4 0 9 -9 12 -20 10 -37 97 -19 97 19 0 6 5 11 10 11 6 0 10 7 10 15 0 8
3 15 8 15 10 0 42 58 42 76 0 8 5 14 10 14 6 0 10 9 10 20 0 11 4 20 9 20 10 0 62
130 102 258 50 159 47 153 48 110 1 -36 3 -38 34 -38 33 0 117 51 117 71 0 5 7 9
15 9 9 0 18 7 21 15 4 8 13 15 20 15 8 0 17 7 20 15 4 8 13 15 20 15 8 0 17 7 20
15 4 8 13 15 20 15 8 0 17 7 20 15 4 8 13 15 20 15 8 0 17 6 20 14 3 8 14 16 25 19
10 3 19 12 19 21 0 9 8 16 20 16 11 0 20 5 20 10 0 6 7 10 15 10 8 0 20 9 27 20 7
11 19 20 26 20 7 0 15 7 18 15 4 8 12 15 20 15 7 0 17 6 21 13 4 6 22 19 38 28 17
10 34 26 40 38 5 12 17 21 26 21 28 0 40 26 37 81 -2 40 -8 55 -23 63 -11 6 -24 17
-28 24 -4 6 -14 12 -21 12 -8 0 -16 7 -20 15 -3 8 -10 15 -15 15 -5 0 -24 13 -41
29 -18 16 -44 35 -58 42 -15 8 -31 20 -35 26 -4 7 -15 13 -22 13 -8 0 -15 5 -15 10
0 6 -6 10 -14 10 -8 0 -16 7 -20 15 -3 8 -12 15 -20 15 -8 0 -16 4 -18 9 -1 5 -26
27 -55 50 -38 30 -62 41 -87 41 -34 0 -34 0 -46 -102 -23 -204 -59 -391 -112 -596
-31 -119 -33 -94 -2 34 55 234 104 530 104 630 0 53 0 53 -37 63 -21 5 -56 13 -78
16 -73 12 -150 37 -158 51 -4 8 -17 14 -27 14 -13 0 -20 7 -20 18 0 10 -4 22 -10
28 -5 5 -15 34 -23 64 -14 53 -15 55 -51 58 -26 2 -36 -1 -36 -11 z  m 838 -554 c
62 -46 116 -91 119 -99 4 -10 -5 -26 -23 -44 -36 -34 -604 -463 -604 -456 0 3 11
45 26 93 58 200 134 600 134 705 0 19 3 37 6 40 5 6 95 -56 342 -239 z
"></path><path id="pVF9Qcu4V" d="M2094.570044652314 1114.1359035100443 C
2094.570044652314 1150.6048066216676 2065.0061573912485 1180.1686938827331
2028.5372542796254 1180.1686938827331 1992.068351168002 1180.1686938827331
1962.5044639069365 1150.6048066216676 1962.5044639069365 1114.1359035100443
1962.5044639069365 1077.667000398421 1992.068351168002 1048.1031131373554
2028.5372542796254 1048.1031131373554 2065.0061573912485 1048.1031131373554
2094.570044652314 1077.667000398421 2094.570044652314 1114.1359035100443 Z
M1981.0 1161.0  m 69 -40 c 0 -26 -17 -36 -36 -21 -11 10 -12 16 -3 26 17 20 39 17
39 -5 z "></path><path id="pLQXkwrlK" d="M 1800 1737 c 0 -37 0 -37 95 -37 95 0
95 0 95 -89 0 -72 3 -90 16 -95 9 -3 54 -6 101 -6 95 0 113 9 113 59 0 38 -25 42
-34 6 -6 -24 -10 -25 -81 -25 -74 0 -74 0 -77 93 -3 92 -3 92 -103 95 -79 2 -103 6
-112 19 -11 14 -13 12 -13 -20 z "></path><path id="p1APaND7gz" d="M 290 1548 c 0
-38 0 -38 95 -38 95 0 95 0 95 35 0 19 -4 35 -10 35 -5 0 -10 -7 -10 -15 0 -24
-145 -22 -159 3 -8 14 -10 10 -11 -20 z "></path><path id="pwpeD2iYb" d="M 930
1183 c 0 -72 8 -103 26 -103 11 0 14 19 14 80 0 73 -2 80 -20 80 -18 0 -20 -7 -20
-57 z "></path><path id="pC3SLm1YC" d="M523.9558417488399 1113.443139382236 C
523.9558417488399 1149.340206863641 494.8555188579967 1178.440529754484
458.9584513765918 1178.440529754484 423.06138389518696 1178.440529754484
393.9610610043437 1149.340206863641 393.9610610043437 1113.443139382236
393.9610610043437 1077.546071900831 423.06138389518696 1048.445749009988
458.9584513765918 1048.445749009988 494.8555188579967 1048.445749009988
523.9558417488399 1077.546071900831 523.9558417488399 1113.443139382236 Z M411.0
1154.0  m 53 -20 c 19 -7 22 -44 3 -44 -17 0 -37 20 -37 37 0 14 10 16 34 7 z
"></path><path id="pKvkPYwh5" d="M 990 1110 c 0 -63 2 -70 20 -70 17 0 20 7 20 48
0 61 -9 92 -26 92 -11 0 -14 -17 -14 -70 z "></path><path id="pEvJEwSYW" d="M
1000 940 c 0 -53 2 -60 20 -60 16 0 20 7 20 38 0 52 -10 82 -26 82 -10 0 -14 -16
-14 -60 z "></path><path id="pq25lQ4jo" d="M 1010 825 c 0 -38 3 -45 20 -45 21 0
26 23 14 68 -11 41 -34 26 -34 -23 z "></path><path id="pP2mYdgd8" d="M 277 703 c
-4 -3 -7 -21 -7 -40 0 -37 24 -47 33 -12 3 11 15 23 26 26 35 9 25 33 -12 33 -19 0
-37 -3 -40 -7 z "></path><path id="phPeSMyWw" d="M 420 696 c 0 -7 9 -16 20 -19
18 -5 20 -14 20 -76 0 -64 2 -71 20 -71 18 0 20 7 20 59 0 32 -3 73 -6 90 -6 27
-10 31 -40 31 -22 0 -34 -5 -34 -14 z "></path><path id="pFJ20BHE0" d="M 1995 698
c -2 -7 -5 -57 -8 -111 -4 -95 -4 -98 17 -95 19 3 21 10 24 92 2 78 5 89 22 93 11
3 20 12 20 19 0 18 -69 19 -75 2 z "></path><path id="pRZAXHKW4" d="M 2140 696 c
0 -9 7 -16 16 -16 9 0 21 -13 27 -30 18 -46 39 -39 35 13 -3 41 -4 42 -40 45 -29 2
-38 0 -38 -12 z "></path><path id="p1AOqJ7BKG" d="M 1803 523 c -7 -2 -13 -16 -13
-29 0 -13 -4 -24 -10 -24 -5 0 -10 -18 -10 -40 0 -33 3 -40 20 -40 17 0 20 7 20 44
0 51 7 56 86 56 47 0 54 2 54 20 0 18 -6 20 -67 19 -38 0 -74 -3 -80 -6 z
"></path><path id="p1HbGz2sPW" d="M 2190 506 c 0 -2 -5 -27 -10 -57 -12 -64 -40
-96 -97 -111 -56 -14 -58 -38 -3 -38 28 0 40 4 40 14 0 9 12 16 32 18 24 2 34 9 37
23 2 11 8 23 14 27 6 3 13 34 15 67 4 51 2 61 -12 61 -9 0 -16 -2 -16 -4 z
"></path><path id="pX57dIEvH" d="M 653 489 c 13 -8 17 -24 17 -75 0 -64 -1 -66
-30 -77 -44 -17 -38 -37 10 -37 51 0 60 17 60 119 0 81 0 81 -37 81 -31 -1 -35 -3
-20 -11 z "></path><path id="p63WBraLx" d="M 273 423 c 3 -26 10 -49 16 -51 6 -2
11 -10 11 -18 0 -8 8 -18 18 -21 9 -4 20 -11 23 -16 4 -5 27 -12 53 -14 60 -7 65
18 7 36 -45 13 -86 57 -96 101 -4 18 -13 30 -22 30 -13 0 -15 -9 -10 -47 z
"></path><path id="pspLdPsw5" d="M 1780 345 c 0 -33 2 -35 35 -35 39 0 44 9 15 28
-11 7 -20 19 -20 27 0 8 -7 15 -15 15 -10 0 -15 -11 -15 -35 z "></path><path
id="pHROK1vIP" d="M 2240 110 c 0 -5 -7 -10 -15 -10 -8 0 -15 -4 -15 -8 0 -5 -31
-15 -70 -22 -57 -11 -70 -17 -70 -32 0 -24 34 -24 111 2 61 21 129 59 129 73 0 4
-16 7 -35 7 -19 0 -35 -4 -35 -10 z "></path><path id="p15zJ5uJPN" d="M 830 45 c
0 -23 4 -25 45 -25 41 0 45 2 45 25 0 23 -4 25 -45 25 -41 0 -45 -2 -45 -25 z
"></path></g></g><g id="l4vz7N5GXtxg6rber1DttBm" fill="rgb(0,47,83)"
style="transform: none;"><g style="transform: none;"><path id="pDrFHynyv" d="M
373 1933 c -17 -3 -23 -11 -23 -30 0 -20 3 -24 18 -17 20 9 237 23 270 18 17 -3 22
0 22 16 0 19 -6 20 -132 19 -73 -1 -143 -4 -155 -6 z "></path><path
id="pxC8PilOn" d="M 1820 1921 c 0 -18 9 -20 135 -20 129 -1 135 0 135 19 0 19 -6
20 -135 20 -127 0 -135 -1 -135 -19 z "></path><path id="pAQwCayyp" d="M 2190
1060 c -35 -29 -35 -29 3 -30 35 0 37 2 37 30 0 17 -1 30 -3 30 -1 0 -18 -13 -37
-30 z "></path><path id="ppTN15k0M" d="M 940 1033 c 0 -34 12 -63 26 -63 10 0 14
13 14 40 0 33 -3 40 -20 40 -12 0 -20 -7 -20 -17 z "></path><path id="pS2R3Tkk3"
d="M 340 991 c 0 -29 3 -31 36 -31 39 0 38 9 -6 40 -30 21 -30 21 -30 -9 z
"></path><path id="p0FC6QsKV" d="M 1640 935 c 0 -40 24 -49 34 -12 10 37 7 47 -14
47 -16 0 -20 -7 -20 -35 z "></path><path id="pvjeUJY8F" d="M 2020 930 c -35 -29
-35 -29 3 -30 35 0 37 2 37 30 0 17 -1 30 -3 30 -1 0 -18 -13 -37 -30 z
"></path><path id="p5PfPKo9r" d="M 470 891 c 0 -29 3 -31 36 -31 39 0 38 9 -6 40
-30 21 -30 21 -30 -9 z "></path><path id="pyB2elL8v" d="M 1940 870 c -35 -29 -35
-29 3 -30 35 0 37 2 37 30 0 17 -1 30 -3 30 -1 0 -18 -13 -37 -30 z "></path><path
id="pN1CA7eiM" d="M 1620 845 c 0 -40 24 -49 34 -12 10 37 7 47 -14 47 -16 0 -20
-7 -20 -35 z "></path><path id="pSgoHElA5" d="M 560 821 c 0 -29 3 -31 36 -31 39
0 38 9 -6 40 -30 21 -30 21 -30 -9 z "></path><path id="pLUwNRa05" d="M 960 823 c
0 -34 12 -63 26 -63 10 0 14 13 14 40 0 33 -3 40 -20 40 -12 0 -20 -7 -20 -17 z
"></path><path id="pJxuV0MA3" d="M 1010 805 c 0 -28 4 -35 20 -35 21 0 24 10 14
48 -10 36 -34 27 -34 -13 z "></path><path id="p1FguI4HSZ" d="M 1810 770 c -35
-29 -35 -29 3 -30 35 0 37 2 37 30 0 17 -1 30 -3 30 -1 0 -18 -13 -37 -30 z
"></path><path id="p3IMl5ObN" d="M 1020 715 c 0 -28 4 -35 20 -35 21 0 24 10 14
48 -10 36 -34 27 -34 -13 z "></path><path id="p1TOFkL73" d="M 700 711 c 0 -24 4
-31 20 -31 11 0 20 -7 20 -15 0 -8 9 -15 20 -15 11 0 20 -7 20 -15 0 -11 11 -15 38
-15 37 1 37 1 4 29 -18 16 -53 43 -78 60 -44 32 -44 32 -44 2 z "></path><path
id="pvKyJjcA0" d="M 970 733 c 0 -20 31 -193 37 -209 7 -20 9 -21 -102 62 -35 26
-35 26 -35 -5 0 -24 4 -31 20 -31 11 0 20 -7 20 -15 0 -8 9 -15 20 -15 11 0 20 -7
20 -15 0 -20 63 -20 83 0 13 13 16 6 27 -53 17 -88 61 -224 104 -317 34 -74 34 -74
-112 -68 -81 3 -154 9 -162 13 -8 4 -88 7 -178 8 -106 1 -170 6 -185 14 -13 7 -71
12 -147 13 -69 1 -133 5 -143 10 -22 9 -117 104 -117 116 0 5 -11 9 -25 9 -32 0
-31 -8 4 -57 60 -82 156 -144 256 -162 77 -14 885 -15 885 -1 0 6 14 10 30 10 20 0
30 5 30 15 0 8 5 15 10 15 6 0 10 7 10 15 0 8 5 15 10 15 6 0 10 11 10 25 0 16 6
25 15 25 8 0 15 9 15 20 0 11 5 20 10 20 6 0 10 16 10 35 0 42 -12 45 -30 8 -8 -16
-34 -59 -58 -98 -42 -66 -45 -68 -59 -50 -50 66 -123 267 -153 420 -11 61 -23 122
-26 138 -3 15 -12 27 -19 27 -8 0 -15 -12 -17 -27 -2 -18 -7 -5 -12 35 -7 51 -11
62 -27 62 -10 0 -19 -3 -19 -7 z "></path><path id="p12sT2Il4R" d="M 443 683 c 18
-5 19 -10 21 -118 1 -70 1 -70 101 -75 92 -5 101 -7 110 -27 15 -35 35 -28 35 12 0
46 -20 55 -124 55 -86 0 -86 0 -86 80 0 80 0 80 -37 79 -21 -1 -30 -3 -20 -6 z
"></path><path id="py6renrtu" d="M 1800 515 c 0 -8 -7 -15 -15 -15 -12 0 -15 -16
-15 -85 0 -50 4 -85 10 -85 6 0 10 -7 10 -15 0 -10 11 -15 35 -15 41 0 49 24 10 34
-21 5 -25 13 -27 49 -2 60 2 91 13 102 6 6 51 10 102 10 79 0 92 2 95 18 3 15 -7
17 -107 17 -92 0 -111 -3 -111 -15 z "></path><path id="p9IVaW9ht" d="M 2430 448
c -1 -136 -95 -248 -208 -248 -21 0 -44 -6 -50 -12 -7 -7 -48 -16 -90 -20 -126 -11
-235 -28 -246 -37 -12 -10 -80 -18 -225 -27 -55 -4 -100 -11 -107 -19 -7 -7 -49
-15 -93 -19 -71 -6 -81 -10 -81 -27 0 -18 11 -19 378 -19 416 0 461 5 558 60 59 34
124 100 152 157 48 94 65 253 26 253 -10 0 -14 -13 -14 -42 z "></path><path
id="pS7RBAnF5" d="M 2181 433 c -7 -21 -15 -44 -17 -50 -4 -9 3 -13 19 -13 26 0 37
20 37 73 0 40 -25 34 -39 -10 z "></path><path id="poIMRzF7j" d="M 270 425 c 0
-19 5 -35 10 -35 6 0 10 -9 10 -20 0 -11 7 -20 15 -20 8 0 15 -7 15 -15 0 -8 9 -15
20 -15 11 0 20 -4 20 -10 0 -5 16 -10 35 -10 44 0 48 26 5 35 -39 8 -87 56 -95 95
-9 43 -35 39 -35 -5 z "></path><path id="pVjI8D9s2" d="M 680 375 c 0 -8 -9 -24
-20 -35 -20 -20 -20 -20 15 -20 33 0 35 2 35 35 0 24 -5 35 -15 35 -8 0 -15 -7 -15
-15 z "></path><path id="pOcvBm9Uj" d="M 30 358 c 0 -30 13 -58 26 -58 9 0 14 12
14 35 0 28 -4 35 -20 35 -11 0 -20 -6 -20 -12 z "></path><path id="pITjUah2m"
d="M 2098 342 c -45 -20 -50 -42 -9 -42 45 0 61 10 61 36 0 28 -2 28 -52 6 z
"></path></g></g><g id="l1WYBusHz163guwU63iqaMH" fill="rgb(0,37,66)"
style="transform: none;"><g style="transform: none;"><path id="p17YgfszRr" d="M
1165 2070 c -18 -20 -17 -20 13 -20 22 0 32 -5 32 -15 0 -10 -10 -15 -30 -15 -36 0
-39 -14 -6 -35 20 -14 29 -14 48 -4 28 14 38 28 38 52 0 22 -35 57 -58 57 -11 0
-27 -9 -37 -20 z "></path><path id="p1CfVCh4A" d="M 80 2003 c -8 -16 -16 -31 -18
-35 -2 -5 8 -8 22 -8 23 0 26 4 26 35 0 42 -12 45 -30 8 z "></path><path
id="p1DzyL1Gik" d="M 2390 1976 c 0 -32 3 -36 25 -36 24 0 25 1 12 32 -19 46 -37
48 -37 4 z "></path><path id="p8bhfExSn" d="M 1356 1948 c -10 -38 -7 -48 14 -48
16 0 20 7 20 35 0 40 -24 49 -34 13 z "></path><path id="pvPNs56ek" d="M 380 1930
c 0 -5 -11 -10 -25 -10 -21 0 -25 -5 -25 -31 0 -30 0 -30 28 -11 15 11 42 23 60 27
44 9 43 35 -3 35 -19 0 -35 -4 -35 -10 z "></path><path id="pv6ckrqqU" d="M 610
1928 c 1 -7 16 -20 35 -29 35 -16 35 -16 35 12 0 26 -3 29 -35 29 -22 0 -35 -5 -35
-12 z "></path><path id="pSbTKXhTH" d="M 1810 1915 c 0 -18 -5 -25 -20 -25 -18 0
-20 -7 -20 -80 0 -80 0 -80 31 -80 26 0 29 2 20 14 -7 9 -11 41 -9 82 3 68 3 68 36
78 44 12 42 36 -3 36 -31 0 -35 -3 -35 -25 z "></path><path id="pmJZZLSzB" d="M
2030 1926 c 0 -13 28 -26 58 -26 6 0 12 9 12 20 0 16 -7 20 -35 20 -23 0 -35 -5
-35 -14 z "></path><path id="pyupR9Ifu" d="M 270 1805 c 0 -22 5 -35 13 -35 8 0
18 16 24 35 11 33 10 35 -13 35 -21 0 -24 -5 -24 -35 z "></path><path
id="piGwev804" d="M 680 1775 c 0 -8 -10 -23 -22 -35 -22 -20 -22 -20 15 -20 36 0
37 1 37 35 0 24 -5 35 -15 35 -8 0 -15 -7 -15 -15 z "></path><path id="pc76Jmrcp"
d="M 1324 1709 c 11 -55 37 -98 79 -129 50 -36 57 -37 57 -5 0 18 -5 25 -20 25 -11
0 -20 6 -20 13 0 7 -9 19 -20 27 -11 8 -20 20 -20 27 0 7 -4 13 -10 13 -5 0 -10 14
-10 30 0 24 -4 30 -21 30 -19 0 -21 -4 -15 -31 z "></path><path id="p19BSdQ6Jx"
d="M 2190 1675 c 0 -28 4 -35 20 -35 16 0 20 7 20 35 0 28 -4 35 -20 35 -16 0 -20
-7 -20 -35 z "></path><path id="p16GUJqGfE" d="M 900 1634 c 0 -14 3 -14 15 -4 13
11 15 8 15 -19 0 -24 4 -31 20 -31 16 0 20 7 20 35 0 33 -2 35 -35 35 -26 0 -35 -4
-35 -16 z "></path><path id="pwWaAA0kf" d="M 780 1575 c 0 -8 -9 -15 -20 -15 -15
0 -20 -7 -20 -25 0 -22 -4 -25 -35 -25 -24 0 -35 -5 -35 -15 0 -8 -9 -15 -20 -15
-11 0 -20 -7 -20 -15 0 -8 -7 -15 -15 -15 -23 0 -65 -30 -65 -46 0 -8 -7 -14 -15
-14 -23 0 -65 -30 -65 -46 0 -8 -9 -14 -20 -14 -11 0 -20 -7 -20 -15 0 -8 -9 -15
-20 -15 -11 0 -20 -7 -20 -15 0 -8 -9 -15 -20 -15 -11 0 -20 -4 -20 -10 0 -5 -7
-10 -15 -10 -9 0 -18 -6 -21 -14 -3 -8 -17 -17 -31 -21 -38 -9 -55 -31 -61 -80 -5
-52 2 -88 24 -109 14 -15 13 -18 -20 -31 -19 -8 -58 -15 -85 -15 -51 0 -61 9 -61
51 0 14 -7 19 -25 19 -26 0 -26 0 -23 -367 3 -368 3 -368 30 -423 37 -74 141 -180
177 -180 7 0 19 -7 27 -15 18 -18 35 -20 31 -3 -1 7 9 14 23 16 43 8 161 2 180 -8
10 -6 50 -10 88 -10 96 0 172 -11 147 -21 -14 -5 -5 -8 28 -8 27 -1 46 3 42 8 -9
16 33 23 56 10 23 -12 178 -20 409 -21 210 -1 236 1 257 21 11 11 31 17 51 15 38
-2 149 11 175 21 14 6 20 2 24 -14 6 -24 23 -29 23 -6 0 8 6 15 13 15 6 0 24 6 39
14 16 9 30 10 35 5 6 -6 15 -4 23 6 8 9 29 15 57 15 24 0 52 4 62 9 9 5 50 11 91
12 54 2 78 7 86 18 9 12 17 13 34 5 28 -12 103 23 153 71 64 61 67 83 67 638 0 485
0 497 -19 497 -16 0 -20 -8 -23 -37 -2 -30 -8 -39 -24 -41 -12 -2 -30 -12 -40 -23
-9 -10 -21 -19 -26 -19 -5 0 -18 -9 -30 -20 -36 -33 -82 -23 -142 32 -11 10 -25 18
-31 18 -6 0 -22 11 -35 25 -24 25 -134 95 -151 95 -5 0 -9 5 -9 10 0 6 -9 10 -20
10 -11 0 -20 7 -20 15 0 8 -8 15 -19 15 -10 0 -21 9 -24 20 -4 15 -14 20 -42 20
-48 0 -41 -9 74 -93 47 -35 146 -108 219 -162 167 -122 166 -118 27 -225 -348 -264
-529 -399 -533 -395 -2 2 5 32 17 67 30 91 86 333 110 474 25 146 25 134 2 134 -15
0 -21 -8 -24 -32 -3 -25 -4 -22 -5 15 -2 33 -6 47 -16 47 -16 0 -26 -30 -26 -77 0
-27 4 -33 21 -33 18 0 20 -4 13 -46 -7 -48 -29 -84 -51 -84 -7 0 -13 -3 -13 -7 0
-5 -18 -82 -39 -173 -84 -355 -175 -606 -277 -768 -20 -31 -38 -59 -40 -61 -17 -19
-82 103 -128 240 -50 148 -87 377 -101 624 -8 137 -13 165 -30 165 -12 0 -15 -14
-15 -60 0 -53 -2 -60 -20 -60 -11 0 -20 -6 -20 -14 0 -41 31 -302 45 -370 8 -44 13
-81 11 -83 -3 -3 -250 183 -436 330 -58 45 -149 116 -202 157 -95 74 -119 102 -110
128 2 8 136 113 298 233 162 121 294 222 294 224 0 3 -16 5 -35 5 -24 0 -35 -5 -35
-15 z  m -315 -918 c 4 -13 4 -47 2 -77 -7 -80 -7 -80 90 -80 115 0 123 -5 123 -83
0 -36 -5 -68 -12 -75 -19 -19 -261 -16 -299 3 -57 30 -69 66 -69 201 0 66 3 124 7
127 3 4 39 7 79 7 69 0 74 -2 79 -23 z  m 1723 -100 c 3 -135 -9 -173 -63 -207 -28
-17 -49 -20 -168 -20 -156 0 -157 1 -157 86 0 74 15 84 127 84 93 0 93 0 93 83 0
46 3 87 7 91 4 4 41 5 83 4 75 -3 75 -3 78 -121 z "></path><path id="p0998XWRq"
d="M 1590 1536 c 0 -13 28 -26 58 -26 6 0 12 9 12 20 0 16 -7 20 -35 20 -23 0 -35
-5 -35 -14 z "></path><path id="pKqu6uStP" d="M 1720 1430 c 0 -45 23 -57 34 -17
11 41 7 57 -14 57 -17 0 -20 -7 -20 -40 z "></path><path id="pUazjgqp3" d="M 1676
1428 c -11 -42 -7 -58 14 -58 16 0 20 -7 20 -30 0 -36 25 -41 34 -7 10 37 7 47 -14
47 -16 0 -20 7 -20 35 0 40 -24 49 -34 13 z "></path><path id="p17F3VBM8g" d="M
930 1268 c 0 -57 9 -88 26 -88 11 0 14 16 14 65 0 58 -2 65 -20 65 -17 0 -20 -7
-20 -42 z "></path><path id="p9cOO5Gzp" d="M 430 1167 c -38 -19 -41 -80 -5 -103
20 -13 33 -15 52 -8 41 14 40 34 -1 34 -29 0 -36 4 -36 20 0 18 4 20 40 14 51 -8
53 18 3 45 -26 13 -22 13 -53 -2 z "></path><path id="pxHM0nFsI"
d="M2088.75533441039 1113.946435398313 C 2088.75533441039 1148.2490687764443
2060.947555743597 1176.0568474432373 2026.644922365466 1176.0568474432373
1992.3422889873345 1176.0568474432373 1964.5345103205416 1148.2490687764443
1964.5345103205416 1113.946435398313 1964.5345103205416 1079.6438020201817
1992.3422889873345 1051.8360233533888 2026.644922365466 1051.8360233533888
2060.947555743597 1051.8360233533888 2088.75533441039 1079.6438020201817
2088.75533441039 1113.946435398313 Z M2003.0 1170.0  m 36 -44 c 9 -10 8 -15 -3
-19 -16 -7 -26 1 -26 20 0 17 14 17 29 -1 z "></path><path id="p316DqxQX" d="M
940 1068 c 0 -48 10 -78 26 -78 10 0 14 15 14 55 0 48 -2 55 -20 55 -16 0 -20 -7
-20 -32 z "></path></g></g><g id="l5HiQsOFqsFxmaZLtzAJ5eF" fill="rgb(0,26,47)"
style="transform: none;"><g style="transform: none;"><path id="pKxaFHIxw" d="M
246 2164 c -67 -35 -138 -109 -178 -185 -33 -64 -33 -64 -36 -534 -1 -270 1 -464 6
-457 7 11 11 9 15 -7 3 -12 1 -19 -4 -15 -5 3 -6 -2 -3 -10 13 -34 243 2 267 41 3
5 -4 21 -17 34 -13 14 -29 35 -35 48 -13 24 -6 81 10 81 6 0 103 69 217 154 331
247 437 324 439 323 1 -1 4 -121 7 -267 7 -317 18 -444 40 -466 9 -8 16 -20 16 -25
0 -17 19 -9 21 9 1 9 3 209 6 445 4 428 4 428 150 425 147 -3 147 -3 158 -49 27
-104 83 -152 202 -175 153 -29 153 -29 153 -77 0 -23 -5 -60 -10 -82 -5 -22 -11
-62 -14 -90 -3 -27 -10 -75 -16 -105 -16 -80 -38 -215 -35 -218 9 -10 35 15 49 46
9 22 13 27 10 12 -4 -19 -3 -22 5 -10 6 8 11 23 11 33 0 9 5 17 11 17 5 0 7 5 4 10
-3 6 -2 10 3 10 8 0 33 145 52 309 5 46 12 86 14 89 3 2 41 -23 84 -55 43 -33 103
-74 133 -91 30 -17 65 -42 78 -56 14 -14 30 -26 36 -26 6 0 20 -8 31 -18 10 -9 39
-30 64 -47 25 -16 48 -33 51 -38 3 -4 23 6 45 23 21 16 48 30 59 30 17 0 17 2 5 10
-13 8 -13 10 1 10 9 0 24 9 34 20 10 11 26 20 35 20 10 0 22 6 28 13 6 7 10 126 11
303 2 272 1 295 -19 353 -27 82 -57 128 -117 181 -92 82 -82 80 -538 80 -403 0
-403 0 -407 -102 -3 -67 -13 -127 -27 -171 -22 -68 -22 -68 -169 -65 -147 3 -147 3
-164 78 -9 41 -17 117 -17 168 -1 92 -1 92 -353 92 -353 -1 -353 -1 -402 -26 z  m
416 -271 c 14 -12 18 -31 18 -79 0 -39 -5 -66 -12 -71 -7 -4 -56 -10 -108 -13 -95
-5 -95 -5 -100 -95 -5 -90 -5 -90 -68 -93 -38 -2 -69 2 -78 9 -11 9 -14 41 -14 134
0 110 2 125 23 156 37 56 76 69 206 69 92 0 118 -3 133 -17 z  m 1464 -10 c 52 -37
65 -78 65 -204 0 -70 -4 -116 -12 -125 -7 -9 -32 -14 -69 -14 -91 0 -90 -1 -90 101
0 89 0 89 -93 89 -118 0 -132 10 -125 96 7 82 15 86 168 82 110 -3 129 -6 156 -25
z "></path><path id="p16Q6z3GE7" d="M 1162 2068 c -21 -21 -14 -64 14 -83 23 -15
27 -15 50 0 14 9 22 20 19 25 -4 6 -2 10 4 10 5 0 6 11 2 28 -6 22 -14 28 -42 30
-19 2 -40 -3 -47 -10 z "></path><path id="poXRTwdSN" d="M2086.175815178506
1117.4613402895543 C 2086.175815178506 1148.6975361885079 2060.8538752453333
1174.0194761216806 2029.6176793463796 1174.0194761216806 1998.381483447426
1174.0194761216806 1973.0595435142534 1148.6975361885079 1973.0595435142534
1117.4613402895543 1973.0595435142534 1086.22514439060075 1998.381483447426
1060.90320445742805 2029.6176793463796 1060.90320445742805 2060.8538752453333
1060.90320445742805 2086.175815178506 1086.22514439060075 2086.175815178506
1117.4613402895543 Z M2010.0 1171.0 "></path><path id="pxCh8w6iW"
d="M517.9163846664738 1113.2778625350866 C 517.9163846664738 1145.5995244611876
491.7145006572734 1171.801408470388 459.3928387311724 1171.801408470388
427.07117680507145 1171.801408470388 400.869292795871 1145.5995244611876
400.869292795871 1113.2778625350866 400.869292795871 1080.95620060898557
427.07117680507145 1054.7543165997851 459.3928387311724 1054.7543165997851
491.7145006572734 1054.7543165997851 517.9163846664738 1080.95620060898557
491.7145006572734 1054.7543165997851 517.9163846664738 1080.95620060898557
517.9163846664738 1113.2778625350866 Z M416.0 1154.0 "></path></g></g></svg> 