<svg xmlns="http://www.w3.org/2000/svg" width="253" height="219" class="img-fluid" style="transform:matrix(1.11388,0,0,1.11388,0,0);transform-origin:50% 50%;cursor:move;transition:transform 200ms ease-in-out" viewBox="0 0 2530 2190"><g fill="#FFF"><path d="M1032 1996c3-80 9-149 13-155 7-12 173-15 213-5q37.5 10.5 9 108c-10 31-19 42-45 50-42 14-58 39-37 56 8 7 15 27 15 45 0 30-3 33-37 39-21 3-60 6-87 6-49 0-49 0-44-144M1047 1773c-3-5-6-251-8-548-2-471 0-555 15-655 21-138 73-315 126-427 38-81 39-83 75-83 31 0 39 5 66 47 114 178 216 483 324 970 18 79 55 358 55 410 0 17-5 35-11 39-6 3-69 10-140 14-116 6-132 9-169 33-52 35-90 93-98 154-7 48-7 48-119 51-61 1-114-1-116-5M240 1103c0-44-23-24 439-380 230-178 281-213 308-213 31 0 33 2 33 38s-5 40-202 197c-395 314-507 395-544 395-33 0-34-2-34-37M1909 931c-52-39-145-109-206-158-102-80-113-91-113-120 0-32 2-33 39-33 22 0 42 4 46 9 3 6 93 76 200 156 187 140 195 148 195 181 0 32-2 34-33 34-26 0-56-16-128-69"/></g><g fill="#F2F8FC"><path d="M1030 2136c0-43 3-56 15-56 8 0 15 7 15 15 0 16 15 18 72 9 37-6 37-6 16-35-21-27-21-31-6-62 11-23 26-36 50-43 18-5 33-14 33-19 0-6 4-16 8-22 5-7 6-13 2-13-3 0-1-9 4-19 13-23 2-27-94-26-67 0-70 1-73 25-7 68-14 90-27 90-16 0-20-60-9-119 7-31 7-31 150-31 144 0 144 0 144 70 0 92-17 120-71 120-21 0-41-4-44-10-10-16-43 11-37 32 3 14 14 18 48 18 44 0 44 0 44 35 0 28-5 37-24 45-13 5-29 17-34 27-9 15-26 19-96 22-86 3-86 3-86-53M1040 1745c0-39 24-50 33-15 3 11 12 20 21 20s16 7 16 15c0 10-11 15-35 15-33 0-35-2-35-35M1210 1766c0-7 8-16 19-19 13-3 19-17 23-51 10-85 86-166 171-181 32-6 37-5 37 11 0 13-12 23-39 31-36 12-111 75-111 94 0 5-4 9-10 9-5 0-12 27-16 60-7 60-7 60-40 60-22 0-34-5-34-14M1580 1525c0-10 14-17 40-21 22-4 43-10 45-14 5-8-32-316-41-340-7-19-44-201-44-217 0-7 8-13 18-13 15 0 22 22 45 138 31 157 57 351 57 421 0 46-1 49-31 55-55 11-89 7-89-9M250 1111c0-45 17-81 39-81 10 0 21-9 24-20s13-23 24-27c10-3 22-12 26-20 4-7 17-13 27-13 11 0 20-7 20-15 0-9 9-15 25-15 18 0 25-5 25-20 0-13 7-20 20-20 11 0 20-7 20-15s9-15 20-15 20-7 20-15c0-9 9-15 25-15 18 0 25-5 25-20 0-13 7-20 19-20 10 0 21-9 24-20s12-20 20-20 17-7 21-15c3-8 15-15 26-15s20-7 20-15 9-15 20-15 20-7 20-15c0-9 9-15 21-15s23-8 26-20c4-15 14-20 39-20 31 0 34 3 34 29 0 41-17 81-34 81-7 0-16 7-20 15-3 8-17 15-31 15-18 0-25 5-25 20 0 11-8 24-17 27-10 4-26 17-36 30s-24 23-32 23c-7 0-15 7-19 15-3 8-11 15-18 15s-19 9-26 20-18 20-25 20-18 9-25 20-18 20-26 20-16 7-20 15c-3 8-15 15-26 15s-20 7-20 15c0 9-8 19-17 22-10 4-24 15-31 25s-19 18-26 18c-8 0-16 7-20 15-3 8-12 15-20 15-7 0-16 7-20 15-3 8-12 15-20 15-7 0-16 7-20 15-3 8-12 15-20 15-7 0-16 7-20 15-3 8-12 15-20 15-7 0-16 7-20 15-3 8-12 15-21 15-8 0-15 5-15 10 0 6-16 10-35 10-32 0-35-2-35-29zm189-124c209-158 545-428 550-440 5-15 0-11-288 211-324 250-425 331-430 344-5 16 9 6 168-115M1033 858c3-155 10-244 25-328 23-127 87-340 102-340 6 0 10-9 10-20 0-32 22-70 42-70 11 0 18-7 18-20 0-16 7-20 35-20 24 0 35 5 35 15 0 8 5 15 10 15 6 0 10 11 10 25 0 15 6 25 14 25s17 7 20 16c9 23 7 74-2 74-5 0-24-27-42-61-53-94-54-94-99 2-99 212-145 446-142 722 2 175 2 177-20 177-21 0-21 0-16-212M1988 994c-46-30-92-65-103-77s-33-28-48-36-27-20-27-27-10-14-22-16c-15-2-24-11-26-25-3-17-10-23-28-23-13 0-24-4-24-10 0-5-7-10-15-10s-24-13-37-30c-12-16-28-30-35-30s-13-7-13-15-7-15-15-15c-10 0-15-11-15-35 0-34 1-35 40-35 28 0 40 4 40 14 0 8 14 19 30 25 17 5 30 15 30 20 0 6 7 11 15 11s15 7 15 15 9 15 20 15 23 7 26 15c4 8 12 15 20 15s14 7 14 15 8 15 19 15c10 0 21 9 24 20 3 12 14 20 26 20s21 5 21 10c0 6 6 10 14 10 7 0 16 9 19 20 3 12 14 20 26 20s21 6 21 15c0 8 9 15 20 15s20 7 20 15 8 15 18 15c31 1 82 57 82 90 0 28-3 30-35 30-25 0-56-15-117-56m52-28c0-4-284-221-334-255-46-32 13 24 76 72 97 74 251 187 255 187 2 0 3-2 3-4m-380-291c-13-14-28-25-34-25s3 11 19 25c39 31 45 32 15 0M1566 888c-3-13-20-76-37-140-30-116-110-357-143-430-16-38-16-38 8-38s36 16 36 51c0 10 4 19 9 19 12 0 101 269 101 304 0 13 3 26 8 28 9 4 53 175 52 206 0 12-6 22-14 22-7 0-16-10-20-22M530 20c0-20 7-20 795-20s795 0 795 20-7 20-795 20-795 0-795-20"/></g><g fill="#E4F2FD"><path d="M1040 2178c0-7 5-20 10-28 8-12 10-10 10 9 0 16 4 21 14 18 8-3 34-11 58-17 23-7 48-21 56-31 7-10 19-19 27-19s16-4 19-9c4-5-3-7-14-4s-27 2-36-1c-14-6-12-11 14-33 42-34 43-63 2-63-19 0-30-5-30-14 0-21 35-26 66-9 26 13 29 12 46-9 10-13 18-38 18-55 0-25 4-33 19-33s19 10 25 53c13 110 0 149-73 230-24 26-28 27-128 27-76 0-103-3-103-12M1030 1880c0-50 0-50 35-50 24 0 35 5 35 15 0 8-6 15-14 15s-17 15-20 35c-11 56-36 46-36-15M1260 1663c1-19 22-53 34-53 3 0 6 16 6 35 0 28-4 35-20 35-13 0-20-7-20-17M1343 1555c36-32 86-45 175-45 65 0 72 2 72 20s-7 20-77 20c-49 1-87 6-103 15-14 8-41 14-60 14-35 0-35 0-7-24M1666 1438c-10-38-7-48 14-48 16 0 20 7 20 35 0 40-24 49-34 13M2468 1250c-14-16-17-70-25-462-8-443-8-443-40-508-65-135-199-226-347-237-51-4-76-10-76-18 0-20 18-21 293-24 257-3 257-3 257 633s0 636-22 635c-13 0-30-9-40-19M1030 1146c0-63-5-127-11-143-7-18-8-65-4-130 7-92 9-103 26-103s19 8 19 78c0 44 3 154 7 245 6 166 6 167-15 167s-22-4-22-114M240 1117c0-21 7-36 20-45 11-7 20-21 20-32 0-15 7-20 25-20 28 0 66-18 78-37 4-7 15-13 22-13q15 0 15-30c0-28 3-30 35-30 19 0 35 2 35 5 0 2-35 31-77 64-115 88-149 118-141 126 10 10 384-272 578-435 30-26 72-59 93-74 37-28 37-28 37 3 0 24-4 31-19 31-10 0-21 9-24 20-3 13-14 20-30 20-19 0-26 6-29 23-2 16-11 23-30 25-20 2-28 9-28 23 0 11-8 23-17 26-10 4-22 12-26 20-4 7-16 13-26 13s-21 9-24 20c-3 12-14 20-26 20-13 0-21 6-21 16 0 9-9 18-19 21-11 3-22 11-25 19s-14 14-25 14c-10 0-21 9-24 20-3 12-14 20-26 20-13 0-21 6-21 16 0 9-9 18-20 21s-20 9-20 14-8 9-19 9c-10 0-21 9-24 20s-12 20-20 20-17 7-21 15c-3 8-12 15-21 15-8 0-15 5-15 10 0 6-9 10-20 10s-20 7-20 15c0 19-31 35-69 35-28 0-31-3-31-33M2168 1132c-7-10-68-55-135-101-68-45-123-89-123-97s-8-14-18-14-32-13-49-29c-17-15-38-31-47-34-9-4-16-13-16-22 0-8-7-15-15-15-25 0-75-42-75-62q0-18-24-18c-14 0-31-8-38-18s-21-21-30-25c-13-4-18-17-18-42 0-33 2-35 34-35 19 0 38 5 41 10 3 6 14 10 24 10 11 0 21 10 25 23 12 47 5 49-40 12-25-20-47-35-50-33-4 5 70 71 126 113 15 11 62 47 105 80 102 79 205 154 230 167 49 27-15-27-182-153-109-83-170-135-160-137 21-4 77 35 77 53 0 9 17 16 46 21 29 4 48 13 51 23 11 29 36 51 60 51 15 0 23 6 23 18 0 19 86 82 113 82 10 0 20 7 23 15 4 8 11 15 16 15 6 0 32 18 59 41 43 36 49 45 49 80 0 38-1 39-34 39-22 0-40-7-48-18M1576 928c-10-38-7-48 14-48 16 0 20 7 20 35 0 40-24 49-34 13"/><path d="M510 890c0-7 9-14 20-17 14-4 20-14 20-34 0-24 4-29 25-29 18 0 25-5 25-20 0-14 7-20 23-20 48 0 67-11 67-40 0-25 4-28 42-33 24-3 44-5 45-4 2 2-132 107-229 180-21 16-38 23-38 17M1535 763c-9-38-19-78-22-90-4-18-1-23 16-23s21 6 21 34c0 19 5 36 10 38 6 2 13 27 17 56 5 43 3 52-10 52-11 0-20-20-32-67M0 404C0-2 0-2 388 0c213 2 397 5 410 7 12 3 22 11 22 18 0 11-49 14-227 17-210 3-232 6-283 27C193 117 99 215 63 326c-12 36-17 106-21 267-4 204-5 217-23 217S0 795 0 404M1030 725c0-28 4-35 20-35 21 0 24 10 14 48-10 36-34 27-34-13M1040 645c0-28 4-35 20-35 21 0 24 10 14 48-10 36-34 27-34-13M804 654c3-9 6-22 6-30s10-14 25-14c18 0 25-5 25-20 0-13 7-20 20-20 11 0 20-7 20-15 0-11 11-15 36-15 19 0 33 4 30 8-7 13-152 122-161 122-4 0-4-7-1-16M1083 413c3-26 10-49 16-51s11-19 11-38c0-29 3-34 24-34 23 0 23 0-2 85-17 56-31 85-40 85-11 0-13-10-9-47M1355 250c-20-38-19-40 10-40 22 0 25 4 25 35 0 43-14 45-35 5M1200 115c0-33 2-35 35-35 34 0 34 0 10 26-14 15-25 31-25 35 0 5-4 9-10 9-5 0-10-16-10-35"/></g><g fill="#D2E7F9"><path d="M3 1303c3-489 9-898 13-910 3-13 12-23 20-23 11 0 14 127 16 758 3 757 3 757 30 814 25 54 112 151 181 203 53 39 38 45-119 45-147 0-147 0-141-887M1213 2158c21-17 54-55 73-85 35-55 35-55 23-134-8-55-15-79-25-79-8 0-14-4-14-10 0-5 15-10 33-10 33 0 33 0 45 103 7 56 12 135 12 175 0 72 0 72-92 72-93-1-93-1-55-32M2210 2178c0-19 11-30 59-63 59-40 124-130 150-207 20-60 21-80 21-575 0-430 2-513 14-513 22 0 26 33 26 218 0 104 4 171 9 167 5-3 12 4 16 15 3 11 11 20 16 20s9 188 9 475c0 475 0 475-160 475-121 0-160-3-160-12M1020 2005c0-175 0-175 35-175 24 0 35 5 35 15 0 8-7 15-15 15-13 0-15 24-15 160 0 153-1 160-20 160s-20-7-20-175"/><path d="M1246 2060c10-21 19-30 22-21 2 7-6 23-18 35-22 21-22 21-4-14M333 1890c-45-27-55-70-51-230 3-135 3-135 101-138 97-3 97-3 97 87 0 109 2 111 124 111 86 0 86 0 86 95s0 95-162 95c-144 0-167-2-195-20M2227.045 1745.275c0 113.776-92.234 206.01-206.01 206.01s-206.01-92.234-206.01-206.01 92.234-206.01 206.01-206.01 206.01 92.234 206.01 206.01M1030 1490c0-240 2-290 14-290 23 0 26 34 26 298 0 217 2 252 15 252 8 0 15 7 15 15 0 10-11 15-35 15-35 0-35 0-35-290M1250 1705c0-54 59-133 124-167 39-20 127-30 141-16 19 18-6 38-47 38-24 1-54 7-68 15s-37 14-52 15c-22 0-28 5-28 22 0 39-33 108-52 108-10 0-18-7-18-15M1656 1348c-10-38-7-48 14-48 16 0 20 7 20 35 0 40-24 49-34 13M375 1262c-120-89-130-100-133-132-3-34 1-39 68-88 53-40 70-59 70-77 0-22 5-25 34-25 43 0 96-42 96-76 0-20 5-24 33-24 42 0 107-51 107-85 0-20 6-24 38-27s37-7 40-30 8-28 32-28c18 0 42-12 64-31 20-17 41-29 47-27s-24 31-67 63c-260 198-526 409-531 422-3 7-3 16-1 18 7 8 375-274 598-458 84-69 95-76 98-57 5 32-5 50-28 50-11 0-20 7-20 15s-18 29-40 46c-29 24-40 40-40 60 0 37-22 129-30 129-4 0-10 18-14 40-3 22-10 40-15 40s-11 27-15 60-11 60-16 60c-6 0-10 12-10 28 0 50-11 72-35 72-16 0-26 9-36 33-7 17-19 38-26 45s-13 20-13 28-7 14-15 14-15 6-15 14c0 17-22 26-63 26-25 0-62-23-162-98m107-129c17-15 17-17 2-35-21-23-40-23-53-1-7 13-5 23 6 35 20 22 22 22 45 1M1917 1328c-8-35-46-137-74-198-40-88-41-93-47-143-3-27-13-58-21-70s-15-30-15-40-25-44-55-76-55-65-55-74c0-11-8-17-25-17-22 0-25-4-25-37 0-21 4-33 8-27 19 29 347 284 482 374 52 35 103 73 112 84 10 12 17 16 18 9 0-16-93-91-467-372-68-51-123-94-123-97 0-2 9-4 20-4s20 7 20 15c0 10 11 15 35 15 28 0 35 4 35 19 0 24 62 71 94 71 18 0 26 5 26 18 0 26 20 42 52 42 21 0 28 5 28 18 0 26 32 52 63 52 17 0 27 5 27 15 0 8 9 15 20 15 13 0 20 7 20 19 0 20 85 81 113 81 10 0 17 6 17 14s10 16 23 18c19 3 22 10 25 55 3 51 3 52-48 92-129 102-208 151-243 151-28 0-36-4-40-22m144.357-214.95c0-18.51-15.004-33.514-33.513-33.514-18.51 0-33.514 15.004-33.514 33.513 0 18.51 15.005 33.514 33.514 33.514s33.513-15.005 33.513-33.514M1016 1119c-3-17-6-83-6-145 0-107 1-114 20-114 17 0 19 7 19 53 0 28 3 94 6 145 7 87 6 92-13 92-14 0-21-9-26-31M1561 856c-15-60-14-66 8-66 19 0 31 34 31 86 0 41-27 27-39-20M1020 795c0-28 4-35 20-35 21 0 24 10 14 48-10 36-34 27-34-13M1030 715c0-28 4-35 20-35 21 0 24 10 14 48-10 36-34 27-34-13M287 693c-4-3-7-70-7-148 0-131 2-145 23-176 36-53 56-59 223-59 118 0 154 3 163 14 8 9 11 45 9 98-3 83-3 83-97 86-52 1-101 8-108 14-9 7-13 38-13 94 0 84 0 84-93 84-52 0-97-3-100-7M2227.607 479.703c0 112.16-90.923 203.083-203.082 203.083-112.16 0-203.083-90.923-203.083-203.083s90.923-203.083 203.083-203.083 203.082 90.924 203.082 203.083M1040 653c0-10 5-53 12-95 9-65 15-78 30-78 22 0 22-5 3 100-8 47-15 86-15 88 0 1-7 2-15 2s-15-8-15-17"/><path d="M892 588c3-7 13-15 24-17 16-3 17-1 5 13-16 19-34 21-29 4M987 553c5-12 2-15-10-10-13 5-17 1-17-18 0-22 4-25 35-25 33 0 35 2 35 35 0 31-3 35-25 35-19 0-23-4-18-17M1453 485c-11-33-10-35 13-35 21 0 24 5 24 35 0 22-5 35-13 35s-18-16-24-35M1100 355c0-19 5-35 10-35 6 0 10-13 10-30 0-25 4-30 24-30 24 0 24 0 2 65-23 71-46 86-46 30M1416 381c-3-4-10-20-15-35-10-24-8-26 14-26s25 4 25 35c0 33-12 46-24 26M2424 335c-3-25-10-45-15-45s-9-9-9-20-4-20-10-20c-5 0-10-7-10-15s-4-15-10-15c-5 0-10-11-10-25 0-18-5-25-20-25s-20-7-20-25c0-20-5-25-24-25-40 0-56-11-56-36 0-27 5-29 38-10 78 43 170 175 187 269 6 33 5 37-13 37-17 0-22-8-28-45M44 265C98 137 230 36 373 15c43-7 47-6 47 14 0 14-6 21-20 21-32 0-114 24-128 37-7 7-20 13-28 13s-14 5-14 10c0 6-9 10-20 10s-20 6-20 14-16 28-35 45-35 35-35 41c0 5-4 10-8 10s-14 16-21 35c-9 27-18 35-37 35-24 0-24-1-10-35M1150 218c0-43 12-61 38-56 21 3 21 3 2 46-23 50-40 54-40 10M1302 153c-41-71-38-69-61-49-21 19-21 19-21-17s1-37 35-37c33 0 35 2 35 35 0 31 3 35 25 35s25 4 25 35c0 45-11 44-38-2M2123 57c-32-8-43-16-43-30 0-17 5-18 43-12 54 9 107 31 107 44s-49 12-107-2"/></g><g fill="#BAE2F6"><path d="M1020 1638c-8-41-14-161-17-336-3-241-2-273 12-278 21-9 24-5 30 46 3 23 7 46 9 49 4 5 10 521 7 564 0 9-7 17-14 17-8 0-18-24-27-62M1450 1542c0-14 8-19 35-20 29-1 35 2 35 18s-7 20-35 20c-27 0-35-4-35-18"/></g><g fill="#BEDAF0"><path d="M235 2169c-22-11-49-29-60-40-19-19-19-19 18-19 26 0 37 4 37 15 0 9 9 15 25 15 20 0 25 5 25 25 0 14-1 25-3 25-1 0-20-9-42-21M980 2098c0-51 7-133 16-181 16-88 16-88 52-85 37 3 59 28 25 28-18 0-19 9-19 165 1 165 1 165-36 165-38 0-38 0-38-92M2200 2175c0-9 9-15 25-15 18 0 25-5 25-20 0-13 7-20 19-20 10 0 21-9 24-20s12-20 21-20 16-7 16-15c0-9 9-15 25-15 22 0 25-4 25-35 0-19 5-35 10-35 6 0 10-9 10-20 0-15 7-20 25-20 25 0 25 0 10 36-33 80-105 158-182 198-40 20-53 20-53 1M1168 2089c-29-16-21-29 17-29 28 0 35 4 35 20 0 22-24 26-52 9M1230 2062c0-17-7-37-15-46-21-21-19-46 4-46s51 36 51 66c0 11-9 29-20 39-20 18-20 17-20-13M1327 2038c-3-13-9-56-13-97-6-60-10-75-25-78-33-9-22-33 14-33 33 0 33 0 45 83 16 110 15 147-2 147-8 0-16-10-19-22M88 2033c-23-25-55-99-63-145-7-34-5-38 14-38 17 0 21 6 21 35 0 19 4 35 8 35 15 0 44 76 40 105-3 27-3 27-20 8M343 1904c-18-9-33-22-33-29 0-8-5-15-11-17s-13-25-16-51c-7-61 18-66 36-7 20 68 51 80 209 80 132 0 132 0 132-65s0-65-86-65c-47 0-94-5-105-10-26-14-25-50 1-50 11 0 20 5 20 10 0 6 37 10 91 10 116 0 119 3 119 113 0 68-3 86-16 91-9 3-82 6-162 6-114 0-154-4-179-16M1790 1885c0-24 5-35 15-35 8 0 15 7 15 15 0 13 23 15 146 15 146 0 146 0 174-30 16-17 31-44 35-60 9-43 35-39 35 5 0 19-4 35-10 35-5 0-10 9-10 20 0 13-7 20-20 20s-20 7-20 19c0 25-40 31-217 31-143 0-143 0-143-35M2430 1885c0-28 4-35 20-35 21 0 24 10 14 48-10 36-34 27-34-13M1220 1765c0-8 7-15 15-15 10 0 15-10 15-27 0-34 40-122 66-145 34-30 107-57 154-56 25 1 64-2 88-6 38-7 42-6 42 13 0 16-6 21-28 21-41 0-127 28-142 45-7 8-23 15-36 15s-39 8-58 18c-33 16-35 20-42 85-7 67-7 67-40 67-24 0-34-5-34-15M1800 1745c0-33 2-35 35-35 41 0 49 24 10 34-14 4-25 13-25 21s-4 15-10 15c-5 0-10-16-10-35M15 1470c-9-40 3-90 21-90 10 0 14 15 14 60s-4 60-14 60c-8 0-17-13-21-30M595 1430c-44-33-81-65-83-70-2-6-10-10-18-10s-14-4-14-10c0-5-7-10-15-10-9 0-18-7-21-15-4-8-13-15-20-15-8 0-17-7-20-15-4-8-12-15-20-15s-14-7-14-15-9-15-20-15-20-7-20-15-9-15-20-15-20-6-20-14-10-16-22-18c-19-2-24-10-26-40-4-43 17-53 33-16 13 30 267 216 273 200 2-7 9-9 14-6 7 5 8 2 4-5-5-8 0-14 13-18 12-3 20-11 18-17s5-19 16-28c11-10 20-29 20-43 0-13 3-22 8-19s9 1 9-5c0-5 8-17 17-27 10-9 18-22 20-28 1-6 6-24 9-41 4-16 12-33 18-37 7-5 6-8-4-9-10 0-9-3 4-8 12-5 20-20 23-41 2-19 8-37 14-40 6-4 11-22 13-39 1-18 8-36 16-41s13-26 13-54c0-25 3-46 7-46s8-6 7-12c-1-35 9-48 88-116 47-41 90-83 96-94 15-27 11-25-141 91-69 52-131 99-137 104-10 7-13 2-13-22s4-31 20-31c11 0 20-7 20-15s9-15 20-15 20-7 20-15 9-15 20-15 20-7 20-15c0-9 9-15 23-15 49 0 67-11 67-41 0-22 5-29 20-29 11 0 20-7 20-15 0-11 11-15 36-15 35 0 35 0 32 53-3 51-4 52-35 55-27 3-33 8-33 27 0 13-4 26-9 29s-11 23-14 43c-6 43-35 202-67 368-12 61-24 128-27 150s-9 45-13 50c-4 6-11 31-14 58-4 26-11 47-17 47-5 0-9 14-9 30 0 17-4 30-10 30-5 0-10 11-10 25 0 23-4 25-42 25-37 0-55-9-123-60M1666 1428c-10-38-7-48 14-48 16 0 20 7 20 35 0 40-24 49-34 13M1835 1353c-9-32-20-67-25-78-4-11-13-38-18-60-6-22-24-92-41-155-18-63-34-131-38-150-9-55-60-156-93-184-17-13-30-32-30-40 0-9-4-16-10-16-5 0-10-16-10-35 0-33 2-35 35-35 24 0 35 5 35 15 0 9 9 15 25 15s25 6 25 15c0 8 9 15 20 15 13 0 20 7 20 20 0 15 7 20 25 20 16 0 25 6 25 15 0 8 9 15 20 15 16 0 20 7 20 31s-3 29-12 22c-7-5-53-40-101-78-48-37-90-65-93-62-3 2 38 48 92 100 63 63 95 101 91 111-3 8 3 26 13 39 11 13 17 27 13 30-3 3 2 14 12 23 9 9 13 20 8 23-14 10-9 56 6 53 9-2 11 3 7 13-7 20 31 108 43 100 5-3 7 3 5 12-3 10 5 43 17 73 11 30 23 65 26 78 3 12 8 22 10 22 3 0 34-20 69-46 64-45 64-45 64-15 0 24-4 31-20 31-11 0-20 7-20 15s-7 15-15 15-15 5-15 10c0 6-7 10-15 10s-15 4-15 9c0 16-80 61-110 61-27 0-31-4-45-57M1646 1278c-10-38-7-48 14-48 16 0 20 7 20 35 0 40-24 49-34 13"/><path d="M417 1168c-13-13-26-31-30-41-11-31 27-87 59-87 12 0 2 51-11 56-8 4-15 17-15 30 0 22 4 24 45 24 47 0 58 12 26 30-30 15-48 12-74-12M1980 1170c-29-29-35-66-16-95 25-37 40-32 33 13-4 31-1 41 14 50 28 18 49 14 49-8 0-13 7-20 20-20 29 0 25 34-6 59-34 26-68 27-94 1M2198 1147c12-13 22-29 22-35 0-7 7-12 15-12 10 0 15 11 15 35 0 34-1 35-37 35s-36 0-15-23M1612 1083c-26-120-26-123-5-123 16 0 22 11 31 64 16 83 15 106-2 106-9 0-18-18-24-47"/><path d="M2047 1093c-11-10-8-53 3-53 13 0 50 37 50 50 0 11-43 14-53 3M290 1041c0-26 4-31 25-31 18 0 25-5 25-20 0-17 7-20 38-20 37 1 37 1 2 31-19 17-47 39-62 50-28 20-28 20-28-10M2113 1014c-40-30-73-57-73-59 0-3 16-5 35-5 24 0 35 5 35 15 0 8 9 15 20 15s20 7 20 15 9 15 20 15c16 0 20 7 20 30 0 17-1 30-2 30-2 0-36-25-75-56M430 931c0-24 4-31 20-31 11 0 20-7 20-15 0-9 9-15 25-15 18 0 25-5 25-20 0-13 7-20 20-20 11 0 20-7 20-15 0-10 11-15 35-15 19 0 35 2 35 4 0 3-79 66-187 149-10 7-13 2-13-22M1963 899c-29-22-53-42-53-44 0-3 16-5 35-5 24 0 35 5 35 15 0 8 9 15 20 15 16 0 20 7 20 30 0 17-1 30-2 30-2 0-27-18-55-41M1010 885c0-28 4-35 20-35 21 0 24 10 14 48-10 36-34 27-34-13M1020 785c0-28 4-35 20-35 21 0 24 10 14 48-10 36-34 27-34-13M1030 705c0-28 4-35 20-35 21 0 24 10 14 48-10 36-34 27-34-13M280 665c0-39 24-50 33-15 3 11 12 20 21 20s16 7 16 15c0 10-11 15-35 15-33 0-35-2-35-35M2140 685c0-8 7-15 16-15s18-9 21-20c9-35 33-24 33 15 0 33-2 35-35 35-24 0-35-5-35-15M1506 658c-10-38-7-48 14-48 16 0 20 7 20 35 0 40-24 49-34 13M1040 641c0-10 3-39 6-65 5-37 11-46 26-46 21 0 21 5 2 103-6 30-34 37-34 8M450 567c0-70 10-87 52-87 21 0 28 5 28 20 0 13-7 20-20 20-18 0-20 7-20 55s-2 55-20 55-20-7-20-63M1459 500c-26-80-26-80-3-80 20 0 24 5 24 29 0 16 5 31 11 33s13 25 16 51c4 36 2 47-8 47-9 0-24-30-40-80M1070 465c0-28 4-35 20-35 21 0 24 10 14 48-10 36-34 27-34-13M1780 421c0-102 4-111 46-111 38 0 48 24 14 33-17 4-20 14-20 71 0 52 3 66 15 66 8 0 15 5 15 10 0 6-16 10-35 10-35 0-35 0-35-79M2173 435c-11-33-10-35 13-35 21 0 24 5 24 35 0 22-5 35-13 35s-18-16-24-35M290 405c0-32 2-35 30-35 29 0 29 0 9 35-12 19-25 35-30 35s-9-16-9-35M1426 401c-3-4-10-20-15-35-10-24-8-26 14-26s25 4 25 35c0 33-12 46-24 26M667 369c-3-11-15-23-26-26-12-3-21-12-21-20 0-10 10-13 38-11 35 3 37 5 40 41 2 27-1 37-11 37-8 0-17-9-20-21M2430 355c0-40 24-49 34-12s7 47-14 47c-16 0-20-7-20-35M2103 355c-51-24-56-45-10-45 43 0 59 12 55 41-3 24-3 24-45 4M25 333c12-66 45-102 45-49 0 54-12 86-32 86-18 0-19-4-13-37M360 334c0-21 5-24 35-24 22 0 35 5 35 13s-16 18-35 24c-33 11-35 10-35-13M1360 259c-16-34-30-63-30-65s11-4 25-4c16 0 25 6 25 16 0 8 7 22 15 30 17 17 21 84 5 84-5 0-23-27-40-61M2390 235c0-53 13-46 48 28 2 4-8 7-22 7-23 0-26-4-26-35M1286 124c-21-33-31-42-37-32-7 10-9 9-9-4 0-14 8-18 35-18 24 0 35 5 35 15 0 8 5 15 10 15 6 0 10 16 10 35s-3 35-7 35c-5 0-21-21-37-46M2270 105c0-31 11-32 47 0 28 24 28 24-9 25-34 0-38-3-38-25M2180 55c0-24 1-25 32-12 46 19 48 37 4 37-32 0-36-3-36-25M2070 30c0-21 10-24 48-14 36 10 27 34-13 34-28 0-35-4-35-20"/></g><g fill="#AFD6EB"><path d="M1330 2140c0-43 3-50 20-50s20 7 20 50-3 50-20 50-20-7-20-50M2230 2155c0-22 4-25 35-25 43 0 44 10 6 33-38 22-41 22-41-8M2312 2099c3-30 7-34 37-37 32-3 33-3 18 18-8 12-25 29-37 37-21 15-21 14-18-18M1326 1998c-10-38-7-48 14-48 16 0 20 7 20 35 0 40-24 49-34 13M997 1773c-4-3-7-118-7-255 0-241 1-248 20-248s20 7 21 113c1 125 2 144 18 202 6 22 11 68 11 103 0 48 3 62 15 62 8 0 15 7 15 15 0 11-11 15-43 15-24 0-47-3-50-7M1260 1696c0-54 58-123 98-118 13 2 32-4 42-13 18-16 99-45 127-45 7 0 13 9 13 20 0 12-7 20-16 20-50 0-136 63-173 126-3 6-25 15-48 19-36 6-43 4-43-9M610 1419c0-30 0-30 30-9 44 31 45 40 6 40-33 0-36-2-36-31M1836 1393c-2-10-10-44-16-75-6-32-15-58-19-58-8 0-23-51-45-155-7-33-20-76-28-95-9-19-23-66-33-105-9-38-25-90-36-114-10-24-19-58-19-75 1-31 1-31 30 3 34 40 61 107 86 214 10 42 21 77 25 77 3 0 6 8 6 18-1 25 14 94 25 116 6 10 12 33 14 50 3 17 9 40 14 51s16 46 25 78c13 49 18 57 31 47 12-10 14-8 14 14 0 23-4 26-34 26-24 0-36-5-40-17M530 1375c0-8-9-15-20-15-16 0-20-7-20-31 0-30 0-30 45 2 69 50 74 59 31 59-25 0-36-4-36-15M767 1314c9-4 10-11 3-24s-4-22 10-35c11-10 17-22 14-26-3-5 2-9 11-9 13 0 16 9 13 48-3 44-5 47-33 49-16 1-24 0-18-3M2058 1258c6-7 44-38 86-68 41-30 76-61 76-67 0-7 5-13 10-13 6 0 10 16 10 35 0 28-4 35-20 35-11 0-20 7-20 15s-9 15-20 15-20 7-20 15-9 15-20 15-20 7-20 15c0 11-11 15-36 15-28 0-34-3-26-12M797 1204c-10-10 14-64 29-64 9 0 14 12 14 35 0 27-4 35-18 35-10 0-21-3-25-6M260 1170c0-11-7-20-15-20-10 0-15-11-15-35 0-30 3-35 24-35 20 0 22 4 18 26-4 20 3 32 29 54 34 29 34 29-3 30-31 0-38-3-38-20M407 1162c-23-26-22-52 3-52 16 0 20 7 20 35 0 40-1 41-23 17M490 1132c0-45-3-52-20-52-13 0-20-7-20-20 0-27 31-26 58 3 28 29 29 78 2 102-20 18-20 17-20-33M1958 1133c-6-27 12-72 32-83 31-17 65-11 88 13 28 29 29 57 2 57-13 0-20-7-20-20s-7-20-17-20c-27 1-53 25-53 49 0 25-27 28-32 4M1000 1040c0-43 3-50 20-50 15 0 20 7 20 28 0 42-11 72-26 72-10 0-14-14-14-50M1010 875c0-28 4-35 20-35 21 0 24 10 14 48-10 36-34 27-34-13M870 831c0-30 11-51 26-51 9 0 14 12 14 35 0 28-4 35-20 35-13 0-20-7-20-19M610 791c0-29 3-31 36-31 39 0 38 9-6 40-30 21-30 21-30-9M1546 798c-10-38-7-48 14-48 16 0 20 7 20 35 0 40-24 49-34 13M884 743c4-16 9-44 12-63 3-26 18-48 55-83 50-48 50-48 47-10-2 29-8 39-23 41-20 3-31 28-50 115-4 19-12 27-26 27-18 0-20-4-15-27M420 680c0-5 7-10 15-10 10 0 15-11 16-32 1-31 5-88 8-115 0-7 8-13 16-13 12 0 15 17 15 90 0 90 0 90-35 90-19 0-35-4-35-10M870 591c0-25 4-31 23-31 12 0 33-3 47-7 24-6 24-6-5 18-68 56-65 55-65 20M1486 588c-10-38-7-48 14-48 16 0 20 7 20 35 0 40-24 49-34 13M1980 499c0-15 5-20 22-17 34 5 37 38 4 38-20 0-26-5-26-21M2161 405c-20-35-20-35 9-35 28 0 30 3 30 35 0 19-4 35-9 35s-18-16-30-35M1090 385c0-28 4-35 20-35 21 0 24 10 14 48-10 36-34 27-34-13M310 375c0-34 1-35 37-35 37 0 37 0 3 35-19 19-35 35-37 35s-3-16-3-35M1396 331c-3-4-10-20-15-35-10-24-8-26 14-26s25 4 25 35c0 33-12 46-24 26M1130 266c0-32 3-36 25-36 24 0 25 1 12 32-19 46-37 48-37 4M1337 211c-22-38-22-41 8-41 22 0 25 4 25 35 0 43-10 44-33 6M1180 145c0-31 3-35 25-35 29 0 30 2 10 40-21 40-35 38-35-5M150 125c0-7 81-65 92-65 4 0 8 11 8 25 0 16-6 25-15 25-8 0-15 5-15 10 0 6-16 10-35 10s-35-2-35-5M2135 60c-11-5-32-9-47-9-21-1-28-6-28-22 0-18 4-20 48-13 57 8 112 29 112 43 0 13-56 13-85 1M300 46c0-14 11-18 93-32 32-5 37-4 37 14 0 15-9 21-46 26-69 9-84 8-84-8"/></g><g fill="#8CB3D2"><path d="M1336 2113c-12-152-29-253-43-253-7 0-13-7-13-16 0-11 9-14 36-12 35 3 37 6 56 63 15 44 20 90 22 175 1 115 1 115-26 118-26 3-26 2-32-75M2210 2165c0-20 5-25 25-25 16 0 25-6 25-15 0-11 11-15 36-15 41 0 38 11-14 44-61 37-72 39-72 11M180 2130c-35-29-35-29 3-30 35 0 37 2 37 30 0 17-1 30-3 30-1 0-18-13-37-30M1180 2093c-42-15-54-78-20-108 20-18 20-17 20 16 0 41 15 59 47 59 28 0 30 16 4 30-21 11-28 11-51 3M103 2051c-40-53-41-61-8-61 15 0 25 6 25 14s5 16 11 18 9 19 7 38c-3 35-3 35-35-9M2360 2046c0-25 4-36 15-36 9 0 15-9 15-25 0-14 4-25 8-25s14-27 21-60c11-47 17-60 32-60 11 0 19 7 19 15 0 28-40 136-65 175-34 54-45 58-45 16"/><path d="M1230 2015c0-39 6-43 26-17s17 52-6 52c-16 0-20-7-20-35M980 2019c0-11 5-51 11-90 10-56 15-69 30-69 23 0 23-4 4 93-8 43-15 81-15 83s-7 4-15 4-15-9-15-21M40 1941c-16-31-12-51 10-51 16 0 20 7 20 35 0 39-14 46-30 16M366 1920c-33-10-66-42-66-65 0-8-4-15-10-15-5 0-10-16-10-35 0-24 5-35 15-35 8 0 15 5 15 11s7 26 16 44c24 52 64 65 197 65 123 0 147-4 147-26 0-8 5-14 10-14 17 0 12 67-6 74-24 9-275 6-308-4M1820 1916c0-9-8-16-20-16-18 0-20-7-20-85 0-85 0-85 38-85 30 1 34 3 20 11-15 8-18 24-18 81 0 70 0 70 144 66 157-4 170-8 202-70 20-38 34-35 34 7 0 24-5 35-15 35-8 0-15 9-15 20 0 13-7 20-19 20-11 0-21 6-23 12-3 9-47 14-156 16-135 4-152 2-152-12M670 1775c0-8-9-20-20-27-29-19-24-28 15-28 33 0 35 2 35 35 0 24-5 35-15 35-8 0-15-7-15-15M990 1745c0-39 24-50 33-15 3 11 12 20 21 20s16 7 16 15c0 10-11 15-35 15-33 0-35-2-35-35M1227 1773c-13-12-7-23 11-23 13 0 18-9 20-32 3-39 18-58 42-53 12 2 21-3 25-15 8-25 80-89 119-105 26-11 191-45 219-45 4 0 7 8 7 19 0 15-10 20-57 26-68 8-183 44-183 56 0 5-11 9-25 9-19 0-25 5-25 23 0 12-7 30-15 41-8 10-17 38-21 62-6 44-6 44-58 44-29 0-56-3-59-7M456 1724c-3-9-6-51-6-95 0-64-3-79-15-79-8 0-15-4-15-10 0-5 16-10 35-10 35 0 35 0 35 105 0 83-3 105-14 105-8 0-17-7-20-16M1990 1720c0-13 7-20 20-20s20 7 20 20-7 20-20 20-20-7-20-20M2000 1555c0-33 2-35 35-35 39 0 50 24 15 33-11 3-20 12-20 21s-7 16-15 16c-10 0-15-11-15-35M725 1529c-38-27-71-54-73-59-2-6-10-10-18-10-9 0-14-11-14-30 0-31 0-31 44 0 56 38 68 38 61 0-4-24-2-28 11-23s15-1 14-28c-3-49-1-56 11-39 8 12 9 10 4-7-4-15-2-23 6-23 7 0 9-3 6-7-4-3-2-12 3-19 6-6 13-32 15-55 2-24 4-44 5-44 3 0 12-41 15-65 1-14 5-32 8-40 6-16 47-236 53-285 2-16 9-46 14-65s12-48 15-64 23-46 44-65c35-33 59-71 45-71-5 0-33 21-151 113-10 7-13 2-13-22 0-28 3-31 33-31 38 0 57-15 57-46 0-22 30-34 86-34 21 0 24 5 24 35 0 19-4 35-8 35-5 0-14 46-21 103-13 103-40 239-67 332-18 64-61 352-70 473-7 92-7 92-38 92-21-1-54-17-101-51"/><path d="M1776 1401c-4-35-19-84-36-118-16-32-30-66-30-77 0-10-4-35-10-55-5-20-23-97-39-171-17-75-41-171-55-215s-26-99-26-122c0-42 0-43 35-43 29 0 35 4 35 20 0 31 49 69 88 70 22 0 32 5 32 15 0 8 9 15 20 15 16 0 20 7 20 31s-3 29-12 22c-7-5-42-32-78-60-36-27-78-58-94-69-29-18-29-18-16 6 7 14 22 31 32 38 32 23 84 152 102 253 2 15 11 40 19 55 8 16 17 45 20 64 11 63 16 82 27 94 5 7 7 16 3 19-3 4-1 13 6 21 6 8 11 18 9 22-1 5 3 18 9 29s14 41 18 66c11 77 15 78 92 24 37-27 83-60 101-73 32-24 32-24 32 7 0 24-4 31-20 31-11 0-20 7-20 15s-7 15-15 15-15 5-15 10c0 6-9 10-20 10s-20 7-20 15-9 15-20 15-20 7-20 15-9 15-20 15-20 7-20 15-9 15-20 15-20 7-20 15-9 15-20 15-20 7-20 15-9 15-20 15-20 7-20 15-9 15-20 15-20 7-20 15-9 15-20 15-20 7-20 15-9 15-20 15-20 7-20 15-9 15-20 15-20 7-20 15-9 15-20 15-20 7-20 15-9 15-20 15-20 7-20 15-9 15-20 15-20 7-20 15-9 15-20 15-20 7-20 15-9 15-20 15-20 7-20 15-9 15-20 15-20 7-20 15-9 15-20 15-20 7-20 15-9 15-20 15-20 7-20 15-9 15-20 15-20 7-20 15-9 15-20 15-20 7-20 15-9 15-20 15-20 7-20 15-9 15-20 15-20 7-20 15-9 15-20 15-20 7-20 15-9 15-20 15-20 7-20 15-9 15-20 15-20 7-20 15-9 15-20 15-20 7-20 15-9 15-20 15-20 7-20 15-9 15-20 15-20 7-20 15-9 15-20 15-20 7-20 15-9 15-20 15-20 7-20 15-9 15-20 15-20 7-20 15-9 15-20 15-20 7-20 15-9 15-20 15-20 7-20 15-9 15-20 15-20 7-20 15-9 15-20 15-20 7-20 15-9 15-20 15-20 7-20 15-9 15-20 15-20 7-20 15-9 15-20 15-20 7-20 15-9 15-20 15-20 7-20 15-9 15-20 15-20 7-20 15-9 15-20 15-20 7-20 15-9 15-20 15-20 7-20 15-9 15-20 15-20 7-20 15-9 15-20 15-20 7-20 15-9 15-20 15-20 7-20 15-9 15-20 15-20 7-20 15-9 15-20 15-20 7-20 15-9 15-20 15-20 7-20 15-9 15-20 15-20 7-20 15-9 15-20 15-20 7-20 15-9 15-20 15-20 7-20 15-9 15-20 15-20 7-20 15-9 15-20 15-20 7-20 15-9 15-20 15-20 7-20 15-9 15-20 15-20 7-20 15-9 15-20 15-20 7-20 15-9 15-20 15-20 7-20 15-9 15-20 15-20 7-20 15-9 15-20 15-20 7-20 15-9 15-20 15-20 7-20 15-9 15-20 15-20 7-20 15-9 15-20 15-20 7-20 15-9 15-20 15-20 7-20 15-9 15-20 15-20 7-20 15-9 15-20 15-20 7-20 15-9 15-20 15-20 7-20 15-9 15-20 15-20 7-20 15-9 15-20 15-20 7-20 15-9 15-20 15-20 7-20 15-9 15-20 15-20 7-20 15-9 15-20 15-20 7-20 15-9 15-20 15-20 7-20 15-9 15-20 15-20 7-20 15-9 15-20 15-20 7-20 15-9 15-20 15-20 7-20 15-9 15-20 15-20 7-20 15-9 15-20 15-20 7-20 15-9 15-20 15-20 7-20 15-9 15-20 15-20 7-20 15-9 15-20 15-20 7-20 15-9 15-20 15-20 7-20 15-9 15-20 15-20 7-20 15-9 15-20 15-20 7-20 15-9 15-20 15-20 7-20 15-9 15-20 15-20 7-20 15-9 15-20 15-20 7-20 15-9 15-20 15-20 7-20 15-9 15-20 15-20 7-20 15-9 15-20 15-20 7-20 15-9 15-20 15-20 7-20 15-9 15-20 15-20 7-20 15-9 15-20 15-20 7-20 15-9 15-20 15-20 7-20 15-9 15-20 15-20 7-20 15-9 15-20 15-20 7-20 15-9 15-20 15-20 7-20 15-9 15-20 15-20 7-20 15-9 15-20 15-20 7-20 15-9 15-20 15-20 7-20 15-9 15-20 15-20 7-20 15-9 15-20 15-20 7-20 15-9 15-20 15-20 7-20 15-9 15-20 15-20 7-20 15-9 15-20 15-20 7-20 15-9 15-20 15-20 7-20 15-9 15-20 15-20 7-20 15-9 15-20 15-20 7-20 15-9 15-20 15-20 7-20 15-9 15-20 15-20 7-20 15-9 15-20 15-20 7-20 15-9 15-20 15-20 7-20 15-9 15-20 15-20 7-20 15-9 15-20 15-20 7-20 15-9 15-20 15-20 7-20 15-9 15-20 15-20 7-20 15-9 15-20 15-20 7-20 15-9 15-20 15-20 7-20 15-9 15-20 15-20 7-20 15-9 15-20 15-20 7-20 15-9 15-20 15-20 7-20 15-9 15-20 15-20 7-20 15-9 15-20 15-20 7-20 15-9 15-20 15-20 7-20 15-9 15-20 15-20 7-20 15-9 15-20 15-20 7-20 15-9 15-20 15-20 7-20 15-9 15-20 15-20 7-20 15-9 15-20 15-20 7-20 15-9 15-20 15-20 7-20 15-9 15-20 15-20 7-20 15-9 15-20 15-20 7-20 15-9 15-20 15-20 7-20 15-9 15-20 15-20 7-20 15-9 15-20 15-20 7-20 15-9 15-20 15-20 7-20 15-9 15-20 15-20 7-20 15-9 15-20 15-20 7-20 15-9 15-20 15-20 7-20 15-9 15-20 15-20 7-20 15-9 15-20 15-20 7-20 15-9 15-20 15-20 7-20 15-9 15-20 15-20 7-20 15-9 15-20 15-20 7-20 15-9 15-20 15-20 7-20 15-9 15-20 15-20 7-20 15-9 15-20 15-20 7-20 15-9 15-20 15-20 7-20 15-9 15-20 15-20 7-20 15-9 15-20 15-20 7-20 15-9 15-20 15-20 7-20 15-9 15-20 15-20 7-20 15-9 15-20 15-20 7-20 15-9 15-20 15-20 7-20 15-9 15-20 15-20 7-20 15-9 15-20 15-20 7-20 15-9 15-20 15-20 7-20 15-9 15-20 15-20 7-20 15-9 15-20 15-20 7-20 15-9 15-20 15-20 7-20 15-9 15-20 15-20 7-20 15-9 15-20 15-20 7-20 15-9 15-20 15-20 7-20 15-9 15-20 15-20 7-20 15-9 15-20 15-20 7-20 15-9 15-20 15-20 7-20 15-9 15-20 15-20 7-20 15-9 15-20 15-20 7-20 15-9 15-20 15-20 7-20 15-9 15-20 15-20 7-20 15-9 15-20 15-20 7-20 15-9 15-20 15-20 7-20 15-9 15-20 15-20 7-20 15-9 15-20 15-20 7-20 15-9 15-20 15-20 7-20 15-9 15-20 15-20 7-20 15-9 15-20 15-20 7-20 15-9 15-20 15-20 7-20 15-9 15-20 15-20 7-20 15-9 15-20 15-20 7-20 15-9 15-20 15-20 7-20 15-9 15-20 15-20 7-20 15-9 15-20 15-20 7-20 15-9 15-20 15-20 7-20 15-9 15-20 15-20 7-20 15-9 15-20 15-20 7-20 15-9 15-20 15-20 7-20 15-9 15-20 15-20 7-20 15-9 15-20 15-20 7-20 15-9 15-20 15-20 7-20 15-9 15-20 15-20 7-20 15-9 15-20 15-20 7-20 15-9 15-20 15-20 7-20 15-9 15-20 15-20 7-20 15-9 15-20 15-20 7-20 15-9 15-20 15-20 7-20 15-9 15-20 15-20 7-20 15-9 15-20 15-20 7-20 15-9 15-20 15-20 7-20 15-9 15-20 15-20 7-20 15-9 15-20 15-20 7-20 15-9 15-20 15-20 7-20 15-9 15-20 15-20 7-20 15-9 15-20 15-20 7-20 15-9 15-20 15-20 7-20 15-9 15-20 15-20 7-20 15-9 15-20 15-20 7-20 15-9 15-20 15-20 7-20 15-9 15-20 15-20 7-20 15-9 15-20 15-20 7-20 15-9 15-20 15-20 7-20 15-9 15-20 15-20 7-20 15-9 15-20 15-20 7-20 15-9 15-20 15-20 7-20 15-9 15-20 15-20 7-20 15-9 15-20 15-20 7-20 15-9 15-20 15-20 7-20 15-9 15-20 15-20 7-20 15-9 15-20 15-20 7-20 15-9 15-20 15-20 7-20 15-9 15-20 15-20 7-20 15-9 15-20 15-20 7-20 15-9 15-20 15c-11-15 15-8 0-15 5-15 10 0 6-9 10-20 10-11 0-20 7-20 15 0 8-7 15-15 15-8 0-15 5-15 10 0 6-6 10-14 10-8 0-16 4-18 8-8 19-69 52-96 52-29 0-30M500 1355c0-8-9-15-20-15s-20-7-20-15-9-15-20-15-20-7-20-15-9-15-20-15-20-7-20-15-9-15-20-15-20-7-20-15-9-15-20-15c-16 0-20-7-20-31s3-29 13-22c6 6 67 51 135 102 67 50 122 94 122 96 0 3-16 5-35 5-24 0-35-5-35-15"/><path d="M1656 1328c-3-18-13-73-21-123-18-111-19-105 3-105 16 0 21 16 35 113 21 136 21 147 2 147-8 0-16-13-19-32M990 1270c0-53 2-60 20-60 16 0 20 7 20 38 0 52-10 82-26 82-10 0-14-16-14-60M431 1177c-47-24-37-37 28-37 60 0 73 8 49 28-24 18-53 22-77 9M1987 1170c-32-26-36-60-7-60 13 0 20 7 20 20 0 18 5 19 45 13 45-6 58 4 32 25-27 23-62 24-90 2M230 1105c0-32 2-35 31-35s29 1 15 21c-8 12-12 28-9 35 3 9-2 14-16 14-17 0-21-6-21-35M390 1102c0-23 40-62 63-62 10 0 17 8 17 20 0 13-7 20-20 20s-20 7-20 20-7 20-20 20-20-7-20-18M2190 1074c-35-34-35-34 3-34 36 0 37 1 37 35 0 19-1 35-2 34-2-1-19-16-38-35M300 1031c0-29 3-31 36-31 39 0 38 9-6 40-30 21-30 21-30-9M1000 1015c0-28 4-35 20-35 21 0 24 10 14 48-10 36-34 27-34-13M2063 974c-40-30-73-57-73-59 0-3 16-5 35-5 24 0 35 5 35 15 0 8 9 15 20 15s20 7 20 15 9 15 20 15c16 0 20 7 20 30 0 17-1 30-2 30-2 0-36-25-75-56M390 961c0-29 3-31 36-31 39 0 38 9-6 40-30 21-30 21-30-9M1581 936c-15-60-14-66 8-66 19 0 31 34 31 86 0 41-27 27-39-20M480 891c0-29 3-31 36-31 39 0 38 9-6 40-30 21-30 21-30-9M1010 865c0-28 4-35 20-35 21 0 24 10 14 48-10 36-34 27-34-13M570 821c0-29 3-31 36-31 39 0 38 9-6 40-30 21-30 21-30-9M1850 810c-35-29-35-29 3-30 35 0 37 2 37 30 0 17-1 30-3 30-1 0-18-13-37-30M1020 775c0-28 4-35 20-35 21 0 24 10 14 48-10 36-34 27-34-13M660 751c0-29 3-31 36-31 39 0 38 9-6 40-30 21-30 21-30-9M1527 720c-21-76-21-80 3-80 16 0 20 7 20 35 0 19 5 35 10 35 6 0 10 16 10 35 0 57-25 43-43-25M1030 695c0-28 4-35 20-35 21 0 24 10 14 48-10 36-34 27-34-13M2010 675c0-19 5-35 10-35 6 0 10 7 10 15 0 12 15 15 74 15 63 0 75-3 79-17 3-10 5-1 6 20 1 37 1 37-89 37s-90 0-90-35M420 685c0-8 7-15 16-15s18-9 21-20c9-35 33-24 33 15 0 33-2 35-35 35-24 0-35-5-35-15M272 538c2-100 7-143 16-146 6-2 12-10 12-19 0-24 26-43 59-43 37 0 40 12 6 30-43 23-55 66-55 193 0 102 2 116 18 120 9 3 0 5-22 6-38 1-38 1-34-141M1050 568c0-59 13-98 31-98 22 0 22 3 8 70-11 51-39 72-39 28M470 506c0-19 32-26 118-26 65 0 74-2 79-20 9-34 33-24 33 14 0 43-8 46-131 46-78 0-99-3-99-14M1810 498c0-22 3-23 87-20 108 3 133 8 133 27 0 12-20 15-110 15-107 0-110-1-110-22M1446 451c-3-4-10-20-15-35-10-24-8-26 14-26s25 4 25 35c0 33-12 46-24 26M1080 415c0-28 4-35 20-35 21 0 24 10 14 48-10 36-34 27-34-13M2140 375c-34-35-34-35 3-35 36 0 37 1 37 35 0 19-1 35-3 35s-18-16-37-35M2422 347c-15-65-15-97-1-97 13 0 35 53 44 108 6 37 4 42-12 42-14 0-21-12-31-53M1110 315c0-30 3-35 24-35 23 0 24 2 13 35-6 19-16 35-24 35s-13-13-13-35M41 283c15-40 55-108 73-123 14-11 16-8 16 24 0 20-4 36-10 36-5 0-10 7-10 15s-7 15-15 15q-15 0-15 30c0 25-4 30-25 30-23 0-24-2-14-27"/><path d="M1140 236c0-25 4-36 15-36 10 0 15-11 15-35 0-19 5-35 10-35 6 0 10-9 10-20s5-20 10-20c6 0 10-7 10-15 0-10 11-15 35-15 29 0 35 4 35 21s-3 19-13 11c-15-13-37 18-78 112-30 71-49 83-49 32M2370 225c0-8-4-15-10-15-5 0-10-16-10-35 0-33-2-35-35-35-28 0-35-4-35-20 0-14-7-20-24-20-39 0-56-11-56-36 0-21 3-22 28-13 41 14 122 79 159 127 40 52 41 62 8 62-16 0-25-6-25-15M1327 191c-22-38-22-41 8-41 22 0 25 4 25 35 0 43-10 44-33 6M240 69c0-11 60-39 85-39 24 0 18 37-7 44-36 9-78 7-78-5M370 36c0-7 10-16 23-20 41-11 57-7 57 14 0 17-7 20-40 20-27 0-40-4-40-14M2050 30c0-21 10-24 48-14 36 10 27 34-13 34-28 0-35-4-35-20"/></g><g fill="#82A9CA" ><path d="M239 2170c-19-10-41-26-48-34-12-14-9-16 23-16 29 0 36 4 36 20 0 15 7 20 25 20 16 0 25 6 25 15 0 20-17 18-61-5M1360 2178c0-30 13-58 26-58 9 0 14 12 14 35 0 28-4 35-20 35-11 0-20-6-20-12M118 2070c-28-35-28-35-2-38 33-4 36-1 32 39-3 34-3 34-30-1M1178 2089c-29-16-21-29 17-29 28 0 35-4 35-20 0-11-4-20-10-20-5 0-10-11-10-25 0-28 12-32 34-10 25 25 29 54 12 80-9 14-20 25-25 25s-15 2-23 5c-7 2-21 0-30-6M1366 2028c-10-38-7-48 14-48 16 0 20 7 20 35 0 40-24 49-34 13M980 1995c0-28 4-35 20-35 21 0 24 10 14 48-10 36-34 27-34-13M1338 1918c-11-41-20-54-39-59-21-6-20-7 9-8 44-1 63 20 70 75 4 35 1 44-10 44-10 0-21-19-30-52M420 1915c0-15 4-17 50-17 48-1 60 2 60 17 0 12-13 15-55 15s-55-3-55-15M1810 1898c0-19 4-28 8-21 4 6 20 15 35 18 40 10 35 35-8 35-33 0-35-2-35-32M2020 1915c0-8 14-17 38-21 67-12 105-44 117-96 10-41 35-36 35 7 0 24-5 35-15 35-9 0-15 9-15 25 0 18-5 25-20 25-11 0-20 6-20 14 0 14-42 26-91 26-19 0-29-5-29-15M1000 1885c0-34 1-35 38-34 20 1 29 3 20 6-9 2-20 17-23 34-9 42-35 38-35-6M26 1888c-10-38-7-48 14-48 16 0 20 7 20 35 0 40-24 49-34 13M460 1720c0-13 7-20 20-20s20 7 20 20-7 20-20 20-20-7-20-20M1320 1682c0-18 54-102 65-102 3 0 5 16 5 35 0 24-5 35-15 35-9 0-15 9-15 25 0 18-5 25-20 25-13 0-20-7-20-18M270 1605c0-65 0-65 38-65 30 1 34 3 20 11s-18 23-18 64c0 48-2 55-20 55s-20-7-20-65M812 1590c-12-11-26-20-32-20-5 0-10-11-10-25 0-22-4-25-35-25-32 0-35-2-35-31 0-30 0-30 64 15 63 46 63 46 60-15-3-41 0-58 7-53 7 4 9-10 5-45-3-30-2-51 4-51 5 0 9-10 9-22 0-13 3-43 7-68s7-62 8-82c1-21 5-38 9-38 5 0 7-8 6-17-1-10 1-29 4-43 4-14 9-37 11-52 2-14 9-35 14-45 6-10 10-25 9-33s4-35 11-60 17-64 24-87c12-49 38-59 38-15 0 34-17 170-30 242-50 278-72 462-64 532 7 58 7 58-28 58-20 0-43-8-56-20M1732 1385c-14-119-61-364-97-507-28-110-31-148-11-148 15 0 23 26 66 220 17 74 35 151 40 171 6 20 10 45 10 55 0 11 14 45 30 77 17 34 32 83 36 117 6 59 6 59 50 29s44-30 44 1q0 30-15 30c-8 0-15 5-15 10 0 6-4 10-10 10-5 0-19 9-30 20-12 12-33 20-53 20-33 0-33 0-45-105M1666 1418c-10-38-7-48 14-48 16 0 20 7 20 35 0 40-24 49-34 13M580 1415c0-8-9-15-20-15-16 0-20-7-20-31 0-30 0-30 45 2 69 50 74 59 31 59-25 0-36-4-36-15M1935 1350c3-5 19-19 35-30 30-21 30-21 30 9 0 29-3 31-36 31-20 0-33-4-29-10M990 1225c0-38 3-45 20-45 21 0 26 23 14 68-11 41-34 26-34-23M2085 1241c3-5 35-31 70-57 83-61 84-77 10-133-30-23-55-44-55-46 0-3 16-5 35-5 24 0 35 5 35 15 0 8 9 15 20 15 15 0 20 7 20 25s5 25 20 25c16 0 20 7 20 35 0 24-5 35-15 35-8 0-15 9-15 20 0 13-7 20-20 20-11 0-20 7-20 15s-9 15-20 15-20 7-20 15c0 11-11 15-36 15-19 0-33-4-29-9M242 1083c3-36 5-38 42-41 40-3 40-3 5 36-19 22-38 41-42 41-5 1-7-16-5-36M1616 1098c-10-38-7-48 14-48 16 0 20 7 20 35 0 40-24 49-34 13M1000 1005c0-28 4-35 20-35 21 0 24 10 14 48-10 36-34 27-34-13M350 991c0-29 3-31 36-31 39 0 38 9-6 40-30 21-30 21-30-9M1933 874c-40-30-73-57-73-59 0-3 16-5 35-5 24 0 35 5 35 15 0 8 9 15 20 15s20 7 20 15 9 15 20 15c16 0 20 7 20 30 0 17-1 30-2 30-2 0-36-25-75-56M1541 768c-26-100-26-98-1-98 16 0 20 7 20 34 0 19 5 36 10 38 6 2 13 27 17 56 5 42 3 52-9 52-10 0-22-26-37-82M620 781c0-29 3-31 36-31 39 0 38 9-6 40-30 21-30 21-30-9M1810 780c-35-29-35-29 3-30 35 0 37 2 37 30 0 17-1 30-3 30-1 0-18-13-37-30M1020 765c0-28 4-35 20-35 21 0 24 10 14 48-10 36-34 27-34-13"/><path d="M960 729c0-29 23-156 32-172 17-33-1-31-45 3-23 18-48 38-54 43-10 7-13 2-13-21 0-28 3-31 38-34 32-3 37-7 40-30 3-25 8-28 38-28 41 0 40-4 17 142-14 91-20 108-35 108-10 0-18-5-18-11M1030 703c0-10 3-42 6-70 6-44 10-53 26-53 20 0 21 13 2 113-6 30-34 38-34 10M300 700c0-5-7-10-15-10-10 0-15-11-15-35 0-41 24-49 34-10 6 24 10 25 80 25 63 0 75-3 79-17 3-10 5-1 6 20 1 37 1 37-84 37-50 0-85-4-85-10M790 651c0-29 3-31 36-31 39 0 38 9-6 40-30 21-30 21-30-9M1570 645c0-33 2-35 35-35 29 0 35 4 35 22 0 17-3 19-12 10-20-20-28-14-18 13 9 22 7 25-15 25s-25-4-25-35M1496 618c-10-38-7-48 14-48 16 0 20 7 20 35 0 40-24 49-34 13M1800 485c0-35 0-35 20-15 11 11 27 20 35 20s15 7 15 15c0 10-11 15-35 15-33 0-35-2-35-35M270 465c0-28 4-35 20-35 21 0 24 10 14 48-10 36-34 27-34-13M1070 455c0-28 4-35 20-35 21 0 24 10 14 48-10 36-34 27-34-13M2175 431c-6-29-49-81-66-81-5 0-9-4-9-10 0-15 60-12 76 4 8 8 14 22 14 30 0 9 5 16 10 16 6 0 10 16 10 35 0 44-26 48-35 6M1093 363c3-26 10-49 16-51s11-17 11-33c0-24 4-29 24-29 23 0 23 0-3 80-16 50-31 80-40 80-10 0-12-11-8-47M1780 355c0-28 4-35 20-35 11 0 20-4 20-10s50-10 130-10c123 0 130 1 130 20s-7 20-130 20c-130 0-130 0-136 25-10 39-34 31-34-10M24 345c10-49 43-125 56-125 5 0 10 16 10 35s-4 35-9 35-12 20-15 45c-6 37-11 45-28 45-18 0-19-4-14-35M330 350c0-28 3-30 35-30 19 0 35 4 35 9s-16 18-35 30c-35 20-35 20-35-9M1406 351c-3-4-10-20-15-35-10-24-8-26 14-26s25 4 25 35c0 33-12 46-24 26M420 320c0-19 7-20 115-20s115 1 115 20-7 20-115 20-115-1-115-20M1160 186c0-32 3-36 25-36 24 0 25 1 12 32-19 46-37 48-37 4M2340 175c0-20-5-25-25-25-21 0-25-5-25-31 0-32 0-32 32-7 17 13 43 39 56 56 25 32 25 32-7 32-26 0-31-4-31-25M170 110c19-17 52-39 75-50 40-20 40-20 43 1 4 26-13 39-50 39-21 0-28 5-28 20 0 17-7 20-37 20-38-1-38-1-3-30M310 46c0-13 28-26 58-26 6 0 12 9 12 20 0 16-7 20-35 20-23 0-35-5-35-14M2078 53c-30-3-38-8-38-24 0-19 4-20 43-14 83 12 97 17 97 31s-19 15-102 7M390 36c0-7 10-16 23-20 41-11 57-7 57 14 0 17-7 20-40 20-27 0-40-4-40-14"/></g><g fill="#74A0C6" ><path d="M240 2168c-96-47-199-188-215-295-6-39-5-43 14-43 13 0 21 6 21 18 0 22 33 116 43 120 4 2 7 19 7 38 0 28 4 34 22 34 27 0 78 47 78 72 0 13 8 18 28 18 37 0 54 13 50 39-3 21-3 21-48-1M1370 2120c0-63 2-70 20-70s20 7 20 70-2 70-20 70-20-7-20-70M2190 2175c0-9 9-15 25-15 18 0 25-5 25-20 0-11 7-20 15-20s15-4 15-10c0-5 16-10 36-10 32 0 35 2 23 16-16 19-109 74-126 74-7 0-13-7-13-15M1157 2072c-23-26-22-52 3-52 16 0 20 7 20 35 0 40-1 41-23 17M1200 2075c0-9 7-23 15-31 8-9 15-24 15-35 0-25 16-24 30 1 8 15 8 27-2 48-15 31-58 44-58 17M2350 2056c0-20 5-36 10-36 6 0 10-7 10-15s7-15 15-15q15 0 15-30c0-16 4-30 9-30s12-27 16-60c6-50 10-60 26-60 25 0 25 30 0 109-20 64-60 139-85 161-14 11-16 8-16-24M1350 1954c-17-65-27-88-41-91-33-9-22-33 15-33 33 0 33 1 55 73 24 83 28 137 8 137-9 0-22-32-37-86M980 1994c0-56 23-154 37-154 7 0 13-4 13-10 0-5 25-10 55-10 48 0 55 2 55 20 0 17-7 20-50 20-55 0-49-9-70 103-8 37-16 57-26 57-8 0-14-10-14-26M1150 2002c0-14 23-32 42-32 11 0 18 7 18 20 0 16-7 20-30 20-16 0-30-4-30-8M358 1923c-11-3-18-14-18-29 0-19-5-24-25-24-36 0-47-50-43-210 3-135 3-135 41-138 42-4 52 17 15 33-19 8-23 17-22 50 1 22 2 76 3 121 1 104 23 142 94 163 58 18 63 42 10 40-21-1-46-3-55-6M610 1915c0-8 7-15 15-15s24-9 35-20c20-20 20-20 20 15 0 33-2 35-35 35-24 0-35-5-35-15M1793 1915c-18-20-17-75 1-75 8 0 17 11 20 25 4 15 16 27 31 31 14 3 25 12 25 20 0 19-61 18-77-1M2040 1915c0-8 14-17 35-21 34-6 95-55 95-75 0-5 5-9 10-9 6 0 10 16 10 35 0 24-5 35-15 35-8 0-15 7-15 15s-9 15-20 15-20 5-20 10c0 6-18 10-40 10-28 0-40-4-40-15M2180 1679c0-112-1-121-20-126-11-3-20-12-20-19 0-20 66-19 74 2 3 9 6 72 6 140 0 117-1 124-20 124s-20-7-20-121M1000 1755c0-19 5-35 10-35 6 0 10 7 10 15 0 13 23 15 143 15 142 0 142 0 154-50 24-99 100-158 233-180 124-20 120-19 120-51 0-22 5-29 20-29 17 0 20 7 20 40 0 28-4 40-14 40-8 0-16 4-18 8-3 8-169 42-206 42-13 0-22 6-22 15 0 8-6 15-13 15s-18 9-25 20-18 20-25 20c-8 0-19 22-27 55-7 30-17 55-22 55-4 0-8 9-8 20 0 19-7 20-165 20-165 0-165 0-165-35M1782 1753c3-36 5-38 41-41 27-2 37 1 37 11 0 8-9 17-21 20-11 3-23 15-26 26-3 12-12 21-20 21-10 0-13-10-11-37M670 1765c0-8-11-17-25-21-39-10-31-34 10-34 33 0 35 2 35 35 0 19-4 35-10 35-5 0-10-7-10-15M839 1620c-30-23-55-45-57-50-2-6-10-10-18-10s-17-7-20-15c-4-8-12-15-20-15s-14-4-14-10c0-5-7-10-15-10-9 0-18-7-21-15-4-8-12-15-20-15-7 0-17-6-21-13-4-8-16-16-25-20-10-3-18-13-18-22 0-8-9-15-20-15s-20-7-20-15-9-15-20-15-20-7-20-15-9-15-20-15-20-7-20-15-9-15-20-15-20-7-20-15-9-15-20-15-20-7-20-15-9-15-20-15-20-7-20-15-9-15-20-15-20-4-20-9-9-11-20-14c-12-3-20-14-20-26 0-14-6-21-20-21-16 0-20-7-20-35 0-24 5-35 15-35q15 0 15-30c0-25 4-30 25-30 18 0 25-5 25-20s7-20 25-20 25-5 25-20c0-13 7-20 20-20 11 0 20-7 20-15s8-15 19-15c10 0 21-9 24-20 3-12 14-20 26-20s21-6 21-15c0-8 8-15 19-15 10 0 21-9 24-20 3-12 14-20 26-20s21-6 21-15 9-15 25-15c18 0 25-5 25-20 0-13 7-20 20-20 11 0 20-7 20-15s9-15 20-15c12 0 20-7 20-16s9-18 20-21 20-9 20-14 11-9 25-9c18 0 25-5 25-20 0-13 7-20 20-20 11 0 20-7 20-15 0-9 9-15 25-15 18 0 25-5 25-20 0-13 7-20 20-20 11 0 20-7 20-15 0-16 36-20 79-8 26 7 26 6 2 153-28 171-43 379-48 673-6 317-6 317-38 317-21 0-49-13-86-40m20-86c-9-46-7-92 3-109 3-6 4-21 3-35s0-29 4-35c3-5 6-26 7-45s5-51 9-70c3-19 7-48 9-65 2-16 9-52 15-80 19-78 29-139 45-285 16-138 30-226 42-270 7-22 0-19-57 26-35 27-113 88-174 134-292 225-490 382-497 395-5 7-5 20-2 29 5 13 582 451 600 456 1 0-2-21-7-46"/><path d="M410 1160c-24-24-27-60-4-60 9 0 24 10 34 22 15 19 20 20 34 9 23-20 2-41-40-41-39 0-43-12-12-34 32-22 55-20 83 9 46 45 19 115-45 115-17 0-39-9-50-20M460 1574c0-9-9-18-20-21-35-9-24-33 15-33 33 0 35 2 35 35 0 24-5 35-15 35-8 0-15-7-15-16M1737 1493c-4-3-7-22-7-41 0-101-68-460-135-711-14-52-25-108-25-123 0-25 3-28 35-28 24 0 35 5 35 15 0 8 9 15 20 15s20 7 20 15 9 15 20 15 20 7 20 15 9 15 20 15 20 7 20 15 9 15 20 15 20 7 20 15 9 15 20 15 20 7 20 15 9 15 20 15 20 7 20 15 9 15 20 15 20 7 20 15 9 15 20 15 20 7 20 15 9 15 20 15c13 0 20 7 20 20 0 15 7 20 25 20 16 0 25 6 25 15 0 8 9 15 20 15s20 7 20 15 9 15 20 15 20 7 20 15 9 15 20 15 20 7 20 15 9 15 20 15c15 0 20 7 20 25 0 20 5 25 25 25 23 0 25 4 25 45 0 38-3 45-20 45-13 0-20 7-20 20s-7 20-20 20c-11 0-20 7-20 15s-9 15-20 15-20 7-20 15-7 15-15 15-15 5-15 10c0 6-9 10-20 10s-20 7-20 15-9 15-20 15-20 7-20 15-9 15-20 15-20 7-20 15-7 15-15 15-15 5-15 10c0 6-6 10-14 10s-16 7-20 15c-3 8-12 15-21 15-8 0-15 5-15 10 0 6-6 10-14 10s-16 7-20 15c-3 8-12 15-20 15-7 0-16 7-20 15-5 15-66 22-79 8m128-97c216-154 354-258 359-271 3-8-5-26-17-39-29-32-597-459-603-454-2 3 2 21 10 40 34 79 125 493 142 636 3 34 10 62 14 62s7 20 6 44c-1 29 2 42 9 38 5-3 42-28 80-56"/><path d="M1982 1168c-19-19-14-28 18-28 23 0 30 4 30 20 0 23-29 27-48 8"/><path d="M2040 1156c0-14 4-27 10-31 5-3 7-12 3-20-7-20-53-20-53 0 0 8-9 15-20 15-29 0-25-34 6-59 35-27 59-26 89 4 30 29 32 68 5 95s-40 25-40-4M1666 1408c-10-38-7-48 14-48 16 0 20 7 20 35 0 40-24 49-34 13M1656 1318c-3-18-13-76-22-128-8-52-29-153-45-225-16-71-29-133-29-137 0-5 8-8 19-8 15 0 23 22 51 153 33 152 60 312 60 355 0 35-28 27-34-10M990 1180c0-53 2-60 20-60 16 0 20 7 20 38 0 52-10 82-26 82-10 0-14-16-14-60M1000 985c0-38 3-45 20-45 21 0 26 23 14 68-11 41-34 26-34-23M1010 850c0-33 3-40 20-40 21 0 25 16 14 58-11 39-34 27-34-18M1020 764c0-76 56-387 71-392 5-2 9-19 9-38 0-29 3-34 23-34 24 0 24 0 1 79-19 66-38 168-70 379-6 39-34 45-34 6"/><path d="M1535 738c-37-171-192-551-258-632-24-29-24-29-43 2-24 41-34 40-34-3 0-24 5-35 15-35 8 0 15-4 15-10 0-7-143-10-410-10-342 0-410-2-410-14 0-7 10-16 23-20 40-11 1607-7 1677 5 171 27 303 143 344 304 21 80 21 105-3 105-16 0-20-10-26-65-3-36-10-65-15-65s-14-16-21-35-17-35-21-35-8-8-8-18c0-9-10-22-22-27-13-6-27-20-33-32-5-13-17-23-25-23-9 0-25-8-36-18-10-10-49-28-87-40-65-21-82-22-462-22-344 0-395 2-395 15 0 8 5 15 10 15 6 0 10 5 10 11s7 17 15 25c8 9 15 26 15 40 0 13 6 24 13 24 18 0 47 63 47 100 0 19 5 30 14 30 14 0 36 49 36 81 0 11 4 19 8 19 11 0 52 129 52 162 0 15 5 28 11 30s13 25 16 51 10 47 14 47c5 0 9 16 9 35 0 46-26 47-35 3M290 675c0-35 0-35 20-15 11 11 27 20 35 20s15 7 15 15c0 10-11 15-35 15-33 0-35-2-35-35M410 696c0-8 11-17 25-20 14-4 25-13 25-21s5-15 10-15c6 0 10 16 10 35 0 33-2 35-35 35-23 0-35-5-35-14"/><path d="M2130 696c0-8 11-17 25-20 25-6 25-7 25-116 0-103 1-110 20-110s20 7 20 115c0 70-4 115-10 115-5 0-10 7-10 15 0 10-11 15-35 15-23 0-35-5-35-14M460 510c0-13 7-20 20-20s20 7 20 20-7 20-20 20-20-7-20-20M1990 510c0-13 7-20 20-20s20 7 20 20-7 20-20 20-20-7-20-20M620 506c0-8 11-17 25-20 14-4 25-13 25-21s5-15 10-15c6 0 10 16 10 35 0 33-2 35-35 35-23 0-35-5-35-14M1780 475c0-24 5-35 15-35 8 0 15 7 15 15s9 20 20 27c29 19 24 28-15 28-33 0-35-2-35-35M270 456c0-18 5-47 11-65 9-25 16-31 40-31s29-4 29-24c0-27 21-36 88-36 50 0 59 25 12 34-16 3-43 9-60 12-37 7-67 44-81 101-14 52-39 59-39 9M2165 400c-17-33-52-54-107-64-49-9-52-36-5-36 57 0 107 19 107 40 0 13 7 20 20 20 16 0 20 7 20 35 0 43-14 45-35 5M20 375c0-32 42-140 71-182S212 70 231 70c5 0 9 11 9 25 0 18-5 25-19 25-10 0-21 9-24 20-3 12-14 20-26 20-14 0-21 6-21 20 0 11-7 23-15 26-8 4-15 12-15 20s-4 14-10 14c-5 0-10 7-10 15s-4 15-10 15c-5 0-10 11-10 25s-4 25-10 25c-5 0-10 16-10 35 0 28-4 35-20 35-11 0-20-7-20-15M1800 338c0-38 0-38 40-38 49 0 56 25 10 35-16 4-34 14-40 23-7 13-9 9-10-20M628 338c-52-14-50-38 2-38 36 0 40 3 40 25 0 14-1 25-2 24-2-1-20-6-40-11M1130 255c0-19 5-35 10-35 6 0 10-11 10-25 0-20 5-25 25-25 25 0 25 0 4 52-25 63-28 68-40 68-5 0-9-16-9-35M280 56c0-8 19-18 44-25 60-15 66-14 66 8 0 13-10 20-31 25-51 10-79 7-79-8"/></g><g fill="#123148" ><path d="M240 2165c-96-50-187-172-210-281-7-33-10-303-8-804 3-755 3-755 36-822C112 147 210 64 322 34c74-19 98-18 98 5 0 14-10 20-44 24-49 7-136 45-149 65-4 6-16 12-26 12s-21 9-24 21c-3 11-15 23-26 26-12 3-21 13-21 23s-4 20-8 22c-5 2-21 33-35 70-27 66-27 66-27 800 0 403 4 749 9 768 16 61 35 104 59 130 13 15 22 38 22 57 0 30 3 33 30 33 16 0 46 11 67 25 54 35 63 44 63 60 0 21-17 18-70-10M971 2083c0-60 8-142 17-183 17-75 17-75 194-78 177-2 177-2 198 65 29 90 39 223 17 223-16 0-27-29-27-75 0-16-9-62-21-101-21-72-21-72-153-76-72-3-138-1-147 3-21 11-39 115-39 233 0 89-1 96-20 96s-20-6-19-107M2180 2179c0-22 13-36 38-44 13-4 32-14 41-23 9-10 35-33 56-52 44-39 88-119 105-190 12-51 8-1494-5-1569-9-56 13-53 35 5 13 33 15 151 18 769 2 505 0 750-8 794-21 120-84 220-177 279-58 37-103 50-103 31"/><path d="M1260.796 2030.99c0 32.79-26.582 59.372-59.372 59.372s-59.372-26.582-59.372-59.372 26.582-59.372 59.372-59.372 59.372 26.582 59.372 59.372M1220 2029c0-5-7-9-15-9-15 0-20 12-9 23 8 8 24-1 24-14M540 1920c0-18 7-20 54-20 69 0 78-11 74-92-3-63-3-63-103-68-96-5-100-6-103-29-3-22-1-23 28-17 18 3 68 6 111 6 104 0 109 6 109 120 0 109-10 120-107 120-56 0-63-2-63-20M1820 1931c-32-5-35-9-38-43-4-43 17-53 33-15 8 18 19 23 58 25 39 3 47 6 47 23 0 20-26 23-100 10M360 1921c0-5-10-11-21-13-32-4-60-49-66-102-5-37-3-46 10-46 9 0 18 13 22 31 9 41 59 96 95 104 43 9 39 35-5 35-19 0-35-4-35-9M2060 1917c0-7 16-19 35-26 43-15 72-52 86-108 15-57 39-58 39-2 0 52-24 104-60 129-32 23-100 27-100 7M990 1755c0-39 24-50 33-15 3 11 12 20 21 20s16 7 16 15c0 10-11 15-35 15-33 0-35-2-35-35M1270 1777c0-8 8-17 19-20 13-3 22-21 31-57 13-56 51-107 103-139 18-11 79-28 136-39s107-24 111-29c10-11-23-268-55-423-60-286-148-587-220-751-47-107-126-240-140-236-27 9-108 198-144 337-11 41-27 122-36 180-8 58-18 120-21 138-3 20-11 32-21 32-16 0-16-15 2-175 5-36 4-37-5-11-11 34-36 231-46 359-6 78-8 87-26 87-19 0-20-5-13-72 15-170 36-336 46-381 6-26 9-50 7-52-9-10-726 554-734 577-4 14 1 27 17 43 13 13 164 127 334 255 268 200 310 229 313 210 5-34 27-17 30 23 3 36 2 37-29 37s-129-61-129-81c0-5-7-9-15-9-9 0-18-7-21-15-4-8-12-15-19-15-6 0-24-11-39-25s-31-25-37-25c-5 0-12-7-15-15-4-8-13-15-21-15s-17-9-20-20-13-20-23-20-32-13-50-30c-18-16-34-30-37-30-11 0-213-154-213-162 0-4-6-8-14-8-22 0-56-49-56-81 0-34 19-79 34-79 6 0 17-9 24-20s18-20 26-20 16-7 20-15c3-8 14-15 25-15 10 0 21-9 24-20s12-20 20-20 17-7 21-15c3-8 15-15 26-15s20-7 20-15 8-15 19-15c10 0 21-9 24-20 3-12 14-20 26-20s21-6 21-15c0-8 9-15 20-15s20-7 20-14c0-16 59-66 77-66 6 0 13-7 17-15 3-8 15-15 26-15s20-7 20-15 6-15 14-15 16-7 20-15c3-8 15-15 26-15 12 0 20-7 20-16s9-18 19-21c11-3 22-11 25-19s15-14 26-14 20-7 20-15 9-15 20-15 20-7 20-15 7-15 15-15 15-4 15-10c0-5 16-10 35-10 34 0 35 1 36 38 1 26 7 9 21-58 22-107 73-263 88-268 6-2 10-12 10-22 0-23 31-90 41-90 4 0 9-9 12-20 10-37 97-19 97 19 0 6 5 11 10 11 6 0 10 7 10 15s3 15 8 15c10 0 42 58 42 76 0 8 5 14 10 14 6 0 10 9 10 20s4 20 9 20c10 0 62 130 102 258 50 159 47 153 48 110 1-36 3-38 34-38 33 0 117 51 117 71 0 5 7 9 15 9 9 0 18 7 21 15 4 8 13 15 20 15 8 0 17 7 20 15 4 8 13 15 20 15 8 0 17 7 20 15 4 8 13 15 20 15 8 0 17 7 20 15 4 8 13 15 20 15 8 0 17 6 20 14s14 16 25 19c10 3 19 12 19 21s8 16 20 16c11 0 20 5 20 10 0 6 7 10 15 10s20 9 27 20 19 20 26 20 15 7 18 15c4 8 12 15 20 15 7 0 17 6 21 13 4 6 22 19 38 28 17 10 34 26 40 38 5 12 17 21 26 21 28 0 40 26 37 81-2 40-8 55-23 63-11 6-24 17-28 24-4 6-14 12-21 12-8 0-16 7-20 15-3 8-10 15-15 15s-24 13-41 29c-18 16-44 35-58 42-15 8-31 20-35 26-4 7-15 13-22 13-8 0-15 5-15 10 0 6-6 10-14 10s-16 7-20 15c-3 8-12 15-20 15s-16 4-18 9c-1 5-26 27-55 50-38 30-62 41-87 41-34 0-34 0-46-102-23-204-59-391-112-596-31-119-33-94-2 34 55 234 104 530 104 630 0 53 0 53-37 63-21 5-56 13-78 16-73 12-150 37-158 51-4 8-17 14-27 14-13 0-20 7-20 18 0 10-4 22-10 28-5 5-15 34-23 64-14 53-15 55-51 58-26 2-36-1-36-11m838-554c62-46 116-91 119-99 4-10-5-26-23-44-36-34-604-463-604-456 0 3 11 45 26 93 58 200 134 600 134 705 0 19 3 37 6 40 5 6 95-56 342-239"/><path d="M2094.57 1114.136c0 36.469-29.564 66.033-66.033 66.033s-66.033-29.564-66.033-66.033 29.564-66.033 66.033-66.033 66.033 29.564 66.033 66.033M2050 1121c0-26-17-36-36-21-11 10-12 16-3 26 17 20 39 17 39-5M1800 1737c0-37 0-37 95-37s95 0 95-89c0-72 3-90 16-95 9-3 54-6 101-6 95 0 113 9 113 59 0 38-25 42-34 6-6-24-10-25-81-25-74 0-74 0-77 93-3 92-3 92-103 95-79 2-103 6-112 19-11 14-13 12-13-20M290 1548c0-38 0-38 95-38s95 0 95 35c0 19-4 35-10 35-5 0-10-7-10-15 0-24-145-22-159 3-8 14-10 10-11-20M930 1183c0-72 8-103 26-103 11 0 14 19 14 80 0 73-2 80-20 80s-20-7-20-57M523.956 1113.443c0 35.897-29.1 64.998-64.998 64.998-35.897 0-64.997-29.1-64.997-64.998 0-35.897 29.1-64.997 64.997-64.997 35.898 0 64.998 29.1 64.998 64.997M464 1134c19-7 22-44 3-44-17 0-37 20-37 37 0 14 10 16 34 7M990 1110c0-63 2-70 20-70 17 0 20 7 20 48 0 61-9 92-26 92-11 0-14-17-14-70M1000 940c0-53 2-60 20-60 16 0 20 7 20 38 0 52-10 82-26 82-10 0-14-16-14-60"/><path d="M1010 825c0-38 3-45 20-45 21 0 26 23 14 68-11 41-34 26-34-23M277 703c-4-3-7-21-7-40 0-37 24-47 33-12 3 11 15 23 26 26 35 9 25 33-12 33-19 0-37-3-40-7M420 696c0-7 9-16 20-19 18-5 20-14 20-76 0-64 2-71 20-71s20 7 20 59c0 32-3 73-6 90-6 27-10 31-40 31-22 0-34-5-34-14M1995 698c-2-7-5-57-8-111-4-95-4-98 17-95 19 3 21 10 24 92 2 78 5 89 22 93 11 3 20 12 20 19 0 18-69 19-75 2M2140 696c0-9 7-16 16-16s21-13 27-30c18-46 39-39 35 13-3 41-4 42-40 45-29 2-38 0-38-12M1803 523c-7-2-13-16-13-29s-4-24-10-24c-5 0-10-18-10-40 0-33 3-40 20-40s20 7 20 44c0 51 7 56 86 56 47 0 54 2 54 20s-6 20-67 19c-38 0-74-3-80-6M2190 506c0-2-5-27-10-57-12-64-40-96-97-111-56-14-58-38-3-38 28 0 40 4 40 14 0 9 12 16 32 18 24 2 34 9 37 23 2 11 8 23 14 27 6 3 13 34 15 67 4 51 2 61-12 61-9 0-16-2-16-4M653 489c13-8 17-24 17-75 0-64-1-66-30-77-44-17-38-37 10-37 51 0 60 17 60 119 0 81 0 81-37 81-31-1-35-3-20-11M273 423c3-26 10-49 16-51s11-10 11-18 8-18 18-21c9-4 20-11 23-16 4-5 27-12 53-14 60-7 65 18 7 36-45 13-86 57-96 101-4 18-13 30-22 30-13 0-15-9-10-47M1780 345c0-33 2-35 35-35 39 0 44 9 15 28-11 7-20 19-20 27s-7 15-15 15c-10 0-15-11-15-35M2240 110c0-5-7-10-15-10s-15-4-15-8c0-5-31-15-70-22-57-11-70-17-70-32 0-24 34-24 111 2 61 21 129 59 129 73 0 4-16 7-35 7s-35-4-35-10M830 45c0-23 4-25 45-25s45 2 45 25-4 25-45 25-45-2-45-25"/></g><g fill="#002F53" ><path d="M373 1933c-17-3-23-11-23-30 0-20 3-24 18-17 20 9 237 23 270 18 17-3 22 0 22 16 0 19-6 20-132 19-73-1-143-4-155-6M1820 1921c0-18 9-20 135-20 129-1 135 0 135 19s-6 20-135 20c-127 0-135-1-135-19M2190 1060c-35-29-35-29 3-30 35 0 37 2 37 30 0 17-1 30-3 30-1 0-18-13-37-30M940 1033c0-34 12-63 26-63 10 0 14 13 14 40 0 33-3 40-20 40-12 0-20-7-20-17M340 991c0-29 3-31 36-31 39 0 38 9-6 40-30 21-30 21-30-9M1640 935c0-40 24-49 34-12s7 47-14 47c-16 0-20-7-20-35M2020 930c-35-29-35-29 3-30 35 0 37 2 37 30 0 17-1 30-3 30-1 0-18-13-37-30M470 891c0-29 3-31 36-31 39 0 38 9-6 40-30 21-30 21-30-9M1940 870c-35-29-35-29 3-30 35 0 37 2 37 30 0 17-1 30-3 30-1 0-18-13-37-30M1620 845c0-40 24-49 34-12s7 47-14 47c-16 0-20-7-20-35M560 821c0-29 3-31 36-31 39 0 38 9-6 40-30 21-30 21-30-9M960 823c0-34 12-63 26-63 10 0 14 13 14 40 0 33-3 40-20 40-12 0-20-7-20-17M1010 805c0-28 4-35 20-35 21 0 24 10 14 48-10 36-34 27-34-13M1810 770c-35-29-35-29 3-30 35 0 37 2 37 30 0 17-1 30-3 30-1 0-18-13-37-30M1020 715c0-28 4-35 20-35 21 0 24 10 14 48-10 36-34 27-34-13M700 711c0-24 4-31 20-31 11 0 20-7 20-15s9-15 20-15 20-7 20-15c0-11 11-15 38-15 37 1 37 1 4 29-18 16-53 43-78 60-44 32-44 32-44 2"/><path d="M970 733c0-20 31-193 37-209 7-20 9-21-102 62-35 26-35 26-35-5 0-24 4-31 20-31 11 0 20-7 20-15s9-15 20-15 20-7 20-15c0-20 63-20 83 0 13 13 16 6 27-53 17-88 61-224 104-317 34-74 34-74-112-68-81 3-154 9-162 13s-88 7-178 8c-106 1-170 6-185 14-13 7-71 12-147 13-69 1-133 5-143 10-22 9-117 104-117 116 0 5-11 9-25 9-32 0-31-8 4-57 60-82 156-144 256-162 77-14 885-15 885-1 0 6 14 10 30 10q30 0 30 15c0 8 5 15 10 15 6 0 10 7 10 15s5 15 10 15c6 0 10 11 10 25 0 16 6 25 15 25 8 0 15 9 15 20s5 20 10 20c6 0 10 16 10 35 0 42-12 45-30 8-8-16-34-59-58-98-42-66-45-68-59-50-50 66-123 267-153 420-11 61-23 122-26 138-3 15-12 27-19 27-8 0-15-12-17-27-2-18-7-5-12 35-7 51-11 62-27 62-10 0-19-3-19-7"/><path d="M443 683c18-5 19-10 21-118 1-70 1-70 101-75 92-5 101-7 110-27 15-35 35-28 35 12 0 46-20 55-124 55-86 0-86 0-86 80s0 80-37 79c-21-1-30-3-20-6M1800 515c0-8-7-15-15-15-12 0-15-16-15-85 0-50 4-85 10-85s10-7 10-15c0-10 11-15 35-15 41 0 49 24 10 34-21 5-25 13-27 49-2 60 2 91 13 102 6 6 51 10 102 10 79 0 92 2 95 18 3 15-7 17-107 17-92 0-111-3-111-15M2430 448c-1-136-95-248-208-248-21 0-44-6-50-12-7-7-48-16-90-20-126-11-235-28-246-37-12-10-80-18-225-27-55-4-100-11-107-19-7-7-49-15-93-19-71-6-81-10-81-27 0-18 11-19 378-19 416 0 461 5 558 60 59 34 124 100 152 157 48 94 65 253 26 253-10 0-14-13-14-42"/><path d="M2181 433c-7-21-15-44-17-50-4-9 3-13 19-13 26 0 37 20 37 73 0 40-25 34-39-10M270 425c0-19 5-35 10-35 6 0 10-9 10-20s7-20 15-20 15-7 15-15 9-15 20-15 20-4 20-10c0-5 16-10 35-10 44 0 48 26 5 35-39 8-87 56-95 95-9 43-35 39-35-5M680 375c0-8-9-24-20-35-20-20-20-20 15-20 33 0 35 2 35 35 0 24-5 35-15 35-8 0-15-7-15-15M30 358c0-30 13-58 26-58 9 0 14 12 14 35 0 28-4 35-20 35-11 0-20-6-20-12M2098 342c-45-20-50-42-9-42 45 0 61 10 61 36 0 28-2 28-52 6"/></g><g fill="#002542" ><path d="M1165 2070c-18-20-17-20 13-20 22 0 32-5 32-15q0-15-30-15c-36 0-39-14-6-35 20-14 29-14 48-4 28 14 38 28 38 52 0 22-35 57-58 57-11 0-27-9-37-20M80 2003c-8-16-16-31-18-35-2-5 8-8 22-8 23 0 26 4 26 35 0 42-12 45-30 8M2390 1976c0-32 3-36 25-36 24 0 25 1 12 32-19 46-37 48-37 4M1356 1948c-10-38-7-48 14-48 16 0 20 7 20 35 0 40-24 49-34 13M380 1930c0-5-11-10-25-10-21 0-25-5-25-31 0-30 0-30 28-11 15 11 42 23 60 27 44 9 43 35-3 35-19 0-35-4-35-10M610 1928c1-7 16-20 35-29 35-16 35-16 35 12 0 26-3 29-35 29-22 0-35-5-35-12M1810 1915c0-18-5-25-20-25-18 0-20-7-20-80 0-80 0-80 31-80 26 0 29 2 20 14-7 9-11 41-9 82 3 68 3 68 36 78 44 12 42 36-3 36-31 0-35-3-35-25M2030 1926c0-13 28-26 58-26 6 0 12 9 12 20 0 16-7 20-35 20-23 0-35-5-35-14M270 1805c0-22 5-35 13-35s18 16 24 35c11 33 10 35-13 35-21 0-24-5-24-35M680 1775c0-8-10-23-22-35-22-20-22-20 15-20 36 0 37 1 37 35 0 24-5 35-15 35-8 0-15-7-15-15M1324 1709c11-55 37-98 79-129 50-36 57-37 57-5 0 18-5 25-20 25-11 0-20 6-20 13s-9 19-20 27-20 20-20 27-4 13-10 13c-5 0-10 14-10 30 0 24-4 30-21 30-19 0-21-4-15-31M2190 1675c0-28 4-35 20-35s20 7 20 35-4 35-20 35-20-7-20-35M900 1634c0-14 3-14 15-4 13 11 15 8 15-19 0-24 4-31 20-31s20 7 20 35c0 33-2 35-35 35-26 0-35-4-35-16M780 1575c0-8-9-15-20-15-15 0-20-7-20-25 0-22-4-25-35-25-24 0-35-5-35-15 0-8-9-15-20-15s-20-7-20-15-7-15-15-15c-23 0-65-30-65-46 0-8-7-14-15-14-23 0-65-30-65-46 0-8-9-14-20-14s-20-7-20-15-9-15-20-15-20-7-20-15-9-15-20-15-20-4-20-10c0-5-7-10-15-10-9 0-18-6-21-14s-17-17-31-21c-38-9-55-31-61-80-5-52 2-88 24-109 14-15 13-18-20-31-19-8-58-15-85-15-51 0-61 9-61 51 0 14-7 19-25 19-26 0-26 0-23-367 3-368 3-368 30-423C99 186 203 80 239 80c7 0 19-7 27-15 18-18 35-20 31-3-1 7 9 14 23 16 43 8 161 2 180-8 10-6 50-10 88-10 96 0 172-11 147-21-14-5-5-8 28-8 27-1 46 3 42 8-9 16 33 23 56 10 23-12 178-20 409-21 210-1 236 1 257 21 11 11 31 17 51 15 38-2 149 11 175 21 14 6 20 2 24-14 6-24 23-29 23-6 0 8 6 15 13 15 6 0 24 6 39 14 16 9 30 10 35 5 6-6 15-4 23 6 8 9 29 15 57 15 24 0 52 4 62 9 9 5 50 11 91 12 54 2 78 7 86 18 9 12 17 13 34 5 28-12 103 23 153 71 64 61 67 83 67 638 0 485 0 497-19 497-16 0-20-8-23-37-2-30-8-39-24-41-12-2-30-12-40-23-9-10-21-19-26-19s-18-9-30-20c-36-33-82-23-142 32-11 10-25 18-31 18s-22 11-35 25c-24 25-134 95-151 95-5 0-9 5-9 10 0 6-9 10-20 10s-20 7-20 15-8 15-19 15c-10 0-21 9-24 20-4 15-14 20-42 20-48 0-41-9 74-93 47-35 146-108 219-162 167-122 166-118 27-225-348-264-529-399-533-395-2 2 5 32 17 67 30 91 86 333 110 474 25 146 25 134 2 134-15 0-21-8-24-32-3-25-4-22-5 15-2 33-6 47-16 47-16 0-26-30-26-77 0-27 4-33 21-33 18 0 20-4 13-46-7-48-29-84-51-84-7 0-13-3-13-7 0-5-18-82-39-173-84-355-175-606-277-768-20-31-38-59-40-61-17-19-82 103-128 240-50 148-87 377-101 624-8 137-13 165-30 165-12 0-15-14-15-60 0-53-2-60-20-60-11 0-20-6-20-14 0-41 31-302 45-370 8-44 13-81 11-83-3-3-250 183-436 330-58 45-149 116-202 157-95 74-119 102-110 128 2 8 136 113 298 233 162 121 294 222 294 224 0 3-16 5-35 5-24 0-35-5-35-15M465 657c4-13 4-47 2-77-7-80-7-80 90-80 115 0 123-5 123-83 0-36-5-68-12-75-19-19-261-16-299 3-57 30-69 66-69 201 0 66 3 124 7 127 3 4 39 7 79 7 69 0 74-2 79-23m1723-100c3-135-9-173-63-207-28-17-49-20-168-20-156 0-157 1-157 86 0 74 15 84 127 84 93 0 93 0 93 83 0 46 3 87 7 91s41 5 83 4c75-3 75-3 78-121M1590 1536c0-13 28-26 58-26 6 0 12 9 12 20 0 16-7 20-35 20-23 0-35-5-35-14"/><path d="M1720 1430c0-45 23-57 34-17 11 41 7 57-14 57-17 0-20-7-20-40"/><path d="M1676 1428c-11-42-7-58 14-58 16 0 20-7 20-30 0-36 25-41 34-7 10 37 7 47-14 47-16 0-20 7-20 35 0 40-24 49-34 13M930 1268c0-57 9-88 26-88 11 0 14 16 14 65 0 58-2 65-20 65-17 0-20-7-20-42M430 1167c-38-19-41-80-5-103 20-13 33-15 52-8 41 14 40 34-1 34-29 0-36 4-36 20 0 18 4 20 40 14 51-8 53 18 3 45-26 13-22 13-53-2M2088.755 1113.946c0 34.303-27.807 62.11-62.11 62.11s-62.11-27.807-62.11-62.11 27.807-62.11 62.11-62.11 62.11 27.808 62.11 62.11M2039 1126c9-10 8-15-3-19-16-7-26 1-26 20 0 17 14 17 29-1M940 1068c0-48 10-78 26-78 10 0 14 15 14 55 0 48-2 55-20 55-16 0-20-7-20-32"/></g><g fill="#001A2F" ><path d="M246 2164c-67-35-138-109-178-185-33-64-33-64-36-534-1-270 1-464 6-457 7 11 11 9 15-7 3-12 1-19-4-15-5 3-6-2-3-10 13-34 243 2 267 41 3 5-4 21-17 34-13 14-29 35-35 48-13 24-6 81 10 81 6 0 103 69 217 154 331 247 437 324 439 323 1-1 4-121 7-267 7-317 18-444 40-466 9-8 16-20 16-25 0-17 19-9 21 9 1 9 3 209 6 445 4 428 4 428 150 425 147-3 147-3 158-49 27-104 83-152 202-175 153-29 153-29 153-77 0-23-5-60-10-82s-11-62-14-90c-3-27-10-75-16-105-16-80-38-215-35-218 9-10 35 15 49 46 9 22 13 27 10 12-4-19-3-22 5-10 6 8 11 23 11 33 0 9 5 17 11 17 5 0 7 5 4 10-3 6-2 10 3 10 8 0 33 145 52 309 5 46 12 86 14 89 3 2 41-23 84-55 43-33 103-74 133-91s65-42 78-56c14-14 30-26 36-26s20-8 31-18c10-9 39-30 64-47 25-16 48-33 51-38 3-4 23 6 45 23 21 16 48 30 59 30 17 0 17 2 5 10-13 8-13 10 1 10 9 0 24 9 34 20s26 20 35 20c10 0 22 6 28 13s10 126 11 303c2 272 1 295-19 353-27 82-57 128-117 181-92 82-82 80-538 80-403 0-403 0-407-102-3-67-13-127-27-171-22-68-22-68-169-65s-147 3-164 78c-9 41-17 117-17 168-1 92-1 92-353 92-353-1-353-1-402-26m416-271c14-12 18-31 18-79 0-39-5-66-12-71-7-4-56-10-108-13-95-5-95-5-100-95s-5-90-68-93c-38-2-69 2-78 9-11 9-14 41-14 134 0 110 2 125 23 156 37 56 76 69 206 69 92 0 118-3 133-17m1464-10c52-37 65-78 65-204 0-70-4-116-12-125-7-9-32-14-69-14-91 0-90-1-90 101 0 89 0 89-93 89-118 0-132 10-125 96 7 82 15 86 168 82 110-3 129-6 156-25"/><path d="M1162 2068c-21-21-14-64 14-83 23-15 27-15 50 0 14 9 22 20 19 25-4 6-2 10 4 10 5 0 6 11 2 28-6 22-14 28-42 30-19 2-40-3-47-10M2086.176 1117.461c0 31.237-25.322 56.558-56.558 56.558s-56.558-25.321-56.558-56.558 25.321-56.558 56.558-56.558 56.558 25.322 56.558 56.558M517.916 1113.278c0 32.322-26.201 58.523-58.523 58.523s-58.524-26.201-58.524-58.523 26.202-58.524 58.524-58.524 58.523 26.202 32.322 0"/></g></svg>